<?xml version="1.0" standalone="no"?>
<!DOCTYPE svg PUBLIC "-//W3C//DTD SVG 1.1//EN" "http://www.w3.org/Graphics/SVG/1.1/DTD/svg11.dtd" >
<svg xmlns="http://www.w3.org/2000/svg">
<metadata>
<json>
<![CDATA[
{
	"fontFamily": "umayor",
	"majorVersion": 1,
	"minorVersion": 0,
	"copyright": "umayor",
	"designer": "cmunozm",
	"fontURL": "http://www.umayor.cl",
	"description": "iconos para plataforma\nFont generated by IcoMoon.",
	"version": "Version 1.0",
	"fontId": "umayor",
	"psName": "umayor",
	"subFamily": "Regular",
	"fullName": "umayor"
}
]]>
</json>
</metadata>
<defs>
<font id="umayor" horiz-adv-x="1024">
<font-face units-per-em="1024" ascent="960" descent="-64" />
<missing-glyph horiz-adv-x="1024" />
<glyph unicode="&#x20;" horiz-adv-x="512" d="" />
<glyph unicode="&#xe900;" glyph-name="building" data-tags="building" d="M0 517.818v-488.727h232.727v372.364h186.182v-372.364h232.727v502.691l-316.509 209.455zM418.909 866.909v-69.818l93.091-60.509 79.127-55.855h60.509v-37.236l93.091-60.509v-88.436h93.091v-93.091h-93.091v-93.091h93.091v-93.091h-93.091v-186.182h279.273v837.818h-605.091zM837.818 587.636h-93.091v93.091h93.091v-93.091z" />
<glyph unicode="&#xe901;" glyph-name="calendar" data-tags="calendar" d="M919.668 849.872c-1.932 0-3.864 0-5.796 0h-79.215v67.623c0 27.049-25.117 42.506-52.166 42.506h-73.419c-27.049 0-46.37-15.457-46.37-42.506v-67.623h-297.54v67.623c0 27.049-19.321 42.506-46.37 42.506h-73.419c-27.049 0-52.166-15.457-52.166-42.506v-67.623h-79.215c-50.234 1.932-92.74-38.642-94.672-88.875 0-1.932 0-3.864 0-5.796v-712.936c0-56.030 38.642-106.264 94.672-106.264h799.879c54.098 0 94.672 50.234 94.672 104.332v712.936c0 50.234-38.642 92.74-88.875 96.604zM707.14 909.766h77.283v-135.245h-77.283v135.245zM245.374 909.766h69.555v-135.245h-69.555v135.245zM956.377 40.332c0-27.049-17.389-56.030-44.438-56.030h-797.947c-27.049 0-44.438 28.981-44.438 56.030v525.525h888.755v-525.525zM956.377 753.268v-139.109h-888.755v139.109c-1.932 23.185 15.457 42.506 38.642 46.37 1.932 0 3.864 0 5.796 0h79.215v-27.049c0-27.049 25.117-46.37 52.166-46.37h73.419c25.117 0 46.37 19.321 46.37 44.438 0 0 0 1.932 0 1.932v27.049h295.608v-27.049c0-25.117 19.321-46.37 44.438-46.37 0 0 1.932 0 1.932 0h73.419c27.049 0 52.166 19.321 52.166 46.37v27.049h79.215c23.185 1.932 42.506-15.457 44.438-38.642 1.932-1.932 1.932-5.796 1.932-7.728zM376.755 227.743l-21.253-123.653c0-5.796 0-11.592 1.932-15.457 5.796-11.592 21.253-17.389 32.845-9.66l110.128 57.962 110.128-57.962 11.592-1.932c5.796 0 9.66 1.932 15.457 5.796 7.728 5.796 11.592 13.525 9.66 23.185l-21.253 123.653 90.808 86.943c5.796 7.728 9.66 17.389 5.796 25.117s-11.592 15.457-19.321 15.457l-123.653 19.321-56.030 112.060c-1.932 5.796-5.796 9.66-11.592 11.592-11.592 5.796-27.049 0-32.845-11.592l-56.030-112.060-123.653-19.321c-9.66-1.932-15.457-7.728-19.321-15.457-1.932-9.66 0-19.321 5.796-25.117l90.808-88.875zM444.377 328.211c7.728 1.932 13.525 5.796 17.389 13.525l38.642 79.215 38.642-79.215c3.864-7.728 9.66-11.592 17.389-13.525l86.943-11.592-63.758-59.894c-5.796-5.796-7.728-13.525-7.728-21.253l15.457-86.943-77.283 42.506-11.592 1.932-9.66-5.796-77.283-42.506 15.457 86.943c1.932 7.728-1.932 15.457-7.728 21.253l-63.758 59.894 88.875 15.457z" />
<glyph unicode="&#xe902;" glyph-name="cohete" data-tags="cohete" d="M745.978 684.731c-57.806 57.806-151.398 57.806-209.204 0s-57.806-151.398 0-209.204c57.806-57.806 151.398-57.806 209.204 0s57.806 151.398 0 209.204zM704.688 516.817c-35.785-35.785-93.591-35.785-126.624 0-35.785 35.785-35.785 93.591 0 126.624 35.785 35.785 93.591 35.785 126.624 0 35.785-35.785 35.785-90.839 0-126.624zM1024 932.473c0 16.516-13.763 27.527-27.527 27.527-264.258 2.753-512-123.871-668.903-335.828-90.839 46.796-198.194 46.796-280.774 2.753-16.516-11.011-19.269-33.032-5.505-44.043l173.419-173.419c-11.011-33.032-22.022-66.065-27.527-99.097-2.753-8.258 0-19.269 8.258-27.527l154.151-154.151c5.505-5.505 16.516-11.011 27.527-8.258 33.032 8.258 66.065 16.516 99.097 27.527l173.419-173.419c13.763-13.763 35.785-11.011 44.043 5.505 44.043 82.581 44.043 189.935 0 280.774 203.699 162.409 330.323 410.151 330.323 671.656zM633.118 296.602c-11.011-8.258-16.516-24.774-8.258-38.538 38.538-66.065 49.548-145.892 27.527-211.957l-154.151 156.903c-8.258 8.258-19.269 11.011-30.28 5.505-30.28-11.011-63.312-22.022-93.591-30.28l-129.376 129.376c8.258 30.28 16.516 63.312 30.28 93.591 2.753 11.011 2.753 22.022-5.505 30.28l-156.903 156.903c66.065 22.022 145.892 11.011 211.957-27.527 13.763-8.258 30.28-2.753 38.538 8.258 140.387 200.946 363.355 322.065 605.591 333.075-11.011-239.484-134.882-465.204-335.828-605.591zM49.548 114.925l99.097 99.097c11.011 11.011 11.011 30.28 0 41.29s-30.28 11.011-41.29 0l-99.097-99.097c-11.011-11.011-11.011-30.28 0-41.29s30.28-11.011 41.29 0zM162.409 101.161c-11.011 11.011-30.28 11.011-41.29 0l-99.097-99.097c-11.011-11.011-11.011-30.28 0-41.29s30.28-11.011 41.29 0l99.097 99.097c11.011 11.011 11.011 30.28 0 41.29zM275.269 84.645l-99.097-99.097c-11.011-11.011-11.011-30.28 0-41.29s30.28-11.011 41.29 0l99.097 99.097c11.011 11.011 11.011 30.28 0 41.29-13.763 11.011-30.28 11.011-41.29 0z" />
<glyph unicode="&#xe903;" glyph-name="comentarios" data-tags="comentarios" d="M1024 857.6c0 56.32-46.080 102.4-102.4 102.4h-819.2c-56.32 0-102.4-46.080-102.4-102.4v-614.4c0-56.32 46.080-102.4 102.4-102.4h716.8l204.8-204.8v921.6zM819.2 345.6h-614.4v102.4h614.4v-102.4zM819.2 499.2h-614.4v102.4h614.4v-102.4zM819.2 652.8h-614.4v102.4h614.4v-102.4z" />
<glyph unicode="&#xe904;" glyph-name="compass" data-tags="compass" d="M199.111 61.156l17.067-125.156 91.022 85.333 159.289 432.356c-39.822 11.378-73.956 34.133-102.4 56.889l-164.978-449.422zM676.978 510.578c-28.444-28.444-62.578-45.511-102.4-56.889l159.289-432.356 91.022-85.333 17.067 125.156-164.978 449.422zM688.356 675.556c0 73.956-45.511 136.533-113.778 159.289v125.156h-113.778v-125.156c-68.267-22.756-113.778-85.333-113.778-159.289 0-96.711 73.956-170.667 170.667-170.667s170.667 73.956 170.667 170.667zM517.689 618.667c-28.444 0-56.889 28.444-56.889 56.889s28.444 56.889 56.889 56.889 56.889-28.444 56.889-56.889-22.756-56.889-56.889-56.889z" />
<glyph unicode="&#xe905;" glyph-name="conexion" data-tags="conexion" d="M256 857.6c0-56.554-45.846-102.4-102.4-102.4s-102.4 45.846-102.4 102.4c0 56.554 45.846 102.4 102.4 102.4s102.4-45.846 102.4-102.4zM819.2 601.6c-143.36 0-256-112.64-256-256h102.4c0 87.040 66.56 153.6 153.6 153.6v102.4zM972.8 294.4c0-56.554-45.846-102.4-102.4-102.4s-102.4 45.846-102.4 102.4c0 56.554 45.846 102.4 102.4 102.4s102.4-45.846 102.4-102.4zM947.2 140.8h-153.6c-76.8 0-138.24 56.32-153.6 128h-102.4c10.24-102.4 81.92-189.44 179.2-215.040v-117.76h307.2v128c0 40.96-35.84 76.8-76.8 76.8zM819.2 704v102.4c-256 0-460.8-204.8-460.8-460.8h102.4c0 199.68 158.72 358.4 358.4 358.4zM486.4 832h-102.4c-15.36-71.68-76.8-128-153.6-128h-153.6c-40.96 0-76.8-35.84-76.8-76.8v-128h307.2v117.76c97.28 25.6 168.96 112.64 179.2 215.040z" />
<glyph unicode="&#xe906;" glyph-name="dinero" data-tags="dinero" d="M512 960c-281.6 0-512-230.4-512-512s230.4-512 512-512 512 230.4 512 512-230.4 512-512 512zM583.68 135.68v-97.28h-138.24v97.28c-87.040 20.48-163.84 76.8-168.96 174.080h102.4c5.12-51.2 40.96-97.28 138.24-97.28 102.4 0 122.88 51.2 122.88 81.92 0 40.96-20.48 81.92-138.24 107.52-128 30.72-215.040 81.92-215.040 189.44 0 87.040 71.68 143.36 158.72 163.84v102.4h138.24v-102.4c97.28-25.6 143.36-97.28 148.48-174.080h-102.4c0 56.32-30.72 97.28-112.64 97.28-76.8 0-122.88-35.84-122.88-81.92s30.72-71.68 133.12-97.28c102.4-25.6 215.040-71.68 215.040-199.68 0-97.28-66.56-148.48-158.72-163.84z" />
<glyph unicode="&#xe907;" glyph-name="document" data-tags="document" d="M857.234 960h-696.32c-49.737 0-87.771-38.034-87.771-87.771v-857.234c0-49.737 38.034-87.771 87.771-87.771h696.32c49.737 0 87.771 38.034 87.771 87.771v857.234c0 49.737-40.96 87.771-87.771 87.771zM886.491 14.994c0-17.554-11.703-29.257-29.257-29.257h-696.32c-17.554 0-29.257 11.703-29.257 29.257v857.234c0 17.554 11.703 29.257 29.257 29.257h696.32c17.554 0 29.257-11.703 29.257-29.257v-857.234zM693.394 752.274h-392.046c-43.886 0-76.069-35.109-76.069-78.994s35.109-76.069 76.069-76.069h392.046c43.886 0 76.069 35.109 76.069 76.069 0 43.886-35.109 78.994-76.069 78.994zM693.394 655.726h-392.046c-11.703 0-17.554 8.777-17.554 17.554s8.777 20.48 17.554 20.48h392.046c11.703 0 17.554-8.777 17.554-20.48s-8.777-17.554-17.554-17.554zM693.394 494.811h-392.046c-43.886 0-76.069-35.109-76.069-78.994s35.109-76.069 76.069-76.069h392.046c43.886 0 76.069 35.109 76.069 76.069 0 43.886-35.109 78.994-76.069 78.994zM693.394 398.263h-392.046c-11.703 0-17.554 8.777-17.554 17.554s8.777 20.48 17.554 20.48h392.046c11.703 0 17.554-8.777 17.554-20.48s-8.777-17.554-17.554-17.554z" />
<glyph unicode="&#xe908;" glyph-name="engranaje" data-tags="engranaje" horiz-adv-x="997" d="M880 400c0 16 5.333 32 5.333 48s0 32-5.333 48l106.667 85.333c10.667 5.333 10.667 21.333 5.333 32l-101.333 176c-5.333 10.667-21.333 16-32 10.667l-128-53.333c-26.667 21.333-53.333 37.333-85.333 48l-21.333 133.333c0 10.667-10.667 21.333-26.667 21.333h-202.667c-10.667 10.667-21.333 0-26.667-10.667l-16-133.333c-32-16-58.667-32-85.333-53.333l-128 53.333c-10.667 5.333-26.667 0-32-10.667l-101.333-181.333c-5.333-10.667-5.333-21.333 5.333-32l106.667-85.333c0-16-5.333-32-5.333-48s0-32 5.333-48l-106.667-85.333c-10.667-5.333-10.667-21.333-5.333-32l101.333-176c5.333-10.667 21.333-16 32-10.667l128 53.333c26.667-21.333 53.333-37.333 85.333-48l21.333-133.333c0-10.667 10.667-21.333 26.667-21.333h202.667c10.667 0 21.333 10.667 26.667 21.333l21.333 133.333c32 10.667 58.667 32 85.333 48l128-53.333c10.667-5.333 26.667 0 32 10.667l101.333 176c5.333 10.667 5.333 26.667-5.333 32l-112 85.333zM496 256c-106.667 0-192 85.333-192 192s90.667 192 192 192 192-85.333 192-192-85.333-192-192-192z" />
<glyph unicode="&#xe909;" glyph-name="grafico" data-tags="grafico" d="M910.222 960h-796.444c-62.578 0-113.778-51.2-113.778-113.778v-796.444c0-62.578 51.2-113.778 113.778-113.778h796.444c62.578 0 113.778 51.2 113.778 113.778v796.444c0 62.578-51.2 113.778-113.778 113.778zM341.333 163.556h-113.778v398.222h113.778v-398.222zM568.889 163.556h-113.778v568.889h113.778v-568.889zM796.444 163.556h-113.778v227.556h113.778v-227.556z" />
<glyph unicode="&#xe90a;" glyph-name="info" data-tags="info" d="M512 945.371c-273.763 0-495.282-223.608-495.282-497.371s221.518-497.371 497.371-497.371 497.371 221.518 497.371 497.371c-2.090 273.763-225.698 497.371-499.461 497.371zM562.155 199.314h-100.31v100.31h100.31v-100.31zM562.155 397.845h-100.31v298.841h100.31v-298.841z" />
<glyph unicode="&#xe90b;" glyph-name="men" data-tags="men" d="M614.4 857.6c0-56.554-45.846-102.4-102.4-102.4s-102.4 45.846-102.4 102.4c0 56.554 45.846 102.4 102.4 102.4s102.4-45.846 102.4-102.4zM51.2 704v-102.4h307.2v-665.6h102.4v307.2h102.4v-307.2h102.4v665.6h307.2v102.4z" />
<glyph unicode="&#xe90c;" glyph-name="menu" data-tags="menu" d="M527.754 700.062c70.892 0 133.908 63.015 133.908 133.908-7.877 63.015-63.015 126.031-133.908 126.031s-133.908-63.015-133.908-133.908c0-70.892 63.015-126.031 133.908-126.031zM527.754 566.154c-70.892 0-133.908-63.015-133.908-133.908s63.015-133.908 133.908-133.908c70.892 0 133.908 63.015 133.908 133.908-7.877 70.892-63.015 133.908-133.908 133.908zM527.754 172.308c-70.892 0-133.908-63.015-133.908-133.908s63.015-133.908 133.908-133.908c70.892 0 133.908 63.015 133.908 133.908-7.877 70.892-63.015 133.908-133.908 133.908z" />
<glyph unicode="&#xe90d;" glyph-name="menu-circulo" data-tags="menu-circulo" d="M512 960c-283.569 0-512-228.431-512-512s228.431-512 512-512 512 228.431 512 512-228.431 512-512 512zM512 184.123c-35.446 0-66.954 31.508-66.954 66.954s31.508 66.954 66.954 66.954c35.446 0 66.954-31.508 66.954-66.954s-31.508-66.954-66.954-66.954zM512 381.046c-35.446 0-66.954 31.508-66.954 66.954s31.508 66.954 66.954 66.954c35.446 0 66.954-31.508 66.954-66.954s-31.508-66.954-66.954-66.954zM512 577.969c-35.446 0-66.954 31.508-66.954 66.954s31.508 66.954 66.954 66.954c35.446 0 66.954-31.508 66.954-66.954s-31.508-66.954-66.954-66.954z" />
<glyph unicode="&#xe90e;" glyph-name="nube" data-tags="nube" d="M823.467 533.333c-29.867 145.067-157.867 256-311.467 256-123.733 0-230.4-68.267-285.867-170.667-128-17.067-226.133-123.733-226.133-256 0-140.8 115.2-256 256-256h554.667c119.467 0 213.333 93.867 213.333 213.333 0 110.933-85.333 204.8-200.533 213.333zM597.333 405.333v-170.667h-170.667v170.667h-128l213.333 213.333 213.333-213.333h-128z" />
<glyph unicode="&#xe90f;" glyph-name="salir" data-tags="salir" d="M403.2 243.2l83.2-76.8 281.6 281.6-281.6 281.6-83.2-76.8 147.2-147.2h-550.4v-115.2h550.4zM908.8 960h-793.6c-64 0-115.2-51.2-115.2-115.2v-230.4h115.2v230.4h793.6v-793.6h-793.6v230.4h-115.2v-230.4c0-64 51.2-115.2 115.2-115.2h793.6c64 0 115.2 51.2 115.2 115.2v793.6c0 64-51.2 115.2-115.2 115.2z" />
<glyph unicode="&#xe910;" glyph-name="tablet" data-tags="tablet" d="M313.388 860.195c9.981 0 15.969 7.984 15.969 15.969s-7.984 15.969-15.969 15.969c-9.981 0-15.969-7.984-15.969-15.969s7.984-15.969 15.969-15.969zM363.29 894.129h231.548v-33.934h-231.548v33.934zM495.033 762.386h165.676v-33.934h-165.676v33.934zM628.772 694.519h33.934v-33.934h-33.934v33.934zM495.033 694.519h99.805v-33.934h-99.805v33.934zM495.033 628.647h165.676v-33.934h-165.676v33.934zM495.033 562.776h165.676v-33.934h-165.676v33.934zM956.133 309.271l-21.957 53.895c-7.984 17.965-17.965 35.93-33.934 49.903l-105.793 107.789v357.302c0 45.91-37.926 81.84-81.84 81.84h-530.963c-45.91 0-81.84-37.926-81.84-81.84v-387.244l-45.91-45.91c-33.934-35.93-53.895-81.84-53.895-129.747 0-9.981 0-19.961 1.996-29.942l25.949-153.7c3.992-21.957 9.981-41.918 17.965-61.879l19.961-51.899v-81.84h231.548v79.844l11.977 27.945c3.992 7.984 5.988 15.969 7.984 23.953h493.037l213.583-127.75v319.376l-67.867 49.903zM878.285 389.115c11.977-11.977 19.961-23.953 25.949-37.926l17.965-47.906-167.673-167.673-69.864 9.981c-21.957 3.992-41.918 11.977-57.887 25.949l-33.934 27.945c-17.965 15.969-39.922 25.949-63.875 31.938v3.992h-33.934c-7.984 0-15.969 7.984-15.969 15.969 0 5.988 1.996 9.981 7.984 13.973l5.988 3.992c15.969 9.981 35.93 15.969 53.895 15.969 25.949 0 51.899-9.981 69.864-27.945l15.969-15.969 23.953 23.953-15.969 15.969-221.567 217.575c-3.992 3.992-5.988 7.984-5.988 13.973 0 9.981 7.984 17.965 17.965 17.965 3.992 0 9.981-1.996 13.973-5.988l203.602-203.602 23.953 23.953-71.86 71.86c-3.992 3.992-5.988 7.984-5.988 13.973 0 9.981 7.984 17.965 17.965 17.965 3.992 0 9.981-1.996 13.973-5.988l71.86-71.86 23.953 23.953-71.86 71.86c-3.992 3.992-5.988 7.984-5.988 13.973 0 9.981 7.984 17.965 17.965 17.965 3.992 0 9.981-1.996 13.973-5.988l73.856-73.856 23.953 23.953-39.922 39.922c-3.992 3.992-5.988 7.984-5.988 13.973 0 9.981 7.984 17.965 17.965 17.965 3.992 0 9.981-1.996 13.973-5.988l117.77-119.766zM495.033 199.485v-33.934h-99.805v33.934h99.805zM495.033 375.142v-9.981h-33.934v33.934h9.981l23.953-23.953zM397.224 662.581v65.871h33.934v-165.676h-165.676v165.676h33.934v-65.871h97.809zM331.353 694.519v33.934h33.934v-33.934h-33.934zM131.743 878.16c0 27.945 21.957 49.903 49.903 49.903h528.967c27.945 0 49.903-21.957 49.903-49.903v-333.349c-3.992 1.996-9.981 1.996-13.973 1.996-5.988 0-11.977-1.996-17.965-3.992v285.442h-562.901v-606.815c-1.996-3.992-3.992-9.981-5.988-13.973s-7.984-7.984-11.977-7.984c-7.984 0-13.973 5.988-13.973 13.973v664.702zM265.481-32.062h-165.676v33.934h165.676v-33.934zM277.458 55.766l-7.984-21.957h-173.661l-17.965 45.91c-7.984 17.965-11.977 35.93-15.969 55.891l-25.949 153.7c-1.996 7.984-1.996 15.969-1.996 23.953 0 39.922 15.969 77.848 43.914 105.793l21.957 23.953v-229.552c0-25.949 21.957-47.906 47.906-47.906 17.965 0 33.934 9.981 41.918 25.949 15.969 33.934 29.942 69.864 39.922 105.793l11.977 49.903c1.996 9.981 11.977 15.969 21.957 15.969 11.977 0 21.957-9.981 21.957-19.961l11.977-167.673c0-5.988 0-13.973 0-19.961 0-33.934-5.988-67.867-19.961-99.805zM317.38 331.228h77.848v99.805h-99.805v-45.91c-9.981 7.984-21.957 13.973-35.93 13.973-25.949 0-47.906-17.965-53.895-41.918l-9.981-37.926v475.072h495.033v-275.462c-7.984 5.988-19.961 9.981-31.938 9.981-27.945 0-49.903-21.957-51.899-49.903-19.961 0-37.926-13.973-45.91-29.942l-97.809 97.809c-1.996 1.996-3.992 3.992-5.988 3.992v211.587h-225.559v-231.548h151.704c-1.996-5.988-3.992-11.977-3.992-17.965s0-9.981 1.996-13.973h-151.704v-33.934h175.657l33.934-33.934h-9.981v-99.805h99.805v9.981l25.949-25.949c-1.996 0-5.988 0-7.984 0-21.957 0-43.914-5.988-63.875-15.969h-163.68l-1.996 31.938zM331.353 365.162v33.934h33.934v-33.934h-33.934zM325.365 99.68c3.992 17.965 5.988 35.93 5.988 55.891 0 7.984 0 15.969 0 23.953l-5.988 87.828h127.75c-1.996-5.988-3.992-11.977-3.992-17.965s1.996-9.981 1.996-15.969h-85.832v-99.805h165.676v61.879c15.969-3.992 29.942-11.977 41.918-21.957l33.934-27.945c21.957-17.965 45.91-29.942 73.856-33.934l75.852-9.981h-431.158zM992.062-2.121l-205.598 123.758 157.692 157.692 47.906-35.93v-245.52z" />
<glyph unicode="&#xe911;" glyph-name="universidad" data-tags="universidad" d="M673.684 474.947v323.368l-161.684 161.684-161.684-161.684v-107.789h-323.368v-754.526h970.105v538.947h-323.368zM242.526 43.789h-107.789v107.789h107.789v-107.789zM242.526 259.368h-107.789v107.789h107.789v-107.789zM242.526 474.947h-107.789v107.789h107.789v-107.789zM565.895 43.789h-107.789v107.789h107.789v-107.789zM565.895 259.368h-107.789v107.789h107.789v-107.789zM565.895 474.947h-107.789v107.789h107.789v-107.789zM565.895 690.526h-107.789v107.789h107.789v-107.789zM889.263 43.789h-107.789v107.789h107.789v-107.789zM889.263 259.368h-107.789v107.789h107.789v-107.789z" />
<glyph unicode="&#xe912;" glyph-name="file" data-tags="file" d="M768 533.333h-426.667c-9.421 0-17.067-7.629-17.067-17.067s7.646-17.067 17.067-17.067h426.667c9.421 0 17.067 7.629 17.067 17.067s-7.646 17.067-17.067 17.067zM341.333 635.733h170.667c9.421 0 17.067 7.629 17.067 17.067s-7.646 17.067-17.067 17.067h-170.667c-9.421 0-17.067-7.629-17.067-17.067s7.646-17.067 17.067-17.067zM768 396.8h-426.667c-9.421 0-17.067-7.629-17.067-17.067s7.646-17.067 17.067-17.067h426.667c9.421 0 17.067 7.629 17.067 17.067s-7.646 17.067-17.067 17.067zM768 260.267h-426.667c-9.421 0-17.067-7.629-17.067-17.067s7.646-17.067 17.067-17.067h426.667c9.421 0 17.067 7.629 17.067 17.067s-7.646 17.067-17.067 17.067zM768 123.733h-426.667c-9.421 0-17.067-7.629-17.067-17.067s7.646-17.067 17.067-17.067h426.667c9.421 0 17.067 7.629 17.067 17.067s-7.646 17.067-17.067 17.067zM836.267 711.066v248.934h-733.867v-938.667h85.333v-85.333h733.867v689.732l-85.333 85.333zM682.667 816.401l180.668-180.668h-180.668v180.668zM136.533 55.467v870.4h665.6v-180.668l-129.468 129.468h-484.932v-819.2h-51.2zM221.867-29.867v870.4h426.667v-238.933h238.933v-631.467h-665.6z" />
<glyph unicode="&#xe913;" glyph-name="informacion" data-tags="info" d="M512 945.371c-273.763 0-495.282-223.608-495.282-497.371s221.518-497.371 497.371-497.371 497.371 221.518 497.371 497.371c-2.090 273.763-225.698 497.371-499.461 497.371zM562.155 199.314h-100.31v100.31h100.31v-100.31zM562.155 397.845h-100.31v298.841h100.31v-298.841z" />
<glyph unicode="&#xe914;" glyph-name="team" data-tags="team" d="M903.44 485.48c-34.844 17.42-100.174 17.622-102.938 17.622-8.284 0-15-6.716-15-15s6.716-15 15-15c16.858-0.002 65.804-2.598 89.522-14.456 2.154-1.078 4.442-1.586 6.696-1.586 5.502 0 10.8 3.040 13.428 8.294 3.706 7.41 0.702 16.42-6.708 20.126zM978.224 271.918l-61.95 17.7c-2.674 0.764-4.542 3.24-4.542 6.022v20.678c5.040 3.492 9.848 7.4 14.342 11.762 21.78 21.136 33.774 49.486 33.774 79.83v28.534l5.99 11.978c6.574 13.15 10.048 27.872 10.048 42.572v77.3c0 8.284-6.716 15-15 15h-144.346c-52.488 0-95.192-42.704-95.192-95.192v-0.894c0-12.224 2.89-24.466 8.356-35.398l7.682-15.364v-24.5c0-38.828 19.134-73.666 48.116-94.63l0.004-21.672c0-3.342 0-4.726-12.386-8.266l-30.228-8.636-87.442 31.796c0.314 4.126-1.078 8.322-4.088 11.484l-27.942 29.356v49.28c2.954 2.434 5.866 4.934 8.688 7.578 35.25 33.040 55.466 79.688 55.466 127.982v39.356c10.644 23.162 16.038 47.672 16.038 72.914v160.38c0 8.284-6.716 15-15 15h-224.538c-79.020 0-143.306-64.288-143.306-143.306v-32.078c0-25.242 5.394-49.752 16.038-72.914v-33.862c0-56.072 24.932-106.588 64.154-139.892v-50.44l-27.942-29.356c-3.010-3.162-4.402-7.358-4.088-11.484l-92.29-33.558c-6.688-2.432-12.902-5.726-18.544-9.716l-14.492 7.246c43.14 18.778 56.806 45.188 57.462 46.5 2.112 4.222 2.112 9.194 0 13.416-10.814 21.628-12.124 61.27-13.176 93.122-0.35 10.604-0.682 20.622-1.316 29.542-5.114 71.948-59.81 126.206-127.23 126.206s-122.118-54.256-127.23-126.206c-0.634-8.922-0.966-18.94-1.316-29.546-1.052-31.85-2.364-71.488-13.176-93.116-2.112-4.222-2.112-9.194 0-13.416 0.656-1.312 14.294-27.668 57.52-46.468l-40.254-20.126c-21.52-10.768-34.888-32.398-34.888-56.456v-110.818c0-8.284 6.716-15 15-15s15 6.716 15 15v110.818c0 12.624 7.014 23.974 18.304 29.62l50.126 25.062 17.436-16.57c12.192-11.586 27.832-17.376 43.478-17.376 15.642 0 31.29 5.794 43.478 17.376l17.434 16.568 16.344-8.172c-7.696-12.314-12.064-26.754-12.064-41.88v-115.45c0-8.284 6.716-15 15-15s15 6.716 15 15v115.45c0 20.592 13.002 39.156 32.356 46.194l97.304 35.382 40.506-60.762c5.178-7.768 13.476-12.75 22.766-13.67 1.036-0.102 2.066-0.152 3.094-0.152 8.196 0 16.046 3.226 21.914 9.092l24.712 24.712v-156.248c0-8.284 6.716-15 15-15s15 6.716 15 15v156.248l24.712-24.712c5.866-5.868 13.716-9.094 21.914-9.094 1.026 0 2.058 0.050 3.092 0.152 9.292 0.92 17.59 5.902 22.768 13.67l40.508 60.76 97.302-35.382c19.352-7.038 32.356-25.602 32.356-46.194v-115.45c0-8.284 6.716-15 15-15s15 6.716 15 15v115.45c0 20.856-8.286 40.416-22.186 54.882l3.706 1.058c3.738 1.068 8.838 2.53 13.958 5.040l38.298-38.298v-138.132c0-8.284 6.716-15 15-15s15 6.716 15 15v138.132l38.032 38.032c2.022-1.028 4.146-1.896 6.382-2.534l61.952-17.7c14.14-4.040 24.018-17.134 24.018-31.842v-124.088c0-8.284 6.716-15 15-15s15 6.716 15 15v124.088c0 28.036-18.824 52.994-45.776 60.696zM96.23 298.412c-28.058 10.096-42.132 23.556-48.14 30.906 4.096 10.708 6.752 22.972 8.55 35.918 8.272-19.834 22.126-36.766 39.59-48.846v-17.978zM182.16 257.816c-12.794-12.156-32.836-12.154-45.626 0.002l-13.95 13.256c2.354 4.41 3.648 9.41 3.648 14.648v15.988c10.464-3.27 21.588-5.034 33.116-5.034 11.514 0 22.632 1.772 33.114 5.024l-0.002-15.976c0-5.24 1.292-10.242 3.648-14.654l-13.948-13.254zM159.352 326.676c-44.792 0-81.23 36.44-81.23 81.23 0 8.284-6.716 15-15 15-0.84 0-1.66-0.086-2.462-0.22 0.044 1.29 0.086 2.582 0.13 3.86 0.334 10.314 0.656 20.056 1.25 28.412 1.916 26.952 12.686 51.788 30.326 69.936 17.798 18.312 41.586 28.396 66.982 28.396s49.182-10.084 66.982-28.396c17.64-18.148 28.41-42.984 30.326-69.936 0.592-8.354 0.916-18.094 1.256-28.406 0.030-0.886 0.060-1.784 0.090-2.676-16.32 25.144-41.524 43.674-74.090 54.138-30.086 9.666-55.962 9.068-57.054 9.040-3.928-0.11-7.656-1.754-10.382-4.582l-27.064-28.068c-5.75-5.964-5.578-15.46 0.386-21.21s15.46-5.576 21.21 0.386l22.52 23.354c19.394-0.948 81.788-8.204 106.054-61.638-6.106-39.376-39.95-68.62-80.23-68.62zM222.458 298.362l0.002 17.89c17.45 12.014 31.324 28.914 39.602 48.898 1.798-12.916 4.452-25.152 8.54-35.836-5.974-7.28-20.114-20.86-48.144-30.952zM366.806 541.71v37.216c0 2.258-0.51 4.488-1.492 6.522-9.652 19.988-14.546 41.196-14.546 63.036v32.076c0 62.478 50.83 113.306 113.306 113.306h209.538v-145.384c0-21.84-4.894-43.048-14.546-63.036-0.982-2.034-1.492-4.264-1.492-6.522v-42.71c0-40.622-16.33-78.3-45.982-106.094-3.702-3.468-7.544-6.72-11.516-9.75-0.088-0.060-0.172-0.126-0.258-0.188-27.778-21.090-61.802-31.34-97.334-29.038-76.082 4.926-135.678 71.062-135.678 150.566zM451.264 239.888c-0.104-0.104-0.346-0.35-0.836-0.298-0.488 0.048-0.68 0.334-0.762 0.458l-46.65 69.976 15.012 15.774 70.77-48.374-37.534-37.536zM512.19 297.774l-81.23 55.524v28c21.018-11.362 44.552-18.468 69.582-20.088 3.954-0.256 7.884-0.382 11.802-0.382 28.682 0 56.286 6.856 81.076 19.87v-27.4l-81.23-55.524zM574.714 240.044c-0.082-0.124-0.274-0.41-0.762-0.458-0.49-0.062-0.73 0.196-0.836 0.298l-37.534 37.534 70.77 48.376 15.014-15.774-46.652-69.976zM848.616 252.7l-34.040 34.038c0.594 2.698 0.93 5.652 0.928 8.91l-0.002 6.33c9.446-3.1 19.402-4.94 29.704-5.248 1.156-0.036 2.302-0.052 3.454-0.052 11.384 0 22.496 1.72 33.072 5.002v-6.040c0-2.992 0.376-5.924 1.084-8.742l-34.2-34.198zM905.182 349.608c-15.898-15.428-36.9-23.576-59.074-22.892-43.408 1.302-78.722 39.536-78.722 85.226v28.042c0 2.33-0.542 4.626-1.584 6.708l-9.266 18.532c-3.394 6.79-5.188 14.39-5.188 21.982v0.894c0 35.948 29.246 65.192 65.192 65.192h129.346v-62.3c0-10.068-2.38-20.15-6.882-29.156l-7.572-15.144c-1.042-2.084-1.584-4.378-1.584-6.708v-32.076c0-22.16-8.76-42.864-24.666-58.3zM944.846 198.372c-8.284 0-15-6.716-15-15v-96.23c0-8.284 6.716-15 15-15s15 6.716 15 15v96.23c0 8.282-6.716 15-15 15zM79.154 178.544c-8.284 0-15-6.716-15-15v-76.402c0-8.284 6.716-15 15-15s15 6.716 15 15v76.402c0 8.282-6.716 15-15 15zM635.064 643.050c-56.732 56.732-175.43 45.886-223.834 38.59-15.246-2.298-26.31-15.2-26.31-30.678v-34.556c0-8.284 6.716-15 15-15s15 6.716 15 15v34.558c0 0.51 0.336 0.946 0.784 1.014 19.334 2.914 57.7 7.41 97.45 4.76 46.776-3.114 80.656-14.856 100.698-34.9 5.858-5.858 15.356-5.858 21.212 0 5.858 5.858 5.858 15.356 0 21.212zM335.768 166.294c-8.284 0-15-6.716-15-15v-64.154c0-8.284 6.716-15 15-15s15 6.716 15 15v64.154c0 8.282-6.716 15-15 15zM688.612 166.294c-8.284 0-15-6.716-15-15v-64.154c0-8.284 6.716-15 15-15s15 6.716 15 15v64.154c0 8.282-6.716 15-15 15z" />
<glyph unicode="&#xe915;" glyph-name="text-document" data-tags="text-document" d="M711.732 960h-515.382c-34.605 0-62.784-28.199-62.784-62.797v-898.394c0-34.651 28.179-62.806 62.784-62.806h631.295c34.636 0 62.789 28.155 62.789 62.806v767.018l-178.703 194.174zM726.55 866.031l78.328-85.128h-78.328v85.128zM837.703-1.194c0-5.531-4.528-10.073-10.086-10.073h-631.267c-5.549 0-10.051 4.541-10.051 10.073v898.396c0 5.544 4.502 10.038 10.051 10.038h477.441v-152.715c0-14.54 11.844-26.328 26.393-26.328h137.52v-729.392zM279.321 679.534h447.792c10.908 0 19.756-8.848 19.756-19.756s-8.848-19.756-19.756-19.756h-447.792c-10.906 0-19.756 8.848-19.756 19.756 0 10.906 8.85 19.756 19.756 19.756zM746.87 527.017c0-10.906-8.848-19.756-19.756-19.756h-447.792c-10.906 0-19.756 8.848-19.756 19.756s8.85 19.756 19.756 19.756h447.792c10.908 0 19.756-8.85 19.756-19.756zM746.87 398.605c0-10.908-8.848-19.756-19.756-19.756h-447.792c-10.906 0-19.756 8.848-19.756 19.756s8.85 19.756 19.756 19.756h447.792c10.908 0 19.756-8.848 19.756-19.756zM746.87 268.005c0-10.908-8.848-19.756-19.756-19.756h-447.792c-10.906 0-19.756 8.848-19.756 19.756s8.85 19.756 19.756 19.756h447.792c10.908 0 19.756-8.848 19.756-19.756z" />
<glyph unicode="&#xe916;" glyph-name="user-circle" data-tags="user (1)" d="M1024 448c0 282.307-229.693 512-512 512s-512-229.693-512-512c0-149.113 64.121-283.518 166.186-377.167l-0.484-0.428 16.607-14.001c1.080-0.912 2.253-1.657 3.333-2.551 8.825-7.317 17.967-14.262 27.276-20.983 3.016-2.178 6.032-4.357 9.104-6.479 9.942-6.851 20.145-13.349 30.571-19.512 2.271-1.341 4.561-2.644 6.851-3.947 11.413-6.498 23.068-12.623 35.002-18.246 0.875-0.41 1.769-0.782 2.644-1.192 38.893-18.078 80.412-31.353 123.83-39.191 1.136-0.205 2.271-0.41 3.426-0.614 13.48-2.327 27.108-4.189 40.904-5.437 1.676-0.149 3.351-0.242 5.046-0.391 13.74-1.136 27.629-1.862 41.705-1.862 13.945 0 27.704 0.726 41.37 1.825 1.731 0.149 3.463 0.242 5.194 0.391 13.684 1.247 27.201 3.053 40.55 5.343 1.154 0.205 2.327 0.41 3.482 0.633 42.766 7.671 83.689 20.648 122.079 38.26 1.415 0.652 2.849 1.266 4.264 1.936 11.487 5.399 22.714 11.227 33.718 17.427 2.737 1.545 5.455 3.109 8.173 4.71 10.017 5.902 19.866 12.065 29.435 18.618 3.444 2.346 6.814 4.822 10.221 7.28 8.173 5.883 16.198 11.953 23.999 18.302 1.731 1.396 3.593 2.607 5.288 4.040l17.036 14.224-0.503 0.428c102.959 93.687 167.694 228.706 167.694 378.582zM37.236 448c0 261.79 212.973 474.764 474.764 474.764s474.764-212.973 474.764-474.764c0-141.070-61.905-267.897-159.912-354.918-5.474 3.779-10.985 7.168-16.626 9.998l-157.64 78.811c-14.15 7.075-22.938 21.299-22.938 37.106v55.054c3.649 4.506 7.503 9.607 11.487 15.211 20.406 28.821 36.771 60.881 48.705 95.381 23.589 11.208 38.819 34.704 38.819 61.235v66.001c0 16.142-5.921 31.8-16.514 44.106v86.891c0.968 9.681 4.394 64.195-35.058 109.177-34.313 39.173-89.851 59.001-165.087 59.001s-130.774-19.828-165.087-58.982c-39.452-44.982-36.026-99.533-35.058-109.177v-86.891c-10.575-12.307-16.514-27.965-16.514-44.106v-66.001c0-20.499 9.197-39.619 24.948-52.522 15.081-59.075 46.117-103.796 57.586-118.952v-53.881c0-15.192-8.285-29.156-21.634-36.454l-147.214-80.3c-4.692-2.551-9.346-5.53-14.001-8.862-96.796 86.984-157.789 213.029-157.789 353.075z" />
<glyph unicode="&#xe917;" glyph-name="user" data-tags="user" d="M874.039 810.039c-96.703 96.703-225.281 149.961-362.039 149.961-136.766 0-265.336-53.258-362.039-149.961s-149.961-225.273-149.961-362.039c0-136.758 53.258-265.336 149.961-362.039s225.273-149.961 362.039-149.961c136.758 0 265.336 53.258 362.039 149.961s149.961 225.281 149.961 362.039c0 136.766-53.258 265.336-149.961 362.039zM256.68 75.227c21.414 123.297 128.258 214.242 255.32 214.242 127.070 0 233.906-90.945 255.32-214.242-72.695-49.945-160.648-79.227-255.32-79.227s-182.625 29.281-255.32 79.227zM349.203 512.266c0 89.773 73.031 162.797 162.797 162.797s162.797-73.031 162.797-162.797c0-89.766-73.031-162.797-162.797-162.797s-162.797 73.031-162.797 162.797zM819.289 116.844c-16.148 57.398-48.219 109.477-93.172 150.156-27.578 24.961-58.969 44.656-92.719 58.539 61 39.789 101.406 108.625 101.406 186.727 0 122.852-99.953 222.797-222.805 222.797s-222.797-99.945-222.797-222.797c0-78.102 40.406-146.937 101.398-186.727-33.742-13.883-65.141-33.57-92.719-58.531-44.945-40.68-77.023-92.758-93.172-150.156-88.945 82.602-144.711 200.477-144.711 331.148 0 249.234 202.766 452 452 452s452-202.766 452-452c0-130.68-55.766-248.555-144.711-331.156z" />
<glyph unicode="&#xe918;" glyph-name="users" data-tags="users" d="M947.49 165.547l-166.793 72.243c-3.925 1.963-8.277 6.758-12.015 13.158l111.36 0.085c1.946-0.188 47.855-4.386 84.668 11.435 13.943 6.007 24.32 17.869 28.484 32.546 4.198 14.814 1.536 30.498-7.27 43.059-31.829 45.295-106.121 163.652-108.442 283.699-0.051 2.065-6.775 206.217-208.384 207.872-29.679-0.239-57.122-5.274-82.091-14.558-5.444 13.875-13.466 28.348-25.395 41.967-35.038 40.004-91.921 60.279-169.079 60.279s-134.042-20.275-169.097-60.245c-40.414-46.097-36.659-101.99-35.703-111.36v-90.778c-10.923-12.442-17.067-28.365-17.067-44.8v-68.267c0-20.77 9.438-40.141 25.549-53.060 15.633-61.901 48.35-108.544 59.785-123.511v-56.474c0-16.521-9.011-31.676-23.501-39.595l-152.252-83.046c-49.51-27.034-80.247-78.814-80.247-135.202v-72.329h1024v63.095c0 52.77-29.321 100.181-76.51 123.785zM750.933 12.8h-716.8v38.195c0 43.878 23.927 84.207 62.447 105.199l152.252 83.046c25.481 13.909 41.301 40.585 41.301 69.581v68.591l-3.977 4.745c-0.41 0.495-42.24 51.098-58.197 120.576l-1.553 6.758-5.82 3.755c-9.882 6.383-15.787 17.084-15.787 28.621v68.267c0 9.574 4.062 18.5 11.435 25.173l5.632 5.069v106.291l-0.154 2.236c-0.051 0.461-5.854 47.77 27.392 85.692 28.279 32.256 76.544 48.606 143.428 48.606 66.645 0 114.807-16.23 143.121-48.265 14.080-15.906 21.163-33.673 24.695-48.93 0.273-1.195 0.529-2.372 0.768-3.55 0.239-1.212 0.495-2.423 0.683-3.584 0.222-1.331 0.41-2.594 0.597-3.857 0.137-0.905 0.273-1.826 0.375-2.697 0.256-2.116 0.461-4.164 0.597-6.059 0.017-0.154 0.017-0.29 0.017-0.444 0.119-1.843 0.205-3.584 0.256-5.171 0-0.307 0-0.563 0.017-0.87 0.034-1.417 0.034-2.765 0.017-3.942 0-0.171 0-0.341 0-0.512-0.068-4.011-0.341-6.4-0.341-6.451l-0.137-108.493 5.632-5.086c7.373-6.656 11.435-15.582 11.435-25.156v-68.267c0-14.899-9.762-27.938-24.269-32.41l-8.499-2.611-2.731-8.448c-11.418-35.516-27.682-68.318-48.367-97.502-5.069-7.185-10.001-13.551-14.285-18.415l-4.25-4.847v-70.4c0-4.318 0.427-8.55 1.092-12.715 0.137-0.887 0.375-1.741 0.546-2.628 0.666-3.43 1.553-6.793 2.645-10.069 0.256-0.768 0.529-1.502 0.819-2.27 1.331-3.567 2.884-7.014 4.693-10.325 0.205-0.375 0.393-0.768 0.597-1.143 2.475-4.369 5.325-8.516 8.602-12.339l3.891-4.796h0.666c5.854-5.769 12.578-10.786 20.224-14.609l163.038-81.51c40.875-20.412 66.253-61.474 66.253-107.162v-34.867zM989.867 12.8h-204.8v34.867c0 58.692-32.614 111.445-85.094 137.694l-117.043 58.539c2.884 6.588 3.26 14.131 0.734 21.402-4.181 12.032-15.104 19.797-27.819 19.797h-37.837c-0.785 1.382-1.297 2.901-1.929 4.369-0.853 1.963-1.86 3.891-2.423 5.956-1.041 3.789-1.655 7.748-1.655 11.81v57.702c3.908 4.779 8.021 10.223 12.271 16.23 21.146 29.867 38.093 63.113 50.415 98.97 24.081 11.042 39.714 34.85 39.714 61.73v68.267c0 16.435-6.144 32.358-17.067 44.8v90.778c0.444 4.267 1.399 18.244-1.434 36.506 21.982 8.636 46.609 13.090 73.216 13.312 167.953-1.382 174.080-167.441 174.251-174.438 2.509-129.417 80.998-254.754 114.637-302.626 2.884-4.096 3.755-9.25 2.372-14.114-0.785-2.799-3.038-7.885-9.131-10.496-28.672-12.339-67.567-8.841-69.564-8.755h-117.47c-10.974 0-20.975-5.581-26.761-14.916-5.769-9.301-6.315-20.668-1.468-30.43 5.342-10.769 14.78-25.156 30.293-32.887l166.349-72.055c35.311-17.835 57.242-53.436 57.242-93.047v-28.962z" />
<glyph unicode="&#xe919;" glyph-name="arrow-right" data-tags="angle-arrow-pointing-to-right" d="M800.34 471.604l-478.15 478.129c-6.843 6.835-14.717 10.267-23.604 10.267-8.891 0-16.761-3.432-23.6-10.267l-51.294-51.305c-6.85-6.839-10.26-14.695-10.26-23.6s3.411-16.761 10.26-23.6l403.238-403.238-403.238-403.245c-6.85-6.839-10.26-14.709-10.26-23.59 0-8.902 3.411-16.772 10.26-23.611l51.298-51.287c6.839-6.846 14.709-10.257 23.6-10.257 8.887 0 16.758 3.418 23.6 10.257l478.125 478.132c6.835 6.835 10.257 14.709 10.257 23.6s-3.396 16.761-10.232 23.615z" />
<glyph unicode="&#xe91a;" glyph-name="arrow-left" data-tags="angle-pointing-to-left" d="M397.071 448l403.245 403.238c6.835 6.839 10.257 14.709 10.257 23.6s-3.418 16.761-10.257 23.586l-51.309 51.309c-6.843 6.835-14.709 10.267-23.579 10.267-8.895 0-16.761-3.432-23.6-10.267l-478.15-478.129c-6.839-6.839-10.249-14.709-10.249-23.6 0-8.895 3.411-16.761 10.249-23.6l478.125-478.129c6.85-6.85 14.724-10.267 23.615-10.267 8.88 0 16.747 3.418 23.586 10.267l51.309 51.273c6.835 6.839 10.246 14.713 10.246 23.611 0 8.884-3.407 16.751-10.246 23.59l-403.241 403.252z" />
<glyph unicode="&#xe91b;" glyph-name="arrow-right-300" data-tags="right-arrow" d="M268.194 960l-24.388-24.37 487.63-487.63-487.63-487.63 24.388-24.37 512 512z" />
<glyph unicode="&#xe91c;" glyph-name="arrow-right-400" data-tags="right-arrow-angle" d="M798.813 480.478l-512.425 466.975c-16.815 16.73-44.086 16.73-60.901 0-16.815-16.729-16.815-43.872 0-60.602l481.528-438.851-481.485-438.85c-16.815-16.73-16.815-43.874 0-60.602s44.086-16.729 60.9 0l512.426 466.975c8.962 8.918 12.805 20.742 12.206 32.434 0.557 11.737-3.284 23.559-12.249 32.521z" />
<glyph unicode="&#xe91d;" d="M756.693-64c-5.907-0.010-11.576 2.326-15.757 6.499l-489.62 489.618c-8.688 8.69-8.688 22.778 0 31.47l489.62 489.62c8.54 8.84 22.627 9.084 31.47 0.547 8.84-8.54 9.084-22.627 0.547-31.47-0.179-0.186-0.361-0.367-0.547-0.547l-473.863-473.863 473.907-473.863c8.703-8.68 8.719-22.771 0.040-31.474-4.185-4.194-9.871-6.547-15.796-6.537z" />
<glyph unicode="&#xe91e;" d="M756.693-64c-5.907-0.010-11.576 2.326-15.757 6.499l-489.62 489.618c-8.688 8.69-8.688 22.778 0 31.47l489.62 489.62c8.54 8.84 22.627 9.084 31.47 0.547 8.84-8.54 9.084-22.627 0.547-31.47-0.179-0.186-0.361-0.367-0.547-0.547l-473.863-473.863 473.907-473.863c8.703-8.68 8.719-22.771 0.040-31.474-4.185-4.194-9.871-6.547-15.796-6.537z" />
<glyph unicode="&#xe91f;" glyph-name="left-arrow" data-tags="left-arrow" d="M780.194 935.63l-24.37 24.37-512.017-512 512.017-512 24.37 24.37-487.63 487.63z" />
<glyph unicode="&#xe920;" glyph-name="down-arrow" data-tags="down-arrow" d="M1011.488 712.821c-16.682 16.682-43.647 16.682-60.329 0l-439.161-439.159-439.159 439.159c-16.682 16.682-43.647 16.682-60.329 0s-16.682-43.647 0-60.329l469.324-469.324c8.32-8.32 19.242-12.502 30.165-12.502s21.846 4.182 30.165 12.502l469.324 469.324c16.68 16.682 16.68 43.647-0.002 60.329z" />
<glyph unicode="&#xe921;" glyph-name="up-arrow" data-tags="up-arrow" d="M1011.49 243.502l-469.325 469.325c-16.682 16.682-43.647 16.682-60.329 0l-469.325-469.325c-16.682-16.682-16.682-43.647 0-60.329s43.647-16.682 60.329 0l439.159 439.159 439.159-439.159c8.32-8.32 19.242-12.502 30.165-12.502s21.846 4.182 30.165 12.502c16.682 16.682 16.682 43.647 0 60.329z" />
<glyph unicode="&#xe922;" glyph-name="up-chevron" data-tags="up-chevron" d="M512 764.372l-512-512 120.748-120.744 391.252 391.252 391.252-391.252 120.748 120.744z" />
<glyph unicode="&#xe923;" glyph-name="down-chevron" data-tags="down-chevron" d="M903.252 764.372l-391.252-391.252-391.252 391.252-120.748-120.744 512-512 512 512z" />
<glyph unicode="&#xe924;" glyph-name="right-arrow-2" data-tags="right-arrow (2)" d="M743.156 728.843l-45.612-45.614 202.973-202.975h-900.517v-64.509h900.517l-202.973-202.973 45.612-45.614 280.844 280.844z" />
<glyph unicode="&#xe925;" glyph-name="left-arrow-3" data-tags="left-arrow (3)" d="M1024 480.256h-900.517l73.955 73.955-45.614 45.614-151.824-151.824 151.824-151.826 45.614 45.614-73.955 73.957h900.517z" />
<glyph unicode="&#xe926;" glyph-name="right-arrow-1" data-tags="right-arrow (1)" d="M872.174 599.825l-45.612-45.614 73.955-73.955h-900.517v-64.509h900.517l-73.955-73.957 45.612-45.614 151.826 151.826z" />
<glyph unicode="&#xe927;" glyph-name="left-arrow-2" data-tags="left-arrow (2)" d="M1024 480.253h-900.515l202.973 202.975-45.614 45.614-280.844-280.842 280.844-280.846 45.614 45.616-202.973 202.973h900.515z" />
<glyph unicode="&#xe928;" glyph-name="inspiration" data-tags="inspiration" d="M423.156 438.568c-2.085 1.065-4.547 1.689-7.156 1.689-6.228 0-11.625-3.558-14.268-8.752l-0.042-0.091-2.126-4.252c-8.247-16.234-24.823-27.164-43.951-27.164s-35.704 10.93-43.822 26.885l-0.129 0.279-2.124 4.25c-2.686 5.286-8.083 8.844-14.311 8.844-8.837 0-16-7.164-16-16 0-2.608 0.624-5.071 1.731-7.247l-0.042 0.091 2.126-4.248c13.618-26.805 40.988-44.852 72.572-44.852s58.954 18.047 72.359 44.391l0.213 0.461 2.124 4.25c1.065 2.085 1.689 4.547 1.689 7.156 0 6.228-3.558 11.625-8.752 14.268l-0.091 0.042zM906.702 572.634c-6.013 15.255-16.057 27.837-28.827 36.795l-0.257 0.171c-0.24 0.693-0.477 1.257-0.744 1.804l0.042-0.096c-23.827 48.343-66.086 84.545-117.363 99.812l-1.353 0.346c14.6 23.562 36.034 41.682 61.515 51.803l0.859 0.301c7.86-16.421 24.345-27.56 43.43-27.56 26.51 0 48 21.49 48 48s-21.49 48-48 48c-22.075 0-40.67-14.902-46.273-35.195l-0.079-0.337c-40.523-13.376-73.097-41.407-92.098-77.669l-0.418-0.875c-6.030 0.675-13.020 1.061-20.1 1.061-73.992 0-138.158-42.074-169.877-103.603l-0.501-1.070-6 31.4 37.648 35.338c3.113 2.926 5.052 7.070 5.052 11.668 0 8.131-6.066 14.846-13.919 15.866l-0.080 0.009-17.358 2.188v76.916c21.213 8.29 35.967 28.569 35.967 52.294 0 30.916-25.053 55.981-55.965 56h-0.602c-11.263 19.261-31.845 31.994-55.4 31.994s-44.137-12.733-55.237-31.691l-0.163-0.302h-0.6c-30.911-0.022-55.961-25.086-55.961-56 0-28.092 20.685-51.352 47.654-55.382l0.307-0.038v-73.71l-18-2.27c-7.935-1.028-14.001-7.743-14.001-15.875 0-4.597 1.939-8.741 5.043-11.66l0.008-0.008 37.65-35.338-9.69-50.72c-0.181-0.903-0.284-1.941-0.284-3.003 0-8.837 7.163-16 16-16 2.829 0 5.487 0.734 7.794 2.023l-0.081-0.042 45.244 24.888 45.242-24.888c1.521-0.842 3.292-1.456 5.172-1.741l0.088-0.011c-2.538-9.284-4.484-20.262-5.447-31.521l-0.049-0.705h-267.676c-8.021 0-14.663-5.902-15.821-13.6l-0.011-0.088-6.452-44.166-77.748-108.848c-1.863-2.582-2.98-5.81-2.98-9.299 0-4.729 2.051-8.979 5.313-11.908l0.015-0.013 58.672-52.522v-223.556c0-8.214 6.189-14.982 14.158-15.895l0.074-0.007 129.768-14.418v-65.68c0-8.837 7.163-16 16-16v0h352c8.837 0 16 7.163 16 16v0 142l19.428 76.376c15.318 57.715 24.114 123.975 24.114 192.291 0 18.766-0.664 37.378-1.969 55.812l0.141-2.478h119.62c34.606 0.007 62.658 28.063 62.658 62.67 0 31.301-22.948 57.243-52.937 61.919l-0.353 0.045zM508 784v-69.174l-1.866 0.234-21.974 46.726c-2.62 5.475-8.115 9.189-14.478 9.189s-11.858-3.714-14.436-9.093l-0.042-0.096-21.976-46.726-1.228-0.154v69.094zM384 840c0.015 13.249 10.751 23.985 23.999 24h10.763c6.924 0 12.82 4.398 15.049 10.553l0.035 0.111c4.517 12.536 16.308 21.336 30.154 21.336s25.637-8.801 30.084-21.114l0.070-0.223c2.264-6.266 8.16-10.664 15.084-10.664h10.762c13.255 0 24-10.745 24-24s-10.745-24-24-24v0h-112c-13.249 0.015-23.985 10.751-24 23.999v0.001zM500.348 663.030c-3.112-2.926-5.050-7.070-5.050-11.666 0-1.062 0.103-2.099 0.301-3.103l-0.017 0.101 4.956-25.946-23.138 12.73c-2.225 1.247-4.882 1.981-7.711 1.981s-5.486-0.734-7.792-2.022l0.081 0.042-23.146-12.73 4.958 25.946c0.18 0.901 0.283 1.938 0.283 2.998 0 4.597-1.938 8.742-5.041 11.662l-0.008 0.008-19.26 18.078 26.2 3.304c5.545 0.719 10.145 4.186 12.436 8.97l0.042 0.096 11.242 23.902 11.242-23.902c2.333-4.879 6.931-8.347 12.396-9.057l0.080-0.009 26.2-3.304zM864 800c8.837 0 16-7.163 16-16s-7.163-16-16-16c-8.837 0-16 7.163-16 16v0c0.010 8.832 7.168 15.99 15.999 16h0.001zM705 687c0.208 0.001 0.453 0.002 0.699 0.002 51.391 0 97.042-24.572 125.847-62.607l0.286-0.394c-12.409-0.033-24.139-2.907-34.584-8.007l0.47 0.207c-23.355 24.542-56.264 39.807-92.739 39.807-65.041 0-118.746-48.537-126.869-111.366l-0.068-0.641h-31.226c8.495 80.606 76.049 142.891 158.173 143h0.011zM713.63 544h-36.3c5.617 9.633 15.901 16.004 27.672 16.004 6.44 0 12.435-1.907 17.45-5.186l-0.122 0.075c-3.213-3.22-6.081-6.787-8.542-10.638l-0.152-0.254zM757.292 572.634q-2.76-0.414-5.442-1.072c-11.716 12.586-28.377 20.434-46.871 20.434-29.654 0-54.596-20.176-61.846-47.55l-0.1-0.446h-32.668c7.921 45.692 47.269 80 94.63 80 26.068 0 49.709-10.394 67.004-27.263l-0.020 0.019c-6.076-6.835-11.036-14.829-14.492-23.582l-0.188-0.54zM724.416 210.26l-19.922-78.314c-0.314-1.184-0.494-2.544-0.494-3.946v0-128h-320v64c0 8.214-6.189 14.982-14.158 15.895l-0.074 0.007-129.768 14.418v125.552h32.436c0.068 0 0.149 0 0.23 0 23.324 0 44.433 9.486 59.678 24.811l0.004 0.004c2.895 2.896 4.686 6.896 4.686 11.314 0 8.837-7.164 16.001-16.001 16.001-4.419 0-8.419-1.791-11.315-4.687v0c-9.488-9.539-22.623-15.442-37.137-15.442-0.051 0-0.102 0-0.153 0h-32.428v58.836c0 0 0 0.001 0 0.001 0 4.729-2.052 8.979-5.313 11.908l-0.015 0.013-53.322 47.734 71.67 100.338c1.42 1.967 2.416 4.333 2.801 6.898l0.011 0.088 5.012 34.312h443.186c0-0.444-0.030-0.886-0.030-1.332 0.033-26.948 17.041-49.914 40.904-58.785l0.434-0.141c1.393-17.1 2.187-37.016 2.187-57.118 0-65.498-8.43-129.028-24.264-189.562l1.155 5.198zM897.334 480h-130.668c-16.831 0.14-30.42 13.817-30.42 30.667s13.59 30.527 30.407 30.667h2.747c7.661 0 14.065 5.385 15.633 12.576l0.019 0.106c4.777 21.871 23.978 38.006 46.948 38.006s42.171-16.134 46.89-37.688l0.058-0.318c1.587-7.297 7.991-12.682 15.652-12.682h2.734c16.831-0.14 30.42-13.817 30.42-30.667s-13.59-30.527-30.407-30.667h-0.013zM624 752c8.837 0 16 7.163 16 16v0 2.746c0 0.070 0 0.152 0 0.234 0 21.985 7.667 42.179 20.472 58.055l-0.138-0.177c9.613-7.989 22.084-12.838 35.687-12.838 30.939 0 56.020 25.081 56.020 56.020s-25.081 56.020-56.020 56.020c-30.939 0-56.020-25.081-56.020-56.020 0-5.479 0.786-10.774 2.253-15.778l-0.099 0.396c-21.147-22.249-34.154-52.408-34.154-85.606 0-0.108 0-0.215 0-0.323v0.017-2.746c0-8.837 7.163-16 16-16v0zM696 896c13.255 0 24-10.745 24-24s-10.745-24-24-24c-13.255 0-24 10.745-24 24v0c0.015 13.249 10.751 23.985 23.999 24h0.001zM272 720c0.009 0 0.019 0 0.030 0 7.042 0 13.727 1.526 19.743 4.266l-0.299-0.122c17.752-23.067 28.47-52.348 28.526-84.131v-0.013c0-8.837 7.163-16 16-16s16 7.163 16 16v0c-0.056 40.186-13.951 77.115-37.172 106.291l0.268-0.349c-0.098 0.122-0.2 0.23-0.308 0.35 3.268 6.312 5.184 13.779 5.184 21.694 0 26.502-21.484 47.986-47.986 47.986s-47.986-21.484-47.986-47.986c0-26.502 21.484-47.986 47.986-47.986 0.005 0 0.010 0 0.015 0h-0.001zM272 784c8.837 0 16-7.163 16-16s-7.163-16-16-16c-8.837 0-16 7.163-16 16v0c0.010 8.832 7.168 15.99 15.999 16h0.001zM222.17 617.8c22.033-4.195 40.53-16.85 52.335-34.384l0.183-0.288c2.916-4.28 7.766-7.053 13.265-7.053 8.837 0 16 7.163 16 16 0 3.278-0.986 6.326-2.677 8.864l0.037-0.059c-18.045 26.822-46.725 45.3-79.861 49.403l-0.549 0.055c-7.83 22.089-28.544 37.625-52.885 37.625-30.917 0-55.98-25.063-55.98-55.98s25.063-55.98 55.98-55.98c25.875 0 47.65 17.555 54.064 41.405l0.090 0.392zM144 632c0 13.255 10.745 24 24 24s24-10.745 24-24c0-13.255-10.745-24-24-24v0c-13.249 0.015-23.985 10.751-24 23.999v0.001zM143.886 758.532c0.072 0.568 0.112 1.226 0.112 1.894 0 8.171-6.126 14.912-14.035 15.881l-0.077 0.008c-5.196 0.651-11.209 1.022-17.309 1.022-19.641 0-38.382-3.849-55.512-10.834l0.983 0.355c-5.945-2.424-10.058-8.16-10.058-14.856 0-8.837 7.164-16 16-16 2.14 0 4.183 0.42 6.049 1.183l-0.107-0.039c12.628 5.186 27.286 8.197 42.647 8.197 4.763 0 9.458-0.289 14.069-0.852l-0.554 0.055c0.579-0.074 1.249-0.117 1.929-0.117 8.163 0 14.896 6.124 15.855 14.028l0.008 0.077zM180.4 723.104c4.878-3.607 9.187-7.327 13.199-11.343l3.075-3.075c2.896-2.896 6.896-4.686 11.314-4.686 8.837 0 16 7.164 16 16 0 4.418-1.791 8.418-4.686 11.314v0l-3.074 3.074c-5.136 5.135-10.65 9.892-16.497 14.227l-0.397 0.281c-2.616 1.939-5.908 3.103-9.471 3.103-8.838 0-16.003-7.165-16.003-16.003 0-5.275 2.552-9.954 6.489-12.869l0.043-0.031z" />
<glyph unicode="&#xe929;" glyph-name="idea" data-tags="idea" d="M962.346 959.688l-96.008-71.865-96.553-225.116h-77.643l-30.487 66.066h19.919c36.435 0 66.066 29.315 66.066 65.75v66.381h33.033v99.095h-99.099v-99.095h33.033v-66.381c0-18.202-14.813-32.717-33.033-32.717h-35.163l-42.217 91.333 50.573 25.205-165.591 70.922-38.929-136.242c-1.058 81.060-67.238 146.678-148.548 146.678-81.968 0-148.645-66.676-148.645-148.645 0-49.532 25.087-95.991 66.066-123.457v-24.889h-40.001l-2.577-13.544c-8.026-41.638-8.772-84.431-2.213-127.109l-112.674-200.837 124.432-28.423v-208.152h165.161v-148.645h396.388v230.152c115.612 81.788 181.643 213.289 181.546 353.578l0.035 60.249c0 22.711-2.098 46.046-6.326 69.038l-2.445 13.693h-32.422l74.324 178.060v118.917zM714.602 893.622v33.033h33.033v-33.033h-33.033zM655.758 662.711h-62.646l-30.026 66.066h62.185l30.487-66.066zM510.613 904.093l65.653-28.129-15.493-7.596 49.251-106.563h-61.952l-40.251 88.343-14.782-7.464 17.574 61.408zM556.825 662.707h-73.447v32.717c0 18.216 14.813 33.345 33.033 33.345l10.388 0.003 30.026-66.066zM491.967 805.13l20.033-44.083c-34.354-2.313-61.654-30.688-61.654-65.618v-32.717h-66.066v24.889c33.050 22.149 55.477 56.715 63.041 95.214l44.645 22.316zM186.089 811.040c0 63.735 51.877 115.612 115.612 115.612s115.612-51.877 115.612-115.612c0-41.028-22.163-79.36-57.821-100.021l-8.241-4.755v-43.553h-33.033v101.839c19.177 6.836 33.033 25.007 33.033 46.511 0 27.317-22.232 49.549-49.549 49.549s-49.549-22.236-49.549-49.553c0-21.504 13.856-39.671 33.033-46.511v-101.839h-33.033v43.556l-8.241 4.773c-35.658 20.661-57.821 58.98-57.821 100.004zM301.701 794.523c-9.118 0-16.516 7.419-16.516 16.516 0 9.118 7.398 16.516 16.516 16.516s16.516-7.398 16.516-16.516-7.398-16.516-16.516-16.516zM892.645 629.674c2.397-16.513 3.604-33.262 3.604-49.546l0.035-60.367c0.101-132.312-65.188-256.213-174.411-331.411l-7.266-4.956v-214.364h-330.322v148.645h-165.165v201.465l-107.041 24.428 96.685 172.379-0.94 5.896c-6.143 36.137-6.489 74.803-1.155 107.832h685.978zM852.232 662.711h-46.525l82.333 191.951 36.616-18.233-72.423-173.718zM929.313 870.814l-18.268 9.132 18.268 13.676v-22.808zM334.734 530.579c-27.317 0-49.549 16.516-49.549 49.549h-33.033c0-49.549 37.046-82.582 82.582-82.582s82.582 33.033 82.582 82.582h-33.033c-0.003-33.033-22.232-49.549-49.549-49.549z" />
<glyph unicode="&#xe92a;" glyph-name="microscopio" data-tags="microscopio" d="M972.712 38.38h-225.384l-28.628 96.045c66.599 70.92 103.856 162.463 103.856 258.872 0 90.259-32.298 175.414-90.099 243.601-4.409 29.238-19.222 54.795-40.602 72.908l26.615 41.822c3.413 5.119 3.413 8.532 3.413 13.651 0 3.413-3.413 8.532-6.825 10.238l-13.633 9.198 10.334 16.149c3.877-0.93 7.852-1.458 11.83-1.458 3.413 0 6.825 1.706 10.238 1.706 13.651 3.413 25.595 10.238 32.42 22.182 8.532 10.238 11.944 23.889 8.532 37.539s-10.238 25.595-22.182 32.42l-85.32 58.017c-23.889 15.357-56.309 10.238-71.666-13.651-8.532-11.944-10.238-25.595-8.532-39.246 1.948-7.79 5.013-14.465 9.5-20.35l-10.088-15.765-13.061 8.812c-8.532 5.119-18.77 3.413-23.889-5.119l-196.596-291.562c-4.231-3.237-7.956-7.519-8.144-11.83-0.558-1.372-0.776-2.855-0.59-4.515l-9.668-70.9-34.127-51.19c-3.413-3.413-5.119-6.825-3.413-11.944 0-3.413 3.413-8.532 6.825-10.238l1.566-1.064-28.866-43.3c-3.413-3.413-5.119-6.825-3.413-11.944 0-3.413 3.413-8.532 6.825-10.238l56.309-37.539c3.413-1.706 6.825-3.413 10.238-3.413 1.706 0 1.706 0 5.119-1.706 3.413 0 8.532 3.413 10.238 6.825l29.014 43.52c2.841-1.382 5.685-2.568 8.526-2.568 0 0 1.706 0 5.119 0s8.532 3.413 10.238 6.825l37.539 56.309c0.124 0.208 0.226 0.422 0.344 0.63l53.976 30.448c4.451 0.964 9.146 3.711 10.522 6.461l40.55 60.126c16.821-8.974 36.109-14.055 56.711-14.055 1.926 0 3.837 0.054 5.739 0.142 17.999-31.058 28.387-67.641 28.387-104.23 0-32.89-7.223-64.572-22.608-94.060-27.217 17.499-59.482 27.515-93.422 27.515-76.513 0-142.077-50.33-165.172-119.443h-247.76c-10.238 0-17.063-6.825-17.063-17.063v-68.253c0-10.238 6.825-17.063 17.063-17.063h238.888v-68.253h-307.141c-10.238 0-17.063-6.825-17.063-17.063v-68.253c0-10.238 6.825-17.063 17.063-17.063h921.422c10.238 0 17.063 6.825 17.063 17.063v68.253c0 10.234-6.825 17.061-17.063 17.061zM699.697 618.534c0-47.777-37.539-85.318-85.318-85.318-18.456 0-35.369 5.619-49.196 15.249-0.61 0.654-1.266 1.268-1.994 1.814-15.129 11.638-25.485 26.455-30.548 43.362-0.156 0.524-0.296 1.056-0.442 1.586-0.236 0.846-0.46 1.698-0.67 2.554-0.19 0.784-0.366 1.574-0.534 2.368-0.14 0.654-0.27 1.31-0.394 1.968-0.162 0.856-0.314 1.716-0.45 2.582-0.104 0.67-0.196 1.344-0.284 2.018-0.11 0.83-0.222 1.66-0.31 2.498-0.088 0.846-0.15 1.698-0.214 2.552-0.052 0.68-0.114 1.356-0.15 2.040-0.080 1.566-0.13 3.141-0.13 4.729 0 47.777 37.539 85.318 85.318 85.318 1.066 0 2.122-0.040 3.177-0.078 14.289-0.65 28.478-5.629 41.186-13.573 1.808-1.084 3.691-1.766 5.587-2.134 21.536-15.351 35.365-40.548 35.365-69.531zM624.619 918.85c3.413 5.119 8.532 6.825 13.651 6.825 3.413 0 6.825-1.706 10.238-3.413l85.318-58.015c3.413-1.706 5.119-5.119 6.825-10.238 0-3.413-1.706-8.532-3.413-11.944-3.413-3.413-6.825-5.119-11.944-6.825-3.413-1.706-8.532 0-11.944 1.706l-85.318 58.015c-3.413 1.706-6.825 5.119-6.825 10.238s-0.002 10.238 3.411 13.651zM623.847 856.034l56.007-38.085-7.459-13.425-28.155 18.77-28.063 18.934 7.669 13.805zM343.074 347.226l-29.008 18.77 18.34 28.345 28.578-19.434-17.911-27.681zM394.264 395.003l-56.309 37.539 17.911 27.681 55.971-38.061-17.573-27.159zM437.029 446.257l-11.2 7.617-55.455 38.393 5.025 36.843 47.019-31.724 46.925-32.422-32.314-18.706zM499.191 488.407l-112.982 76.229 180.395 267.188 112.618-76.785-18.122-26.361c-14.311 5.993-30.088 9.296-46.717 9.296-0.29 0-0.574-0.020-0.862-0.022-0.284 0.002-0.56 0.022-0.844 0.022-66.547 0-119.443-52.896-119.443-119.443 0-32.42 13.651-63.134 35.833-85.318l-29.876-44.807zM728.877 584.131c35.725-56.245 56.137-120.983 56.137-187.422 0-79.887-28.79-156.382-79.609-217.69l-7.415 24.873c-8.532 30.714-23.889 56.309-46.071 76.785 20.476 35.833 30.714 75.079 30.714 117.737 0 37.085-10.004 74.162-26.697 107.957 35.155 12.83 62.274 41.572 72.94 77.759zM136.606 140.76v34.127h223.049c-0.14-1.168-0.272-2.34-0.388-3.513-0.826-4.471-0.838-9.532-0.838-13.549v-17.065h-221.823zM392.556 123.696v30.714c0 6.315 0.468 12.526 1.294 18.626 0.854 4.879 2.128 9.548 3.825 13.793 0.708 2.122 0.802 4.243 0.458 6.365 16.983 58.151 70.998 101.134 134.344 101.134 30.936 0 60.132-10.828 83.684-28.978 0.92-1.294 2.034-2.464 3.339-3.441 22.182-17.063 37.539-40.952 46.071-68.253l46.071-155.276h-319.086v85.316zM955.647-29.875h-887.294v34.127h887.294v-34.127zM529.064 260.203c-56.309 0-102.38-46.071-102.38-102.38s46.071-102.38 102.38-102.38 102.38 46.071 102.38 102.38c0 56.309-46.071 102.38-102.38 102.38zM529.064 89.57c-37.539 0-68.253 30.714-68.253 68.253s30.714 68.253 68.253 68.253 68.253-30.714 68.253-68.253c0-37.539-30.714-68.253-68.253-68.253zM660.452 664.605c-6.825 6.825-17.063 6.825-23.889 0l-22.182-22.182-22.182 22.182c-6.825 6.825-17.063 6.825-23.889 0s-6.825-17.063 0-23.889l22.182-22.182-22.182-22.182c-6.825-6.825-6.825-17.063 0-23.889 3.413-3.413 6.825-5.119 11.944-5.119s8.532 1.706 11.944 5.119l22.182 22.182 22.182-22.182c3.413-3.413 6.825-5.119 11.944-5.119s8.532 1.706 11.944 5.119c6.825 6.825 6.825 17.063 0 23.889l-22.182 22.182 22.182 22.182c6.829 6.827 6.829 17.065 0.004 23.889zM564.897 193.656c-6.825 6.825-17.063 6.825-23.889 0l-11.944-11.944-11.944 11.944c-6.825 6.825-17.063 6.825-23.889 0-6.825-6.825-6.825-17.063 0-23.889l11.944-11.944-11.944-11.944c-6.825-6.825-6.825-17.063 0-23.889 3.413-3.413 6.825-5.119 11.944-5.119 3.413 0 8.532 1.706 11.944 5.119l11.944 11.944 11.944-11.944c3.413-3.413 6.825-5.119 11.944-5.119s8.532 1.706 11.944 5.119c6.825 6.825 6.825 17.063 0 23.889l-11.944 11.944 11.944 11.944c6.829 6.827 6.829 17.065 0.004 23.889z" />
<glyph unicode="&#xe92b;" glyph-name="red" data-tags="red" d="M912.291 960c-61.608 0-111.709-50.102-111.709-111.709 0-19.27 4.897-37.404 13.517-53.248l-182.998-182.998c-25.228 19.642-56.804 31.446-91.173 31.446s-65.946-11.804-91.192-31.427l-142.783 142.783c6.554 11.078 10.557 23.813 10.557 37.59 0 41.072-33.401 74.473-74.473 74.473s-74.473-33.401-74.473-74.473 33.401-74.473 74.473-74.473c13.777 0 26.512 4.003 37.59 10.557l142.783-142.783c-19.624-25.246-31.427-56.823-31.427-91.192s11.804-65.946 31.427-91.173l-235.781-235.799c-19.847 18.004-46.080 29.082-74.92 29.082-61.608 0-111.709-50.102-111.709-111.709s50.102-111.709 111.709-111.709 111.709 50.102 111.709 111.709c0 19.27-4.897 37.404-13.517 53.248l238.853 238.853c20.592-16.012 45.428-26.736 72.574-30.143v-189.161c-52.745-8.899-93.091-54.775-93.091-110.033 0-61.608 50.102-111.709 111.709-111.709s111.709 50.102 111.709 111.709c0 55.24-40.346 101.115-93.091 110.033v189.161c27.145 3.407 51.982 14.131 72.574 30.143l142.783-142.783c-6.572-11.096-10.575-23.831-10.575-37.609 0-41.072 33.401-74.473 74.473-74.473s74.473 33.401 74.473 74.473-33.401 74.473-74.473 74.473c-13.777 0-26.512-4.003-37.59-10.557l-142.783 142.783c19.624 25.246 31.427 56.823 31.427 91.192s-11.804 65.946-31.427 91.173l179.945 179.945c19.828-18.004 46.061-29.082 74.901-29.082 61.608 0 111.709 50.102 111.709 111.709s-50.102 111.709-111.709 111.709zM204.8 792.436c0 20.536 16.701 37.236 37.236 37.236s37.236-16.701 37.236-37.236-16.701-37.236-37.236-37.236-37.236 16.701-37.236 37.236zM111.709 10.473c-41.072 0-74.473 33.401-74.473 74.473s33.401 74.473 74.473 74.473 74.473-33.401 74.473-74.473-33.401-74.473-74.473-74.473zM614.4 47.709c0-41.072-33.401-74.473-74.473-74.473s-74.473 33.401-74.473 74.473 33.401 74.473 74.473 74.473 74.473-33.401 74.473-74.473zM539.927 382.836c-61.608 0-111.709 50.102-111.709 111.709s50.102 111.709 111.709 111.709 111.709-50.102 111.709-111.709-50.102-111.709-111.709-111.709zM875.055 196.655c0-20.536-16.701-37.236-37.236-37.236s-37.236 16.701-37.236 37.236 16.701 37.236 37.236 37.236 37.236-16.701 37.236-37.236zM912.291 773.818c-41.072 0-74.473 33.401-74.473 74.473s33.401 74.473 74.473 74.473 74.473-33.401 74.473-74.473-33.401-74.473-74.473-74.473z" />
<glyph unicode="&#xe92c;" glyph-name="matraz" data-tags="matraz" d="M931.616 48.64l-112.64 230.324v376.012c29.358 7.628 51.2 34.432 51.2 66.092 0 37.546-30.72 68.266-68.266 68.266h-119.466v34.132c37.546 0 68.266 30.72 68.266 68.266-0.002 37.548-30.722 68.268-68.268 68.268h-341.334c-37.546 0-68.266-30.72-68.266-68.266s30.72-68.266 68.266-68.266v-269.654l-247.466-506.88c-11.946-23.894-10.24-52.906 5.12-75.094 15.36-22.186 39.254-35.84 66.56-35.84h694.612c27.306 0 51.2 13.654 66.56 37.546 13.654 22.188 15.362 51.2 5.122 75.094zM700.362-29.846c-47.378 0.446-84.48 37.812-84.48 85.312v232.108c0 2.866-0.63 5.412-1.706 7.676v357.55h170.666v-597.334c0-47.5-37.102-84.866-84.48-85.312zM836.042 721.066c0-18.774-15.36-34.134-34.134-34.134h-204.8c-18.774 0-34.134 15.36-34.134 34.134s15.36 34.134 34.134 34.134h204.8c18.774 0 34.134-15.36 34.134-34.134zM306.976 891.734c0 18.774 15.36 34.134 34.134 34.134h341.334c18.774 0 34.134-15.36 34.134-34.134s-15.36-34.134-34.134-34.134h-341.332c-18.776 0-34.136 15.36-34.136 34.134zM373.536 543.574c1.706 1.706 1.706 3.414 1.706 6.826v273.066h274.774v-34.134h-52.906c-37.546 0-68.266-30.72-68.266-68.266 0-29.866 19.446-55.394 46.296-64.596 1.61-0.572 3.244-1.080 4.904-1.522v-333.36c-12.872 9.68-25.508 20.506-37.546 32.546-64.244 64.244-164.608 77.022-243.236 38.36l74.274 151.080zM165.322-29.866c-17.066 0-30.72 6.826-39.254 20.48s-10.24 29.014-3.414 42.666l146.888 298.772c66.578 64.742 182.536 63.004 249.058-1.812 18.292-18.292 39.824-36.57 61.44-50.126v-224.648c0-33.618 13.51-63.74 35.444-85.334h-450.162zM897.482-9.386c-8.534-13.654-22.186-20.48-37.546-20.48h-76.404c16.13 15.88 27.682 36.374 32.674 59.478 0.102 0.468 0.222 0.93 0.318 1.4 0.178 0.88 0.318 1.774 0.478 2.66 0.206 1.134 0.426 2.264 0.6 3.412 0.058 0.382 0.094 0.774 0.148 1.158 0.23 1.622 0.448 3.248 0.612 4.896 0.026 0.268 0.036 0.544 0.062 0.812 0.162 1.75 0.308 3.508 0.396 5.29 0.104 2.062 0.156 4.136 0.156 6.226v145.066l81.92-167.254c6.826-13.652 5.12-29.012-3.414-42.664zM733.642 584.534h-68.266c-10.24 0-17.066-6.826-17.066-17.066s6.826-17.066 17.066-17.066h68.266c10.24 0 17.066 6.826 17.066 17.066s-6.826 17.066-17.066 17.066zM665.376 482.134h17.066c10.24 0 17.066 6.826 17.066 17.066s-6.826 17.066-17.066 17.066h-17.066c-10.24 0-17.066-6.826-17.066-17.066s6.826-17.066 17.066-17.066zM733.642 448h-68.266c-10.24 0-17.066-6.826-17.066-17.066s6.826-17.066 17.066-17.066h68.266c10.24 0 17.066 6.826 17.066 17.066s-6.826 17.066-17.066 17.066zM665.376 345.6h17.066c10.24 0 17.066 6.826 17.066 17.066s-6.826 17.066-17.066 17.066h-17.066c-10.24 0-17.066-6.826-17.066-17.066s6.826-17.066 17.066-17.066zM733.642 311.466h-68.266c-10.24 0-17.066-6.826-17.066-17.066s6.826-17.066 17.066-17.066h68.266c10.24 0 17.066 6.826 17.066 17.066s-6.826 17.066-17.066 17.066zM682.442 243.2h-17.066c-10.24 0-17.066-6.826-17.066-17.066s6.826-17.066 17.066-17.066h17.066c10.24 0 17.066 6.826 17.066 17.066s-6.826 17.066-17.066 17.066z" />
<glyph unicode="&#xe92d;" glyph-name="adn" data-tags="adn" d="M1018.767 683.503c-6.977 6.977-17.444 6.977-24.423 0-4.837-4.837-9.643-9.318-14.435-13.476l-246.873 246.873c3.698 4.17 7.633 8.357 11.851 12.572 6.977 6.977 6.977 17.444 0 24.423-6.977 6.977-17.444 6.977-24.423 0-45.085-45.935-63.614-89.802-67.132-139.478-0.989-2.911-1.151-5.986-0.476-8.95-1.523-43.423 7.588-91.509 19.967-149.309-48.491 8.827-94.125 11.538-135.559 8.467-4.745 2.265-9.837 1.819-14.443-1.333-56.010-6.131-103.646-23.276-139.329-50.547-2.404-0.855-4.69-2.259-6.685-4.254-1.057-1.057-1.934-2.202-2.672-3.396-3.285-2.854-6.495-5.771-9.541-8.817-35.182-35.182-50.735-78.323-53.002-132.020-1.31-3.502-1.413-7.272-0.28-10.812-0.399-41.336 6.435-88.704 17.912-143.264-148.162 29.017-246.28 6.192-323.99-71.517-6.977-6.977-6.977-17.444 0-24.423 3.49-3.49 6.977-5.233 12.211-5.233s8.723 1.744 10.467 3.49c9.024 9.024 18.282 17.168 27.841 24.493l244.52-244.518c-6.922-8.934-14.529-17.571-22.902-25.944-6.977-6.977-6.977-17.444 0-24.423 3.49-3.49 6.977-5.233 12.211-5.233 3.49 0 8.723 1.744 13.956 6.977 76.945 76.945 100.111 173.867 72.392 319.596 129.737-26.882 218.543-26.917 281.734 36.274 64.279 62.631 84.928 176.662 59.062 312.644 131.569-28.262 214.463-40.865 302.042 46.716 6.977 6.977 6.977 17.444 0 24.423zM951.802 649.288c-23.278-14.202-47.008-21.436-73.149-23.689-0.783 1.351-1.75 2.641-2.934 3.827l-188.559 186.861c2.51 26.022 10.095 49.601 24.793 72.85l239.849-239.849zM826.325 626.711c-33.582 3.567-71.749 11.816-117.267 21.919-10.105 46.127-18.221 84.444-21.41 118.007l138.677-139.926zM680.559 620.118c7.96-38.631 12.004-75.447 12.253-109.578l-120.871 120.871c33.968 0.065 70.491-3.629 108.617-11.293zM656.238 353.479l-239.988 239.988c29.755 18.926 68.189 30.981 112.585 35.693l156.736-156.736c1.762-1.762 3.528-3.077 5.515-3.95-4.193-45.393-15.986-84.54-34.849-114.995zM348.337 413.667l129.702-129.704c-32.633 2.844-69.291 9.267-110.345 18.045-9.477 41.54-16.289 78.638-19.357 111.659zM337.525 271.728c8.2-40.099 12.681-75.941 13.384-108.345l-122.901 122.901c32.66-1.094 68.874-6.020 109.517-14.555zM85.243 256.347c28.273 15.659 59.485 25.059 95.28 28.577l168.515-168.515c-3.913-35.622-13.627-66.658-29.276-94.581l-234.519 234.519zM528.112 282.736l-181.278 181.278c2.075 44.919 14.737 80.398 42.182 107.843l245.924-245.924c-0.57-0.591-1.12-1.21-1.699-1.789-26.891-26.889-61.496-39.177-105.13-41.407z" />
<glyph unicode="&#xe92e;" glyph-name="microscope-2" data-tags="microscope (2)" d="M771.902-36.324h-598.141c-7.642 0-13.838 6.195-13.838 13.838v0 102.967c0 7.642 6.195 13.838 13.838 13.838v0h598.141c7.642 0 13.838-6.195 13.838-13.838v0-102.967c0-7.642-6.195-13.838-13.838-13.838v0zM187.6-8.649h570.465v75.292h-570.465zM507.946 410.928c-0.009 0-0.019 0-0.029 0-2.494 0-4.832 0.668-6.845 1.834l0.066-0.035-177.899 100.781c-4.219 2.424-7.015 6.905-7.015 12.039 0 2.508 0.667 4.861 1.834 6.889l-0.036-0.067 164.366 289.834c2.424 4.219 6.905 7.015 12.039 7.015 2.508 0 4.861-0.667 6.889-1.834l-0.067 0.036 177.899-100.781c4.223-2.423 7.021-6.906 7.021-12.042 0-2.512-0.67-4.868-1.84-6.899l0.036 0.067-35.037-61.648c-2.426-4.212-6.903-7.002-12.032-7.002-7.643 0-13.838 6.196-13.838 13.838 0 2.514 0.67 4.871 1.842 6.903l-0.036-0.067 28.188 49.609-153.808 87.178-150.722-265.811 153.821-87.178 64.498 113.775c2.425 4.218 6.906 7.012 12.039 7.012 7.644 0 13.841-6.197 13.841-13.841 0-2.511-0.669-4.866-1.838-6.896l0.036 0.067-71.32-125.8c-2.43-4.196-6.898-6.974-12.016-6.974-0.013 0-0.026 0-0.039 0h0.002zM428.876 339.456c-2.508 0-4.861 0.668-6.889 1.835l0.067-0.036-119.517 67.805c-4.219 2.424-7.015 6.905-7.015 12.039 0 2.508 0.667 4.861 1.834 6.889l-0.036-0.067 49.885 87.884c2.424 4.219 6.905 7.015 12.039 7.015 2.508 0 4.861-0.667 6.889-1.834l-0.067 0.036 119.531-67.805c4.219-2.424 7.015-6.905 7.015-12.039 0-2.508-0.667-4.861-1.834-6.889l0.036 0.067-49.899-87.981c-1.802-3.15-4.721-5.488-8.205-6.493l-0.098-0.024c-0.982-0.26-2.109-0.409-3.271-0.409-0.164 0-0.326 0.003-0.489 0.009l0.023-0.001zM328.22 426.275l95.481-54.12 36.227 63.917-95.481 54.106zM637.924 720.204c-2.508 0-4.861 0.668-6.889 1.835l0.067-0.036-109.167 61.897c-4.214 2.426-7.005 6.903-7.005 12.033 0 2.511 0.669 4.865 1.837 6.895l-0.036-0.067 40.268 71.030c2.426 4.214 6.903 7.005 12.033 7.005 2.511 0 4.865-0.669 6.895-1.837l-0.067 0.036 109.111-61.897c4.219-2.424 7.015-6.905 7.015-12.039 0-2.508-0.667-4.861-1.834-6.889l0.036 0.067-40.268-71.016c-2.417-4.208-6.879-7-11.995-7.016h-0.002zM547.632 801.155l85.089-48.253 26.61 46.952-85.061 48.239zM698.811 779.513c-2.504 0.003-4.851 0.67-6.875 1.835l0.067-0.036-150.431 85.31c-4.219 2.424-7.015 6.905-7.015 12.039 0 2.508 0.667 4.861 1.834 6.889l-0.036-0.067 27.233 48.017c2.424 4.219 6.905 7.015 12.039 7.015 2.508 0 4.861-0.667 6.889-1.834l-0.067 0.036 150.445-85.269c4.219-2.424 7.015-6.905 7.015-12.039 0-2.508-0.667-4.861-1.834-6.889l0.036 0.067-27.219-48.017c-2.418-4.243-6.912-7.057-12.063-7.057-0.006 0-0.012 0-0.019 0h0.001zM567.254 883.892l126.381-71.666 13.575 23.953-126.381 71.638zM662.431 133.881c-6.016 0.006-11.132 3.851-13.033 9.216l-0.030 0.097-21.961 63.419c-0.469 1.331-0.74 2.866-0.74 4.464 0 6.605 4.628 12.13 10.819 13.508l0.092 0.017c75.95 16.799 131.917 83.56 131.917 163.392 0 76.066-50.811 140.265-120.344 160.506l-1.181 0.295c-5.857 1.698-10.066 7.015-10.066 13.314 0 3.657 1.419 6.983 3.736 9.457l-0.007-0.008c7.283 7.902 11.748 18.499 11.748 30.137 0 7.582-1.895 14.721-5.236 20.969l0.117-0.239c-1.006 1.871-1.597 4.093-1.597 6.454 0 7.642 6.195 13.838 13.838 13.838 1.141 0 2.25-0.138 3.311-0.399l-0.095 0.020c115.828-28.586 200.367-131.588 200.367-254.336 0-122.001-83.514-224.497-196.493-253.437l-1.813-0.394c-0.86-0.19-1.848-0.299-2.862-0.299-0.171 0-0.342 0.003-0.511 0.009l0.025-0.001zM658.46 201.548l12.814-37.016c96.342 30.409 164.973 118.972 164.973 223.565 0 101.086-64.106 187.199-153.881 219.904l-1.627 0.518c0.208-2.242 0.318-4.525 0.318-6.808 0-0.040 0-0.087 0-0.134 0-11.737-2.802-22.82-7.773-32.617l0.189 0.411c73.047-29.202 123.713-99.37 123.713-181.372 0-87.589-57.805-161.677-137.347-186.196l-1.38-0.366zM685.637 66.602h-258.768c-7.642 0-13.838 6.196-13.838 13.838 0 1.621 0.279 3.176 0.791 4.622l-0.030-0.097 54.037 156.368c1.932 5.466 7.055 9.313 13.077 9.313h150.708c6.022 0 11.145-3.846 13.047-9.216l0.030-0.097 54.037-156.368c0.482-1.349 0.761-2.904 0.761-4.525 0-7.642-6.195-13.838-13.838-13.838-0.005 0-0.009 0-0.014 0h0.001zM446.243 94.277h220.022l-44.475 128.692h-131.044zM459.734 161.709h-162.221c-7.642 0-13.838 6.195-13.838 13.838v0 61.302c0 7.642 6.195 13.838 13.838 13.838v0h183.379c7.64-0.003 13.833-6.197 13.833-13.838 0-1.616-0.277-3.167-0.786-4.608l0.030 0.097-21.158-61.315c-1.932-5.466-7.055-9.313-13.077-9.313v0zM311.351 189.385h138.517l11.61 33.626h-150.127zM608.311 529.021c-40.161 0-72.718 32.557-72.718 72.718s32.557 72.718 72.718 72.718c40.161 0 72.718-32.557 72.718-72.718v0c-0.039-40.145-32.573-72.678-72.714-72.718h-0.004zM608.311 646.767c-24.876 0-45.042-20.166-45.042-45.042s20.166-45.042 45.042-45.042c24.876 0 45.042 20.166 45.042 45.042 0 0.005 0 0.010 0 0.015v-0.001c-0.031 24.861-20.18 45.005-45.040 45.028h-0.002z" />
<glyph unicode="&#xe92f;" glyph-name="microscope-1" data-tags="microscope (1)" d="M490.008 447v33.719c-53.109 24.844-90 78.758-90 141.156s36.891 116.313 90 141.156v55.633h-243.008v-371.664zM651.547 621.875c0-52.891-42.883-95.766-95.773-95.766s-95.766 42.875-95.766 95.766 42.875 95.773 95.766 95.773c52.891 0 95.773-42.883 95.773-95.773zM276.5 387h184v-79.664h-184zM276.5 960h184v-81.336h-184zM817.070 587.469c-31.219 41.75-72.578 75.625-119.273 98.273 8.805-19.5 13.75-41.109 13.75-63.867 0-55.922-29.633-105.031-74.008-132.508 26.031-24.594 41.102-58.93 41.102-95.352 0-72.32-58.836-131.156-131.156-131.156h-326.57v-60h209.094v-74.859h-288.008v-192h498.914v143.102c138.484 37.211 240.734 163.828 240.734 313.898 0 70.727-22.328 137.977-64.578 194.469z" />
<glyph unicode="&#xe930;" glyph-name="microscope" data-tags="microscope" d="M881.648 393c0 70.727-22.328 137.977-64.578 194.469-40.789 54.539-98.867 95.68-163.578 115.852l-2.773 0.906c-23.078 26.57-57.070 43.422-94.945 43.422-24.094 0-46.617-6.828-65.766-18.625v117.453h-29.508v113.523h-184v-113.523h-29.5v-403.141h29.5v-136h184v136h29.508v71.391c19.148-11.797 41.672-18.617 65.766-18.617 19.742 0 38.43 4.578 55.070 12.719 3.398-1.875 6.734-3.859 9.953-6.039 36.227-24.469 57.852-65.133 57.852-108.773 0-72.32-58.836-131.156-131.156-131.156h-326.578v-60h209.094v-74.859h-288.008v-192h498.914v143.102c138.484 37.211 240.734 163.828 240.734 313.898zM430.008 503.336h-123.008v283.141h123.008zM336.5 900h64v-53.523h-64zM400.5 367.336h-64v76h64zM490.008 621.875c0 36.266 29.5 65.773 65.766 65.773s65.773-29.508 65.773-65.773-29.508-65.773-65.773-65.773c-36.266 0-65.766 29.508-65.766 65.773zM580.914 68v-72h-378.914v72zM556.648 128h-66.641v74.859h57.477c105.406 0 191.156 85.758 191.156 191.156 0 61.891-29.828 119.656-80.047 155.555 14.438 20.477 22.953 45.406 22.953 72.305 0 1.695-0.063 3.383-0.125 5.063 85.484-45.305 140.227-134.109 140.227-233.938 0-146.125-118.875-265-265-265z" />
<glyph unicode="&#xe931;" glyph-name="atom" data-tags="atom" d="M512 558c-60.751 0-110-49.249-110-110s49.249-110 110-110c60.751 0 110 49.249 110 110v0c-0.068 60.724-49.276 109.932-109.993 110h-0.007zM512 366c-45.287 0-82 36.713-82 82s36.713 82 82 82c45.287 0 82-36.713 82-82v0c-0.050-45.267-36.733-81.95-81.995-82h-0.005zM560 462c-7.732 0-14-6.268-14-14v0c-0.045-12.485-6.774-23.387-16.794-29.321l-0.158-0.087c-4.186-2.473-6.95-6.962-6.95-12.096 0-7.733 6.269-14.002 14.002-14.002 2.598 0 5.032 0.708 7.117 1.941l-0.065-0.036c18.536 10.979 30.785 30.852 30.848 53.591v0.009c0 7.732-6.268 14-14 14v0zM873.84 480.72c4.685-1.281 10.067-2.027 15.62-2.048h0.012c34.23 0.021 61.971 27.775 61.971 62.008 0 17.108-6.928 32.598-18.132 43.817l0.001-0.001c-1.016 1.008-2.096 1.92-3.2 2.856 10.4 37.712 8 70.56-7.624 97.648-33.6 58.24-121.832 77.32-242.896 53.216-39.784 116.896-100.456 183.784-167.592 183.784s-127.8-66.88-167.624-183.792c-121.088 24.12-209.296 5.032-242.888-53.2-15.144-26.16-17.8-59.032-8.144-95.52-14.534-11.454-23.78-29.056-23.78-48.818 0-34.242 27.758-62 62-62 6.455 0 12.68 0.986 18.531 2.817l-0.439-0.118c8.304-11.048 17.4-22.224 27.2-33.416-81.352-92.832-108.944-178.776-75.376-236.952 24.12-41.816 76.328-63.504 148.664-63.504 33.597 0.424 66.073 4.167 97.433 10.916l-3.217-0.58c39.816-116.928 100.496-183.832 167.64-183.832 30.336 0 60.256 14.224 87.144 40.992 7.322-3.292 15.872-5.209 24.869-5.209 34.224 0 61.968 27.744 61.968 61.968 0 17.108-6.933 32.596-18.142 43.81v0c-1.008 1.016-2.088 1.936-3.152 2.864 5.24 12.392 10.256 25.6 14.992 39.408 28.133-6.173 60.596-9.917 93.861-10.333l0.315-0.003c72.328 0 124.544 21.696 148.664 63.504 33.6 58.176 5.976 144.12-75.36 236.944 9.44 10.776 18.352 21.736 26.68 32.776zM913.504 516.608c-6.157-6.14-14.653-9.936-24.036-9.936s-17.879 3.796-24.037 9.937l0.001-0.001c-6.144 6.149-9.944 14.641-9.944 24.021 0 18.769 15.215 33.984 33.984 33.984s33.984-15.215 33.984-33.984c0-9.38-3.8-17.872-9.944-24.021v0zM898.264 671.008c10.952-19.016 13.064-42.656 6.472-70.4-4.584 1.214-9.846 1.911-15.271 1.911-34.22 0-61.96-27.74-61.96-61.96 0-17.083 6.914-32.552 18.096-43.761l-0.001 0.001c1.008-1.016 2.088-1.928 3.152-2.864q-9.744-12.688-20.576-25.184c-33.791 35.052-70.288 66.979-109.335 95.635l-2.361 1.653c-5.889 54.48-15.855 103.805-29.846 151.409l1.526-6.057c105.504 20.4 183.528 5.688 210.104-40.376zM660.712 190.544c-44.75 11.005-82.824 23.725-119.515 39.094l5.291-1.966c23.88 11.544 47.664 24.088 71 37.56 23.52 13.6 46.28 27.936 68 42.776-6.080-44.889-14.745-84.62-26.228-123.137l1.452 5.673zM363.288 190.544c-10.038 32.843-18.711 72.573-24.327 113.278l-0.473 4.186c21.776-14.84 44.528-29.192 68.040-42.776 23.312-13.472 47.072-26.032 70.992-37.56-31.402-13.403-69.479-26.123-108.703-35.954l-5.529-1.174zM363.288 705.456c44.747-11.003 82.822-23.723 119.511-39.093l-5.287 1.965c-23.888-11.544-47.664-24.088-71-37.6-23.52-13.6-46.28-27.936-68.040-42.776 6.092 44.906 14.77 84.649 26.269 123.175l-1.453-5.671zM304 367.728c-32.791 25.382-61.945 51.676-89.017 79.978l-0.279 0.294c27.353 28.593 56.507 54.886 87.495 78.928l1.801 1.344c-1.976-26.4-3.024-53.304-3.024-80.272s1.032-53.84 3.024-80.272zM420.536 289.488c-30.304 17.496-59.304 36.28-86.456 55.816-3.344 33.528-5.104 68-5.104 102.696s1.76 69.16 5.104 102.696c27.128 19.52 56.136 38.312 86.456 55.816 30 17.336 60.752 33.096 91.472 47.024 30.744-13.936 61.488-29.696 91.488-47.024 30.304-17.496 59.304-36.28 86.456-55.816 3.344-33.528 5.104-68 5.104-102.696s-1.76-69.16-5.104-102.696c-27.128-19.52-56.136-38.312-86.456-55.816-30-17.336-60.752-33.096-91.472-47.024-30.76 13.936-61.504 29.696-91.504 47.024zM660.728 705.488c10.038-32.843 18.711-72.573 24.327-113.278l0.473-4.186c-21.776 14.84-44.528 29.192-68 42.776-23.368 13.44-47.128 26-71.048 37.528 31.402 13.403 69.479 26.123 108.703 35.954l5.529 1.174zM720 528.272c32.791-25.382 61.945-51.676 89.017-79.978l0.279-0.294c-27.353-28.593-56.507-54.886-87.495-78.928l-1.801-1.344c1.976 26.4 3.024 53.304 3.024 80.272s-1.032 53.84-3.024 80.272zM512 894c53.104 0 104.904-60.232 140.12-161.8-54.246-13.621-100.909-30.051-145.542-50.184l5.414 2.184c-39.217 17.952-85.875 34.382-134.171 46.714l-5.941 1.286c35.224 101.576 87.016 161.8 140.12 161.8zM107.432 516.608v0c-6.183 6.165-10.009 14.692-10.009 24.112 0 18.804 15.244 34.048 34.048 34.048s34.048-15.244 34.048-34.048c0-18.801-15.239-34.043-34.039-34.048v0c-0.041 0-0.090 0-0.139 0-9.345 0-17.804 3.798-23.916 9.935l-0.001 0.001zM175.312 584.496c-11.216 11.197-26.7 18.121-43.802 18.121-4.383 0-8.659-0.455-12.785-1.32l0.403 0.071c-6.464 27.408-4.304 50.8 6.6 69.6 26.584 46.088 104.608 60.8 210.112 40.392-12.465-41.547-22.433-90.875-27.987-141.53l-0.341-3.83c-41.415-30.282-77.915-62.181-111.462-96.948l-0.242-0.252q-11.688 13.488-21.84 26.816c0.44 0.416 0.912 0.8 1.344 1.224 11.206 11.226 18.136 26.724 18.136 43.84s-6.93 32.614-18.136 43.841l0.001-0.001zM125.712 225c-26.512 46.016-0.256 120.968 70.136 202.2 33.782-35.033 70.271-66.944 109.309-95.586l2.363-1.654c5.889-54.48 15.855-103.805 29.846-151.409l-1.526 6.057c-105.512-20.384-183.536-5.68-210.112 40.392zM648.040 47.68c-6.167-6.186-14.696-10.014-24.12-10.014-18.809 0-34.056 15.247-34.056 34.056s15.247 34.056 34.056 34.056c18.807 0 34.053-15.244 34.056-34.050v0c0-0.003 0-0.006 0-0.009 0-9.384-3.796-17.881-9.937-24.040l0.001 0.001zM624.040 133.704c-0.001 0-0.003 0-0.005 0-34.228 0-61.976-27.748-61.976-61.976 0-15.217 5.485-29.154 14.585-39.941l-0.076 0.093c-20.8-19.816-42.464-29.88-64.528-29.88-53.104 0-104.904 60.232-140.12 161.8 54.246 13.621 100.909 30.051 145.542 50.184l-5.414-2.184c39.226-17.954 85.895-34.383 134.203-46.714l5.941-1.286c-3.92-11.24-8-22-12.272-32.2-4.772 1.326-10.254 2.093-15.913 2.104h-0.007zM898.312 225c-26.584-46.080-104.608-60.8-210.112-40.392 12.465 41.547 22.433 90.875 27.987 141.53l0.341 3.83c41.381 30.291 77.855 62.2 111.376 96.974l0.248 0.258c70.392-81.232 96.648-156.184 70.12-202.2z" />
<glyph unicode="&#xe932;" glyph-name="museum" data-tags="museum" d="M29.541 677.223c-0.372-2.023-0.582-4.073-0.65-6.123v-42.112c0.054-17.355 10.833-32.87 27.092-38.966v-61.964c0.074-20.745 16.388-37.796 37.105-38.777v-357.976c-20.718-0.988-37.031-18.039-37.105-38.777v-61.782c-16.293-6.259-27.065-21.888-27.092-39.332v-41.192c0-7.68 6.238-13.911 13.918-13.911h938.409c7.68 0 13.911 6.232 13.911 13.911v41.192c-0.027 17.45-10.799 33.080-27.085 39.332v62.147c-0.074 20.745-16.394 37.796-37.105 38.777v357.611c20.711 0.981 37.031 18.032 37.105 38.777v61.964c16.252 6.096 27.031 21.611 27.085 38.966v41.835c-0.061 2.050-0.277 4.1-0.65 6.123 6.996-3.099 15.176 0.054 18.275 7.050 3.099 6.989-0.054 15.17-7.044 18.275l-487.297 256.118c-4.066 2.145-8.925 2.145-12.991 0l-487.29-255.841c-6.8-3.593-9.405-12.003-5.826-18.803 3.275-6.211 10.663-9.012 17.233-6.523zM83.812 565.906v21.428h160.479v-21.246zM441.138 489.185v-357.881c-20.718-0.988-37.031-18.039-37.105-38.777v-59.183h-132.102v59.183c-0.074 20.738-16.388 37.789-37.105 38.777v357.976c20.718 0.981 37.031 18.032 37.105 38.777v59.278h131.913v-59.19c0.034-20.779 16.361-37.87 37.112-38.865zM431.862 565.906v21.428h160.486v-21.246zM789.195 489.185v-357.881c-20.718-0.988-37.038-18.039-37.112-38.777v-59.183h-132.095v59.183c-0.074 20.738-16.394 37.789-37.105 38.777v357.976c20.711 0.981 37.031 18.032 37.105 38.777v59.278h131.913v-59.19c0.027-20.779 16.354-37.87 37.105-38.865zM779.919 565.906v21.428h160.479v-21.246zM940.398 54.583v-21.239h-160.669v21.239zM592.348 54.583v-21.239h-160.669v21.239zM454.867 516.832h-12.057c-6.15 0-11.13 4.98-11.13 11.13v10.115h160.479v-10.115c0-6.15-4.98-11.13-11.13-11.13zM555.148 489.003v-357.516h-86.363v357.516c0 0 86.363 0 86.363 0zM454.867 103.658h126.161c6.15 0 11.13-4.98 11.13-11.13v-10.115h-160.479v10.115c0 6.15 4.98 11.13 11.13 11.13zM244.108 54.583v-21.239h-160.486v21.239zM83.622 527.685v10.393h160.486v-10.115c0-6.15-4.98-11.13-11.137-11.13h-138.496c-6.076 0.149-10.907 5.149-10.853 11.225zM207.003 488.725v-357.238h-86.275v357.516zM83.622 92.243c0 6.157 4.98 11.137 11.13 11.137h138.219c6.157 0 11.137-4.98 11.137-11.137v-10.109h-160.486zM967.3-9.147v-27.268h-910.762v27.268c0 7.943 6.435 14.385 14.378 14.385h882.006c7.828 0 14.229-6.272 14.378-14.101 0 0 0-0.284 0-0.284zM940.215 92.243v-10.109h-160.486v10.109c0 6.157 4.98 11.137 11.13 11.137h138.503c5.934-0.149 10.704-4.919 10.853-10.853zM816.835 131.209v357.793h86.363v-357.516zM940.215 527.685c0-6.15-4.98-11.13-11.13-11.13h-138.131c-6.15 0-11.13 4.98-11.13 11.13v10.393h160.479zM511.919 930.561l414.378-217.809h-828.757zM56.538 670.822c0 7.68 6.232 13.911 13.911 13.911h882.94c7.68 0 13.911-6.232 13.911-13.911v-42.119c0-7.68-6.232-13.911-13.911-13.911h-882.94c-7.68 0-13.911 6.232-13.911 13.911z" />
<glyph unicode="&#xe933;" glyph-name="art" data-tags="art" d="M499.776 624h76.224v32h-76.224c-28.16 0-53.488-15.648-66.096-40.848l28.624-14.32c7.152 14.288 21.504 23.168 37.472 23.168zM273.68 615.152l28.624-14.32c7.152 14.288 21.504 23.168 37.472 23.168h28.224c8.832 0 16-7.184 16-16v-96c0-26.464 21.536-48 48-48h16v32h-16c-8.832 0-16 7.184-16 16v96c0 26.464-21.536 48-48 48h-28.224c-28.144 0-53.472-15.648-66.096-40.848zM384 432h96v-32h-96zM768 236.256v403.744c0 167.632-136.368 304-304 304s-304-136.368-304-304v-501.168c-40.288-46.256-64-106.368-64-170.832v-16h832v58.256c0 102.080-65.712 192.464-160 226zM736 640v-394.592l-35.936 7.568c2.576 8.704 3.936 17.792 3.936 27.024 0 18.88-5.536 37.152-16 52.848s-16 33.984-16 52.848c0 17.36 4.112 34.736 11.888 50.304l1.536 3.072c12.16 24.288 18.576 51.52 18.576 78.704v42.224h-32v-42.224c0-22.256-5.248-44.512-15.216-64.432l-1.536-3.072c-9.968-19.936-15.248-42.272-15.248-64.592 0-25.216 7.392-49.616 21.376-70.608 6.96-10.4 10.624-22.528 10.624-35.072s-3.664-24.672-10.624-35.088l-5.856-8.784c-10.16-15.232-15.52-32.96-15.52-51.248 0-12.752 2.688-25.264 7.728-36.864l-6.112-5.344c-2.672-2.336-5.152-4.848-7.76-7.248-16.192 11.296-25.856 29.648-25.856 49.456 0 11.952 3.504 23.536 10.144 33.488l5.856 8.784c10.464 15.68 16 33.968 16 52.848s-5.536 37.152-16 52.848-16 33.984-16 52.848c0 17.36 4.112 34.736 11.888 50.304l1.536 3.072c12.16 24.288 18.576 51.52 18.576 78.704v90.224c0 109.296-84.784 198.96-192 207.184v96c5.328 0.32 10.592 0.816 16 0.816 149.984 0 272-122.016 272-272zM256 172.912c9.008 4.4 18.32 8.336 28.032 11.568l3.968 1.312v-48.112c0-40.896 12-80.512 34.688-114.56l4.752-7.12h181.056l3.008 12.112c13.056 52.176 35.296 101.424 65.168 145.712 2.896-24.16 15.264-46.080 34.432-61.232-34.16-37.28-60.752-80.96-78.24-128.592h-220.768c-36.112 47.76-56.096 106.496-56.096 166.448zM432 784c97.040 0 176-78.96 176-176v-53.456c0-87.632-51.552-167.664-131.312-203.92l-14.16-6.432c-32.336-14.688-71.856-8.688-98.368 14.864-68.736 61.088-108.16 148.864-108.16 240.832v8.112c0 97.040 78.96 176 176 176zM398.32 136.848c11.568 23.152 17.68 49.072 17.68 74.928v92.624c2.912-0.208 5.824-0.4 8.768-0.4 17.696 0 34.864 3.712 51.008 11.040l14.176 6.448c33.504 15.232 62.608 37.264 86.080 63.968 0.048-25.136 7.424-49.456 21.36-70.368 6.944-10.416 10.608-22.544 10.608-35.088 0-7.44-1.44-14.704-3.952-21.584-56.992-59.024-98.48-131.44-120.368-210.416h-138.864c-16.272 27.104-24.816 57.936-24.816 89.68v58.784l64 21.328v-6.032c0-20.928-4.96-41.888-14.32-60.624zM416 907.504v-92.304c-107.216-8.24-192-97.904-192-207.2v-8.112c0-101.104 43.344-197.6 118.912-264.768 12.096-10.752 26.096-18.816 41.088-24.080v-59.504l-64-21.328v105.792h-32v-116.464l-14.096-4.704c-6.096-2.032-12.048-4.32-17.904-6.768v191.936h-32v-208.048c-11.296-6.656-21.968-14.096-32-22.256v470.304c0 133.584 96.864 244.736 224 267.504zM224 154.032v-3.584c0-59.024 17.36-116.992 49.088-166.448h-144.528c4.8 69.024 40.48 131.024 95.44 170.032zM896-16h-329.008c20.912 51.616 53.68 97.808 95.696 134.592l51.84 45.36-21.056 24.080-19.68-17.216c-1.104 4.592-1.792 9.296-1.792 14.064 0 11.952 3.504 23.536 10.144 33.488l3.312 4.976 45.392-9.552c95.696-20.16 165.152-105.76 165.152-203.536zM744.88 125.312l-17.744-26.624c27.632-18.416 47.28-46.32 55.344-78.56l2.016-8.032 31.024 7.792-2.016 8.016c-9.984 39.968-34.368 74.56-68.624 97.408z" />
<glyph unicode="&#xe934;" glyph-name="jigsaw" data-tags="jigsaw" d="M730.536 960h-605.176c-64.953-0.084-117.589-52.72-117.673-117.673v-603.781c0.084-64.953 52.72-117.589 117.673-117.673h184.915v33.621h-184.915c-46.397 0.055-83.998 37.655-84.052 84.052v284.382h107.957c9.962 0.729 17.449 9.395 16.72 19.359-0.141 1.921-0.586 3.808-1.322 5.587-14.94 33.999 0.509 73.672 34.508 88.612s73.672-0.509 88.612-34.508c7.575-17.239 7.575-36.865 0-54.104-4.152-8.687-0.475-19.095 8.212-23.247 2.246-1.074 4.699-1.654 7.186-1.702h107.957v-100.863c-5.554 0.946-11.177 1.412-16.81 1.395-55.706 0.019-100.877-45.123-100.898-100.827-0.015-40.133 23.766-76.454 60.553-92.493l13.448 30.797c-34.054 14.814-49.652 54.428-34.84 88.482 10.687 24.571 34.943 40.45 61.736 40.421 9.265 0.002 18.426-1.933 26.897-5.682 8.508-3.713 18.418 0.174 22.131 8.683 0.925 2.118 1.402 4.404 1.404 6.716v123.374h85.481c-0.956-5.552-1.435-11.177-1.429-16.81 0.101-47.897 33.783-89.158 80.69-98.845l6.724 32.932c-31.272 6.47-53.724 33.98-53.793 65.914-0.002 9.265 1.933 18.426 5.682 26.897 3.713 8.508-0.174 18.418-8.683 22.131-2.118 0.925-4.404 1.402-6.716 1.404h-107.957v85.481c5.552-0.956 11.177-1.435 16.81-1.429 55.706 0 100.863 45.157 100.863 100.863s-45.157 100.863-100.863 100.863c-5.634 0.006-11.259-0.473-16.81-1.429v85.481h285.778c46.397-0.055 83.998-37.655 84.052-84.052v-285.778h-107.957c-9.284-0.004-16.806-7.535-16.802-16.819 0.002-2.311 0.479-4.598 1.404-6.716 3.749-8.47 5.684-17.632 5.682-26.897h33.621c0.006 5.634-0.473 11.259-1.429 16.81h102.292c9.284 0 16.81 7.527 16.81 16.81v302.588c-0.084 64.953-52.72 117.589-117.673 117.673zM461.569 808.706c37.136 0 67.242-30.105 67.242-67.242s-30.105-67.242-67.242-67.242c-9.265-0.002-18.426 1.933-26.897 5.682-8.508 3.713-18.418-0.174-22.131-8.683-0.925-2.118-1.402-4.404-1.404-6.716v-106.561h-85.363c0.843 5.096 1.28 10.25 1.311 15.415 0 0.303 0 0.572 0 0.874s0 0.353 0 0.521c0 55.706-45.157 100.863-100.863 100.863s-100.863-45.157-100.863-100.863c0-0.168 0-0.353 0-0.521s0-0.572 0-0.874c0.032-5.165 0.469-10.32 1.311-15.415h-85.363v284.382c0.055 46.397 37.655 83.998 84.052 84.052h285.778v-107.957c0.004-9.284 7.535-16.806 16.819-16.802 2.311 0.002 4.598 0.479 6.716 1.404 8.47 3.749 17.632 5.684 26.897 5.682zM980.356 237.453l-141.325 97.316-54.281 145.024c-3.238 8.702-12.917 13.129-21.618 9.891-0.311-0.116-0.62-0.242-0.925-0.376l-109.268-48.33c-8.191-3.616-12.108-13.020-8.91-21.383 1.816-4.707 3.513-8.271 5.312-11.969s3.463-7.161 5.497-12.625c13.049-34.867-4.52-73.729-39.32-86.96-34.783-13.009-73.527 4.64-86.538 39.425-3.263 8.725-4.678 18.031-4.154 27.33 0.488 9.271-6.634 17.182-15.905 17.67-2.324 0.122-4.646-0.24-6.823-1.061l-116.799-43.993c-8.672-3.268-13.064-12.938-9.817-21.618l41.925-112.008c-5.558-1.013-11.015-2.519-16.306-4.505-52.312-19.494-78.915-77.704-59.421-130.016s77.704-78.915 130.016-59.421c5.386 2.007 10.591 4.469 15.558 7.363l30.057-80.287c3.257-8.695 12.944-13.102 21.639-9.845 0.011 0.004 0.019 0.008 0.029 0.011l166.558 62.753c10.462-22.488 29.715-39.679 53.239-47.54l10.624 31.94c-13.856 4.669-25.371 14.51-32.142 27.468l50.683 19.080c16.649-46.828 60.999-78.082 110.697-78.017v33.621c-46.302 0.284-83.769 37.75-84.052 84.052 0 4.459-1.774 8.733-4.925 11.885l-58.534 58.534c-8.678 8.754-9.658 22.534-2.303 32.427 4.282 5.781 10.893 9.382 18.071 9.851 7.189 0.605 14.268-2.042 19.298-7.212l117.371-117.371 23.77 23.77-34.73 34.73c8.557 25.588 8.029 53.344-1.496 78.589l-31.503 84.136 101.586-69.948c13.465-9.452 21.488-24.869 21.501-41.32v-217.141h33.621v217.141c-0.023 27.47-13.444 53.201-35.958 68.94zM859.623 183.862c4.644-12.343 6.325-25.602 4.909-38.714l-54.567 54.55c-22.524 23.1-59.507 23.564-82.607 1.042-23.1-22.524-23.564-59.507-1.042-82.607 0.343-0.351 0.689-0.7 1.042-1.042l53.171-53.171-237.565-89.482-32.041 85.616c-1.994 5.321-6.541 9.271-12.087 10.507-1.198 0.265-2.421 0.401-3.648 0.403-4.398 0.004-8.622-1.717-11.767-4.791-26.993-25.504-69.553-24.295-95.057 2.7-25.504 26.993-24.295 69.553 2.7 95.057 6.35 5.999 13.806 10.702 21.954 13.85 5.352 1.984 10.941 3.249 16.626 3.766 3.497 0.429 7.023 0.546 10.54 0.353 9.271-0.485 17.182 6.636 17.668 15.907 0.122 2.305-0.233 4.61-1.042 6.77l-43.909 117.236 80.051 30.141c10.507-54.705 63.371-90.535 118.077-80.030 5.589 1.074 11.078 2.618 16.407 4.619 52.127 19.777 78.475 77.956 58.954 130.18-1.547 4.135-2.942 7.413-4.287 10.338l77.328 34.243 100.19-267.44z" />
<glyph unicode="&#xe935;" glyph-name="document-1" data-tags="document (1)" d="M893.144 714.337c0 1.146-1.146 2.293-2.293 3.439s-1.146 2.293-2.293 3.439l-223.528 233.845c-1.146 1.146-3.439 3.439-5.731 3.439-2.293 1.146-4.585 1.146-8.024 1.146h-502.079c-11.463 2.293-19.487-6.878-19.487-17.194v-986.963c0-10.317 9.17-19.487 19.487-19.487h725.607c10.317 0 19.487 9.17 19.487 19.487v751.972c0 2.293 0 4.585-1.146 6.878zM669.616 893.159l158.189-166.213h-158.189v166.213zM855.316-26.172h-686.633v949.135h463.105v-215.504c0-10.317 9.17-19.487 19.487-19.487h204.041v-714.144zM245.486 668.485h232.699c10.317 0 19.487 9.17 19.487 19.487s-9.17 19.487-19.487 19.487h-232.699c-10.317 0-19.487-9.17-19.487-19.487 0-11.463 8.024-19.487 19.487-19.487zM478.184 223.721h-232.699c-10.317 0-19.487-9.17-19.487-19.487s9.17-19.487 19.487-19.487h232.699c10.317 0 19.487 9.17 19.487 19.487s-9.17 19.487-19.487 19.487zM224.852 521.759c0-11.463 8.024-19.487 19.487-19.487h468.836c10.317 0 19.487 9.17 19.487 19.487s-9.17 19.487-19.487 19.487h-468.836c-10.317 0-19.487-9.17-19.487-19.487zM714.322 443.81h-468.836c-10.317 0-19.487-9.17-19.487-19.487s9.17-19.487 19.487-19.487h468.836c10.317 0 19.487 9.17 19.487 19.487 0 11.463-9.17 19.487-19.487 19.487zM712.029 347.521h-468.836c-10.317 0-19.487-9.17-19.487-19.487s9.17-19.487 19.487-19.487h468.836c10.317 0 19.487 9.17 19.487 19.487s-8.024 19.487-19.487 19.487z" />
<glyph unicode="&#xe936;" glyph-name="lightbulb" data-tags="lightbulb" d="M512.779 739.286c-144.932 0-263.341-118.409-263.341-263.341 0-75.782 33.154-148.722 89.043-197.98 41.68-41.68 37.891-130.723 36.944-131.671 0-4.736 0.947-8.525 4.736-12.315 2.842-2.842 7.578-4.736 11.367-4.736h241.554c4.736 0 8.525 1.895 11.367 4.736s4.736 7.578 4.736 12.315c0 0.947-4.736 89.991 36.944 131.671 0.947 0.947 1.895 1.895 2.842 2.842 54.942 50.205 87.149 121.251 87.149 195.138 0 144.932-118.409 263.341-263.341 263.341zM664.342 302.594c-0.947-0.947-2.842-2.842-2.842-3.789-36.944-39.785-43.574-105.147-44.522-136.407h-209.347c-0.947 31.26-7.578 99.463-47.364 140.196-50.205 43.574-79.571 107.042-79.571 174.298 0 127.882 103.253 231.134 231.134 231.134s231.134-103.253 231.134-231.134c0-67.256-28.418-130.723-78.623-174.298zM511.832 672.030c-8.525 0-16.104-7.578-16.104-16.104s7.578-16.104 16.104-16.104c95.674 0 172.403-77.676 172.403-172.403 0-8.525 7.578-16.104 16.104-16.104s16.104 7.578 16.104 16.104c0.947 112.725-90.938 204.611-204.611 204.611zM616.979 111.245h-210.294c-21.787 0-39.785-17.998-39.785-39.785s17.998-39.785 39.785-39.785h209.347c22.735 0.947 40.733 17.998 40.733 39.785s-17.998 39.785-39.785 39.785zM616.979 64.829h-210.294c-3.789 0-7.578 2.842-7.578 7.578s2.842 7.578 7.578 7.578h209.347c3.789 0 7.578-2.842 7.578-7.578s-2.842-7.578-6.631-7.578zM585.719 15.571h-147.774c-21.787 0-39.785-17.998-39.785-39.785s17.998-39.785 39.785-39.785h147.774c21.787 0 39.785 17.998 39.785 39.785 0 22.735-17.998 39.785-39.785 39.785zM585.719-30.846h-147.774c-3.789 0-7.578 2.842-7.578 7.578s2.842 7.578 7.578 7.578h147.774c3.789 0 7.578-2.842 7.578-7.578s-3.789-7.578-7.578-7.578zM511.832 817.909c9.473 0 16.104 7.578 16.104 16.104v109.883c0 8.525-7.578 16.104-16.104 16.104s-16.104-7.578-16.104-16.104v-109.883c0-8.525 7.578-16.104 16.104-16.104zM779.91 878.535c-7.578 5.684-17.051 2.842-21.787-3.789l-60.625-90.938c-5.684-7.578-3.789-17.998 3.789-22.735 2.842-1.895 5.684-2.842 8.525-2.842 5.684 0 10.42 2.842 13.262 7.578l60.625 90.938c5.684 6.631 3.789 17.051-3.789 21.787zM319.536 762.020c2.842 0 5.684 0.947 8.525 2.842 7.578 4.736 9.473 15.156 4.736 22.735l-58.731 91.885c-4.736 7.578-15.156 9.473-22.735 4.736s-9.473-15.156-4.736-22.735l58.731-91.885c3.789-5.684 8.525-7.578 14.209-7.578zM204.916 661.61l-95.674 52.1c-7.578 3.789-17.998 0.947-21.787-6.631-4.736-7.578-1.895-17.998 6.631-21.787l95.674-52.1c2.842-0.947 4.736-1.895 7.578-1.895 5.684 0 11.367 2.842 14.209 8.525 3.789 7.578 0.947 17.998-6.631 21.787zM937.157 707.079c-3.789 7.578-14.209 10.42-21.787 6.631l-96.622-52.1c-7.578-3.789-10.42-14.209-6.631-21.787 2.842-5.684 8.525-8.525 14.209-8.525 2.842 0 5.684 0.947 7.578 1.895l96.622 52.1c7.578 3.789 10.42 14.209 6.631 21.787z" />
<glyph unicode="&#xe937;" glyph-name="project" data-tags="project" d="M751.23 246.164c-47.458 0-86.070-38.61-86.070-86.070s38.612-86.070 86.070-86.070 86.068 38.61 86.068 86.070-38.608 86.070-86.068 86.070zM751.23 104.026c-30.918 0-56.070 25.152-56.070 56.070s25.152 56.070 56.070 56.070c30.916 0 56.068-25.152 56.068-56.070s-25.152-56.070-56.068-56.070zM944.394 219.902h-23.438c-2.15 6.092-4.63 12.074-7.432 17.91l16.58 16.58c5.844 5.842 9.062 13.61 9.062 21.874s-3.218 16.034-9.060 21.872l-40.836 40.834c-12.086 12.092-31.652 12.094-43.742 0.002l-16.582-16.582c-5.838 2.8-11.82 5.282-17.91 7.43v23.438c0 17.056-13.876 30.93-30.932 30.93h-13.876v524.702c0.002 28.182-22.924 51.108-51.104 51.108h-486.074c-8.286 0-15-6.716-15-15s6.714-15 15-15h486.072c11.638 0 21.108-9.468 21.108-21.108v-524.704c-13.936 0-22.512 1.264-32.48-6.28 0.874 2.964 1.364 6.092 1.364 9.334v147.642c0 18.226-14.828 33.054-33.052 33.054h-203.102c-18.224 0-33.052-14.828-33.052-33.054v-147.642c0-18.226 14.828-33.054 33.052-33.054h203.1c7.732 0 14.836 2.688 20.472 7.152-0.702-2.582-1.108-5.282-1.108-8.084v-23.438c-6.092-2.148-12.072-4.63-17.91-7.43l-16.582 16.584c-11.826 11.822-31.424 12.332-43.744-0.002-45.386-45.388-41.484-41.28-43.58-44.026-9.226-12.108-8.378-29.428 2.746-40.552l16.582-16.582c-2.8-5.838-5.284-11.818-7.432-17.91h-23.438c-17.056 0-30.932-13.876-30.932-30.932v-57.75c0-13.858 9.16-25.616 21.744-29.538 5.778-1.802 7.562-1.394 32.626-1.394 2.148-6.092 4.63-12.074 7.432-17.912-15.402-15.402-27.264-23.49-25.492-41.526 0.696-7.104 3.8-13.692 8.91-18.798l8.426-8.426h-480.996c-11.638 0-21.108 9.468-21.108 21.108v874.16c0 11.64 9.468 21.108 21.108 21.108h59.268c8.286 0 15 6.716 15 15s-6.716 15-15.002 15h-59.266c-28.182 0-51.108-22.926-51.108-51.108v-874.158c0-28.18 22.926-51.108 51.108-51.108h510.996l2.412-2.412c12.11-12.104 31.686-12.070 43.744 0.002l2.41 2.41h32.082v-16.696c0-17.056 13.876-30.93 30.932-30.93h57.75c17.056 0 30.932 13.876 30.932 30.93v23.438c6.092 2.148 12.072 4.63 17.91 7.43l16.582-16.584c5.844-5.84 13.612-9.058 21.872-9.058 10.944 0 16.61 8.208 16.052 16.096-0.584 8.264-7.818 14.488-16.052 13.904-0.386 0-0.594 0.206-0.658 0.272l-24.348 24.348c-4.754 4.752-12.088 5.762-17.946 2.476-10.276-5.764-21.204-10.298-32.478-13.474-6.466-1.822-10.934-7.72-10.934-14.438v-34.412c0-0.514-0.418-0.93-0.932-0.93h-57.75c-0.514 0-0.932 0.416-0.932 0.93 0 11.108 0 21.528 0 34.412 0 6.718-4.466 12.616-10.932 14.438-11.278 3.176-22.206 7.71-32.482 13.474-5.856 3.288-13.192 2.28-17.946-2.476-13.284-13.284-23.308-23.312-24.352-24.356-0.072-0.072-0.266-0.266-0.65-0.266-0.388 0-0.596 0.206-0.66 0.272-4.402 4.402 0.376-0.374-40.834 40.836-0.066 0.066-0.258 0.27-0.27 0.632 0 0.010-0.006 0.014-0.006 0.026 0 0.384 0.198 0.58 0.276 0.658l24.346 24.348c4.75 4.752 5.762 12.084 2.474 17.944-5.808 10.358-10.388 21.53-13.474 32.482-1.824 6.47-7.726 10.932-14.438 10.932h-34.41c-0.514 0-0.932 0.418-0.932 0.93v57.75c0 0.514 0.418 0.932 0.932 0.932h34.41c6.716 0 12.616 4.466 14.438 10.932 3.178 11.276 7.71 22.206 13.474 32.482 3.288 5.862 2.276 13.192-2.474 17.944l-24.346 24.346c-0.068 0.066-0.214 0.254-0.25 0.558-0.004 0.040-0.024 0.058-0.024 0.102 0 0.012 0.006 0.018 0.008 0.030 0.012 0.358 0.202 0.562 0.268 0.628l40.832 40.834c0.068 0.068 0.274 0.274 0.66 0.276 0.386 0 0.592-0.206 0.66-0.274l24.346-24.346c2.972-2.97 6.948-4.478 10.944-4.39 6.724 0.15 7.448 3.52 25.128 10.52 4.706 1.862 9.494 3.498 14.352 4.866 6.466 1.822 10.934 7.72 10.934 14.438v34.412c0 0.512 0.418 0.93 0.932 0.93h57.75c0.514 0 0.932-0.416 0.932-0.93v-34.412c0-6.718 4.466-12.616 10.934-14.438 11.272-3.174 22.2-7.708 32.478-13.474 5.856-3.282 13.19-2.278 17.944 2.476l24.35 24.346c0.066 0.068 0.274 0.274 0.658 0.274 0.382 0 0.582-0.198 0.656-0.274l40.84-40.838c0.074-0.074 0.272-0.27 0.272-0.656 0-0.384-0.198-0.582-0.274-0.658l-24.348-24.346c-4.754-4.752-5.766-12.084-2.476-17.946 5.766-10.276 10.298-21.204 13.474-32.478 1.82-6.466 7.718-10.934 14.438-10.934h34.412c0.512 0 0.93-0.418 0.93-0.932v-57.75c0-0.512-0.418-0.93-0.93-0.93h-34.412c-6.718 0-12.618-4.466-14.438-10.934-3.176-11.276-7.708-22.204-13.474-32.48-3.288-5.86-2.278-13.194 2.474-17.946l24.354-24.352c0.074-0.074 0.27-0.27 0.27-0.654 0-0.356-0.174-0.548-0.23-0.612-5.54-6.16-5.036-15.644 1.126-21.184 6.16-5.54 15.644-5.034 21.184 1.126 5.108 5.682 7.922 13.022 7.922 20.67 0 8.266-3.22 16.036-9.060 21.872l-16.582 16.582c2.8 5.838 5.282 11.818 7.432 17.912h23.438c17.054 0 30.93 13.876 30.93 30.93v57.75c-0.012 17.062-13.886 30.938-30.942 30.938zM675.114 387.244c0-1.684-1.37-3.054-3.052-3.054h-203.102c-1.684 0-3.052 1.37-3.052 3.054v147.642c0 1.684 1.37 3.054 3.052 3.054h203.1c1.684 0 3.052-1.37 3.052-3.054v-147.642zM389.398 892.77h-246.552c-18.226 0-33.054-14.828-33.054-33.054v-237.96c0-18.226 14.828-33.054 33.054-33.054h246.552c18.226 0 33.054 14.828 33.054 33.054v237.96c0.002 18.226-14.826 33.054-33.054 33.054zM392.454 621.756c0-1.684-1.372-3.054-3.054-3.054h-246.554c-1.684 0-3.054 1.37-3.054 3.054v237.96c0 1.684 1.372 3.054 3.054 3.054h246.552c1.684 0 3.054-1.37 3.054-3.054v-237.96zM465.952 797.566h209.118c8.308 0 15.044 6.736 15.044 15.044s-6.736 15.044-15.044 15.044h-209.118c-8.308 0-15.044-6.736-15.044-15.044s6.736-15.044 15.044-15.044zM465.952 727.186h209.118c8.308 0 15.044 6.736 15.044 15.044s-6.736 15.044-15.044 15.044h-209.118c-8.308 0-15.044-6.736-15.044-15.044s6.736-15.044 15.044-15.044zM465.952 656.806h209.118c8.308 0 15.044 6.736 15.044 15.044s-6.736 15.044-15.044 15.044h-209.118c-8.308 0-15.044-6.736-15.044-15.044s6.736-15.044 15.044-15.044zM449.706 294.112h-309.868c-8.31 0-15.044-6.736-15.044-15.044s6.736-15.044 15.044-15.044h309.868c8.31 0 15.044 6.736 15.044 15.044s-6.734 15.044-15.044 15.044zM139.836 410.83h209.116c8.31 0 15.044 6.736 15.044 15.044s-6.736 15.044-15.044 15.044h-209.116c-8.31 0-15.044-6.736-15.044-15.044s6.734-15.044 15.044-15.044zM139.836 481.21h209.116c8.31 0 15.044 6.736 15.044 15.044s-6.736 15.044-15.044 15.044h-209.116c-8.31 0-15.044-6.736-15.044-15.044s6.734-15.044 15.044-15.044zM449.706 229.146h-309.868c-8.31 0-15.044-6.736-15.044-15.044s6.736-15.044 15.044-15.044h309.868c8.31 0 15.044 6.736 15.044 15.044s-6.734 15.044-15.044 15.044zM449.706 164.182h-309.868c-8.31 0-15.044-6.736-15.044-15.044s6.736-15.044 15.044-15.044h309.868c8.31 0 15.044 6.736 15.044 15.044s-6.734 15.044-15.044 15.044zM139.838 65.856h309.868c8.31 0 15.044 6.736 15.044 15.044 0 8.31-6.736 15.044-15.044 15.044h-309.868c-8.31 0-15.044-6.736-15.044-15.044-0.002-8.308 6.734-15.044 15.044-15.044z" />
<glyph unicode="&#xe938;" glyph-name="start-up-1" data-tags="start-up (1)" d="M1019.57 929.133c-1.547 13.945-12.555 24.961-26.508 26.508-237.406 26.367-439.781-68.602-604.859-238.531-47.242-48.633-88.219-100.109-123.195-149.789-59.195 2.406-124.828-24.375-171.359-70.906l-84.859-84.859c-9.602-9.602-11.555-24.461-4.766-36.219s20.625-17.484 33.75-13.977c19.687 5.289 51.68 11.437 82.414 12.867 11.234 0.523 20.57 0.359 28.328-0.234-18.727-36.016-33.078-66.187-37.836-73.742-7.453-11.859-5.727-27.289 4.18-37.195l49.102-49.102c-71.461-97.461-72.641-147.375-72.391-154.445 0.523-14.977 12.203-29.008 31.547-29.008 16.75 0 64.789 7.109 152.242 72.055l51.648-51.648c9.977-9.977 25.562-11.648 37.437-4.023 8.078 5.195 36.477 18.945 70.531 36.742 0.562-25.383-2.883-62.656-10.359-113.18-4.25-28.656 30.586-45.906 50.891-25.609l84.859 84.859c43.758 43.758 69.133 108.75 67.258 169.719 52.336 36.57 106.781 79.711 157.617 129.562 168.312 165.055 260.359 365.898 234.328 600.156zM962.18 898.258c4.789-64.687-0.32-127.391-15.203-188.070-36.961 11.641-73.094 34.508-105.727 67.133-32.75 32.758-55.664 69.039-67.258 106.133 60.656 14.664 123.398 19.633 188.187 14.805zM116.273 434.18l19.797 19.805c23.945 23.937 55.086 41.18 86.055 48.93-16.18-25.68-30.602-50.203-43.32-72.836-19.648 4.336-41.492 5.141-62.531 4.102zM173.047 289.719c6.492 12.812 14.344 28.875 28.758 56.109l39.492-39.5c-14.695-15.766-27.961-30.742-39.914-44.937zM319.758 301.195c21.859 21.852 42.82 25.844 68.859 26.406-0.57-25.375-4.641-47.047-26.43-68.836-93.141-93.141-156.984-134.734-195.164-153.297 18.836 38.914 60.539 103.531 152.734 195.727zM353.5 109.266l-30.937 30.945c14.125 12 29.055 25.305 44.805 40.055l42.039-42.039c-27.641-14.758-39.172-20.312-55.906-28.961zM517.93 72.125l-24.016-24.023c1.945 29.102 1.273 50.305-1.477 66.664 22.062 12.422 46.023 26.508 71.133 42.266-7.156-31.719-23.242-62.516-45.641-84.906zM464.023 168.461l-53.789 53.797c39.805 43.797 38.32 86 38.32 135.305 0 16.57-13.43 30-30 30-46.062 0-90.391 2.469-135.305-38.328l-51.367 51.367c140.266 245.961 302.398 401.68 484.562 465.805 14.422-46.664 42.492-91.625 82.383-131.516 39.703-39.711 84.453-67.711 130.914-82.187-64.5-181.164-220.18-343.195-465.719-484.242zM756.398 692.469c-58.492 58.484-153.664 58.484-212.148 0-58.484-58.492-58.484-153.664 0-212.148s153.656-58.492 212.148 0c58.484 58.484 58.484 153.656 0 212.148zM713.969 522.75c-35.094-35.094-92.203-35.094-127.289 0-35.094 35.094-35.094 92.195 0 127.289 35.086 35.086 92.187 35.094 127.289 0 35.094-35.094 35.094-92.195 0-127.289z" />
<glyph unicode="&#xe939;" glyph-name="start-up" data-tags="start-up" d="M149.484 303.844c-5.797-11.562-3.539-25.539 5.594-34.68l7.336-7.336c21.195 25.117 45.898 52.375 75.859 82.328 2.117 2.117 4.297 3.141 6.422 5.094l-47.195 47.203c-27.437-49.625-43.437-83.531-48.016-92.609zM407.976 174.453c-30.031-30.031-57.219-54.781-82.195-75.992l9.937-9.937c9.219-9.219 23.328-11.437 34.93-5.469 15.539 8.008 39.977 19.508 91.852 48.398l-49.422 49.422c-1.953-2.133-2.977-4.305-5.102-6.422zM391.984 328.125c-21.68 21.68-82.648 2.242-111.289-26.391-95.812-95.812-139.086-163.742-158.516-203.851-5.57-11.492-3.25-25.25 5.781-34.281 9.047-9.055 22.828-11.352 34.328-5.781 39.211 19.039 106.312 62.109 203.265 159.055 31.492 31.508 47.031 90.641 26.453 111.226zM93.641 560.578l-84.852-84.852c-9.594-9.594-11.562-24.445-4.766-36.211 6.633-11.609 20.523-17.523 33.742-13.984 45.859 12.297 86.211 17.492 113.383 10.523 38.656 68.727 80.195 131.992 124.187 189.461-25.445 16.312-109.531 7.227-181.695-64.937zM507.789-60.781c11.555-5.844 25.547-3.586 34.695 5.57l84.859 84.852c65.695 65.711 77.258 150.492 62.352 177.375-64.094-48.305-129.023-89.094-189.601-123.242 4.18-23.602 1.398-46.5-8.484-113.375-1.93-12.945 4.758-25.469 16.18-31.18zM595.601 659.062c-35.086-35.094-35.086-92.18 0-127.273 35.094-35.094 92.187-35.094 127.281 0s35.094 92.18 0 127.273-92.187 35.094-127.281 0zM1022.234 930.734c-1.078 14.836-12.891 26.562-27.68 27.672-73.68 5.547-147.070-3.516-219.008-25.516 5.414-49.422 30.977-102.906 74.617-146.547 44.164-44.156 99.101-69.711 149.406-74.492 19.375 67.898 28.562 140.617 22.664 218.883zM807.742 743.914c-49.922 49.922-80.406 109.797-90.187 168.094-180.148-73.883-352.601-235.226-488.875-461.883l67.703-67.703c46.258 18.781 102.414 23.742 138.031-11.867 35.664-35.672 30.609-91.805 11.836-138l69.93-69.93c174.391 105.101 377.422 270.687 463.758 490.992-59.719 9.023-121.461 39.562-172.195 90.297zM765.304 489.359c-58.477-58.477-153.641-58.477-212.125 0-58.484 58.484-58.484 153.656 0 212.133s153.648 58.477 212.125 0c58.484-58.484 58.484-153.648 0-212.133z" />
</font>
</defs>
</svg>
