<svg xmlns="http://www.w3.org/2000/svg" width="465.444" height="74" viewBox="0 0 465.444 74">
  <g id="Grupo_412" data-name="Grupo 412" transform="translate(-1264.556 -971.5)">
    <text id="Plataforma_de_acceso_privado_para_los_Investigadores" data-name="Plataforma de
acceso privado
para los Investigadores" transform="translate(1562 1003)" fill="#fff" font-size="16" font-family="Roboto-Bold, Roboto" font-weight="700"><tspan x="0" y="0">Plataforma de</tspan><tspan x="0" y="15">acceso privado</tspan><tspan x="0" y="30">para los Investigadores</tspan></text>
    <g id="Grupo_193" data-name="Grupo 193" transform="translate(1264.556 971.699)">
      <text id="VICERRECTORÍA_DE_INVESTIGACIÓN" data-name="VICERRECTORÍA DE
INVESTIGACIÓN" transform="translate(83.02 40.504)" fill="#fff" font-size="13" font-family="Helvetica-Bold, Helvetica" font-weight="700"><tspan x="0" y="0">VICERRECTORÍA DE</tspan><tspan x="0" y="12">INVESTIGACIÓN</tspan></text>
      <g id="Grupo_111" data-name="Grupo 111">
        <g id="Grupo_110" data-name="Grupo 110">
          <g id="Grupo_75" data-name="Grupo 75" transform="translate(0 33.113)">
            <g id="Grupo_68" data-name="Grupo 68">
              <g id="Grupo_57" data-name="Grupo 57">
                <path id="Trazado_51" data-name="Trazado 51" d="M6.889,35.467V29.8H5.334v5.778c0,1.556-.556,2.111-1.778,2.111-1.445,0-1.778-.778-1.778-2V29.8H0v6c0,1.778.667,3.334,3.334,3.334C5.667,39.245,6.889,38.023,6.889,35.467Z" transform="translate(0 -29.8)" fill="#fff" fill-rule="evenodd"/>
              </g>
              <g id="Grupo_58" data-name="Grupo 58" transform="translate(7.778 1.445)">
                <path id="Trazado_52" data-name="Trazado 52" d="M13,38.878V31.1H11.667v2.445a27.1,27.1,0,0,0,.111,3.111,13.266,13.266,0,0,0-.889-1.778l-2-3.667H7v7.778H8.333V36.211a21.435,21.435,0,0,0-.111-2.778A11.214,11.214,0,0,0,9,35.1l2.111,3.889H13Z" transform="translate(-7 -31.1)" fill="#fff" fill-rule="evenodd"/>
              </g>
              <g id="Grupo_59" data-name="Grupo 59" transform="translate(14.667 1.556)">
                <rect id="Rectángulo_5" data-name="Rectángulo 5" width="1.445" height="7.778" fill="#fff"/>
              </g>
              <g id="Grupo_60" data-name="Grupo 60" transform="translate(16.445 1.445)">
                <path id="Trazado_53" data-name="Trazado 53" d="M21.578,31.211H20.134l-1.445,4.445c-.222.667-.333,1.111-.444,1.556h0c-.111-.556-.333-1.111-.444-1.556L16.356,31.1H14.8l2.556,7.778h1.667Z" transform="translate(-14.8 -31.1)" fill="#fff" fill-rule="evenodd"/>
              </g>
              <g id="Grupo_61" data-name="Grupo 61" transform="translate(23.557 1.556)">
                <path id="Trazado_54" data-name="Trazado 54" d="M25.2,38.867V37.645H22.645V35.534h2.445V34.311H22.645V32.422H25.2V31.2h-4v7.667Z" transform="translate(-21.2 -31.2)" fill="#fff" fill-rule="evenodd"/>
              </g>
              <g id="Grupo_62" data-name="Grupo 62" transform="translate(28.335 1.445)">
                <path id="Trazado_55" data-name="Trazado 55" d="M30.722,38.878l-1.778-2.556a2.419,2.419,0,0,1-.556-.889,2.149,2.149,0,0,0,1.889-2.111c0-1.556-1-2.222-2.667-2.222H25.5v7.778h1.445V35.656h0l2,3.222Zm-2-5.445a1.2,1.2,0,0,1-1.333,1.222h-.556V32.433h.556Q28.722,32.267,28.722,33.433Z" transform="translate(-25.5 -31.1)" fill="#fff" fill-rule="evenodd"/>
              </g>
              <g id="Grupo_63" data-name="Grupo 63" transform="translate(33.668 1.445)">
                <path id="Trazado_56" data-name="Trazado 56" d="M34.856,36.545c0-2.445-3.111-1.889-3.111-3.334,0-.556.444-.889,1.222-.889a5.578,5.578,0,0,1,1.333.222l.111-1.333a5.41,5.41,0,0,0-1.333-.111c-1.778,0-2.778,1-2.778,2.333,0,2.556,3.111,1.889,3.111,3.334,0,.667-.556,1-1.222,1a6.558,6.558,0,0,1-1.556-.222l-.111,1.445a6.5,6.5,0,0,0,1.445.222C33.856,38.989,34.856,37.989,34.856,36.545Z" transform="translate(-30.3 -31.1)" fill="#fff" fill-rule="evenodd"/>
              </g>
              <g id="Grupo_64" data-name="Grupo 64" transform="translate(38.891 1.556)">
                <rect id="Rectángulo_6" data-name="Rectángulo 6" width="1.445" height="7.778" fill="#fff"/>
              </g>
              <g id="Grupo_65" data-name="Grupo 65" transform="translate(41.447 1.445)">
                <path id="Trazado_57" data-name="Trazado 57" d="M43.3,34.878c0-2.667-1.445-3.778-3.667-3.778a14.207,14.207,0,0,0-2.333.111v7.778c.667,0,1.222.111,2,.111A3.912,3.912,0,0,0,43.3,34.878Zm-1.556.111c0,1.889-1,2.667-2.333,2.667a1.648,1.648,0,0,1-.778-.111V32.322h.889C41.189,32.322,41.745,33.322,41.745,34.989Z" transform="translate(-37.3 -31.1)" fill="#fff" fill-rule="evenodd"/>
              </g>
              <g id="Grupo_66" data-name="Grupo 66" transform="translate(47.447 1.445)">
                <path id="Trazado_58" data-name="Trazado 58" d="M49.478,38.878,46.922,31.1H45.256L42.7,38.878h1.445l.556-1.556h2.778l.556,1.556ZM47.034,36.1h-2l.667-2,.333-1.333h0c.111.444.222.778.333,1.222Z" transform="translate(-42.7 -31.1)" fill="#fff" fill-rule="evenodd"/>
              </g>
              <g id="Grupo_67" data-name="Grupo 67" transform="translate(54.669 1.445)">
                <path id="Trazado_59" data-name="Trazado 59" d="M55.2,34.878c0-2.667-1.445-3.778-3.667-3.778a14.207,14.207,0,0,0-2.333.111v7.778c.667,0,1.222.111,2,.111A3.912,3.912,0,0,0,55.2,34.878Zm-1.556.111c0,1.889-1,2.667-2.333,2.667a1.648,1.648,0,0,1-.778-.111V32.322h.889C52.978,32.322,53.645,33.322,53.645,34.989Z" transform="translate(-49.2 -31.1)" fill="#fff" fill-rule="evenodd"/>
              </g>
            </g>
            <g id="Grupo_74" data-name="Grupo 74" transform="translate(0 12.89)">
              <g id="Grupo_69" data-name="Grupo 69">
                <path id="Trazado_60" data-name="Trazado 60" d="M17.223,56.623,15,41.511H11.778L9.334,49.289A31.822,31.822,0,0,0,8.556,52.4h0c-.222-1.111-.444-2.111-.778-3.222L5.445,41.4H2.222L0,56.623H2.778l.778-6.889c.222-1.333.333-2.445.444-3.889H4c.222,1.222.556,2.556.889,3.778l2.111,7H9.667l2.222-7.556c.333-1.222.556-2.222.778-3.222h0c.111,1,.222,2.111.444,3.556l1,7.223Z" transform="translate(0 -41.4)" fill="#fff" fill-rule="evenodd"/>
              </g>
              <g id="Grupo_70" data-name="Grupo 70" transform="translate(18.223 2.111)">
                <path id="Trazado_61" data-name="Trazado 61" d="M27.845,56.412,23.4,43.3H20.734L16.4,56.412h2.445l.889-2.667H24.4l.889,2.667Zm-4.111-4.667H20.289L21.4,48.411a21.609,21.609,0,0,0,.556-2.222h0a14.8,14.8,0,0,0,.556,2.111Z" transform="translate(-16.4 -43.3)" fill="#fff" fill-rule="evenodd"/>
              </g>
              <g id="Grupo_71" data-name="Grupo 71" transform="translate(28.557 2.111)">
                <path id="Trazado_62" data-name="Trazado 62" d="M35.812,43.3H33.256L31.7,46.856c-.333.889-.778,1.667-1,2.445h0c-.222-.667-.556-1.445-.889-2.222L28.256,43.3H25.7l3.889,8.556v4.667h2.333V51.856Z" transform="translate(-25.7 -43.3)" fill="#fff" fill-rule="evenodd"/>
              </g>
              <g id="Grupo_72" data-name="Grupo 72" transform="translate(38.891 2)">
                <path id="Trazado_63" data-name="Trazado 63" d="M46.667,49.756c0-4.445-2.333-6.556-5.667-6.556s-6,2.556-6,7c0,4.111,1.889,6.667,5.667,6.667C44,56.645,46.667,54.089,46.667,49.756Zm-2.556.111c0,3.111-1.778,4.445-3.334,4.445-2.222,0-3.222-1.778-3.222-4.556,0-3,1.556-4.445,3.334-4.445C42.889,45.422,44.112,46.978,44.112,49.867Z" transform="translate(-35 -43.2)" fill="#fff" fill-rule="evenodd"/>
              </g>
              <g id="Grupo_73" data-name="Grupo 73" transform="translate(52.558 2)">
                <path id="Trazado_64" data-name="Trazado 64" d="M56.189,56.423l-3-4.445c-.333-.444-.667-1-1-1.445A3.533,3.533,0,0,0,55.3,46.867c0-2.667-1.778-3.667-4.445-3.667a33.5,33.5,0,0,0-3.556.111V56.423h2.333V50.978h.111l3.445,5.445ZM52.856,47.2c0,1.222-.889,2-2.333,2h-.889V45.422c.222,0,.556-.111.889-.111C52.078,45.311,52.856,45.978,52.856,47.2Z" transform="translate(-47.3 -43.2)" fill="#fff" fill-rule="evenodd"/>
              </g>
            </g>
          </g>
          <g id="Grupo_109" data-name="Grupo 109" transform="translate(18.223)">
            <g id="Grupo_79" data-name="Grupo 79" transform="translate(12.778 10.667)">
              <g id="Grupo_77" data-name="Grupo 77" transform="translate(0 0.111)">
                <g id="Grupo_76" data-name="Grupo 76">
                  <path id="Trazado_65" data-name="Trazado 65" d="M27.9,19.034h0a7.7,7.7,0,0,0,1.667-4.667A7.226,7.226,0,0,0,27.9,9.7h0a7.7,7.7,0,0,1,1.667,4.667A7.069,7.069,0,0,1,27.9,19.034Z" transform="translate(-27.9 -9.7)" fill="#fff"/>
                </g>
              </g>
              <g id="Grupo_78" data-name="Grupo 78" transform="translate(0.111)">
                <path id="Trazado_66" data-name="Trazado 66" d="M28,19.045h0a5.273,5.273,0,0,0,3.334-4.778A5.075,5.075,0,0,0,28,9.6h0a5.188,5.188,0,0,1,3.334,4.667A5.394,5.394,0,0,1,28,19.045Z" transform="translate(-28 -9.6)" fill="#fff"/>
              </g>
            </g>
            <g id="Grupo_83" data-name="Grupo 83" transform="translate(9.445 10.667)">
              <g id="Grupo_81" data-name="Grupo 81" transform="translate(1.667 0.111)">
                <g id="Grupo_80" data-name="Grupo 80">
                  <path id="Trazado_67" data-name="Trazado 67" d="M28.067,19.034A7.7,7.7,0,0,1,26.4,14.367,7.226,7.226,0,0,1,28.067,9.7h0A7.7,7.7,0,0,0,26.4,14.367a9.442,9.442,0,0,0,1.667,4.667Z" transform="translate(-26.4 -9.7)" fill="#fff"/>
                </g>
              </g>
              <g id="Grupo_82" data-name="Grupo 82">
                <path id="Trazado_68" data-name="Trazado 68" d="M28.234,19.045A5.107,5.107,0,0,1,24.9,14.267,4.967,4.967,0,0,1,28.234,9.6h0A5.244,5.244,0,0,0,24.9,14.267a5.394,5.394,0,0,0,3.334,4.778Z" transform="translate(-24.9 -9.6)" fill="#fff"/>
              </g>
            </g>
            <g id="Grupo_84" data-name="Grupo 84" transform="translate(12.778 10.667)">
              <path id="Trazado_69" data-name="Trazado 69" d="M28.011,19.045H27.9V9.6h.111Z" transform="translate(-27.9 -9.6)" fill="#fff"/>
            </g>
            <g id="Grupo_85" data-name="Grupo 85" transform="translate(0.556 15.445)">
              <path id="Trazado_70" data-name="Trazado 70" d="M22.678,13.9H16.9l.778,5.556,2.778,4.222,4.556,3.445,4.111,1.333V20.234L26.789,19.9l-2.667-2L22.9,15.567Z" transform="translate(-16.9 -13.9)" fill="#fff" fill-rule="evenodd"/>
            </g>
            <g id="Grupo_86" data-name="Grupo 86" transform="translate(12.334 21.779)">
              <path id="Trazado_71" data-name="Trazado 71" d="M28.389,27.934H27.5V19.6h.889Z" transform="translate(-27.5 -19.6)" fill="#fff"/>
            </g>
            <g id="Grupo_87" data-name="Grupo 87" transform="translate(0.667 15.001)">
              <path id="Trazado_72" data-name="Trazado 72" d="M22.556,14.389H17V13.5h5.556Z" transform="translate(-17 -13.5)" fill="#fff"/>
            </g>
            <g id="Grupo_88" data-name="Grupo 88" transform="translate(6.223 8.556)">
              <path id="Trazado_73" data-name="Trazado 73" d="M28.556,21.034A6.592,6.592,0,0,1,22,14.367,6.664,6.664,0,0,1,28.556,7.7a6.592,6.592,0,0,1,6.556,6.667,6.523,6.523,0,0,1-6.556,6.667Zm0-12.778a6.166,6.166,0,0,0-6.111,6.111,6.094,6.094,0,0,0,6.111,6.111,6.111,6.111,0,1,0,0-12.223Z" transform="translate(-22 -7.7)" fill="#fff"/>
            </g>
            <g id="Grupo_89" data-name="Grupo 89" transform="translate(14.667 15.917)">
              <path id="Trazado_74" data-name="Trazado 74" d="M29.922,14.408h0l.222.444H29.7l.444.111-.333.333h0l.444-.222v.444h0l.111-.444.333.333h0l-.111-.333h.444l-.444-.111.333-.333h0l-.444.222v-.444h0l-.111.444Z" transform="translate(-29.589 -14.325)" fill="#fff" fill-rule="evenodd"/>
              <path id="Trazado_75" data-name="Trazado 75" d="M30.267,15.733h0l-.111-.444-.444.222h0l.333-.444-.444-.111h.444l-.222-.444h0l.333.222.111-.333h0v.444l.444-.222h0l-.222.333.333.111h-.444l.222.333v.111h0l-.333-.222v.444Zm0-.556v.444l.111-.444.333.333-.111-.444h.444l-.444-.111.333-.333-.444.222V14.4l-.111.444-.333-.333.222.444h-.444l.444.111-.333.333.333-.222Z" transform="translate(-29.6 -14.317)" fill="#fff"/>
            </g>
            <g id="Grupo_90" data-name="Grupo 90" transform="translate(11.445 12.001)">
              <path id="Trazado_76" data-name="Trazado 76" d="M26.922,10.9h0l.111.333H26.7l.333.111-.222.333h0l.333-.111V11.9h0l.111-.333.222.222h0l-.111-.333H27.7l-.333-.111.222-.222h0l-.333.111V10.9h0l-.111.333Z" transform="translate(-26.7 -10.789)" fill="#fff" fill-rule="evenodd"/>
              <path id="Trazado_77" data-name="Trazado 77" d="M27.256,12.022h0l-.111-.333-.333.111h0l.222-.333-.333-.111h.333l-.111-.333h.111l.222.222.111-.333h0v.333l.333-.111h0l-.222.222.333.111h-.333l.111.333h-.111l-.222-.222v.444Zm0-.444v.333l.111-.333.333.222-.222-.333h.333l-.333-.111.222-.333-.333.222V10.8l-.111.333-.333-.222.222.333H26.7l.333.111-.222.333.444-.111Z" transform="translate(-26.7 -10.8)" fill="#fff"/>
            </g>
            <g id="Grupo_91" data-name="Grupo 91" transform="translate(9.667 16.89)">
              <path id="Trazado_78" data-name="Trazado 78" d="M25.422,15.3h0l.111.333H25.2l.333.111-.222.333h0l.333-.111V16.3h0l.111-.333.222.222h0l-.111-.333H26.2l-.333-.111.222-.222h0l-.333.111V15.3h0l-.111.333Z" transform="translate(-25.089 -15.189)" fill="#fff" fill-rule="evenodd"/>
              <path id="Trazado_79" data-name="Trazado 79" d="M25.767,16.422h0l-.111-.333-.333.111h0l.222-.333-.333-.111h.333l-.111-.333h.111l.222.222.111-.333h0v.333l.333-.111h0l-.111.222.333.111H26.1l.111.333H26.1l-.222-.111-.111.333Zm-.111-.444v.333l.111-.333.333.222-.222-.333h.333l-.333-.111.222-.333-.333.222V15.2l-.111.333-.333-.222.222.333H25.1l.333.111-.111.333.333-.111Z" transform="translate(-25.1 -15.2)" fill="#fff"/>
            </g>
            <g id="Grupo_92" data-name="Grupo 92" transform="translate(12.778 18.223)">
              <path id="Trazado_80" data-name="Trazado 80" d="M28.122,16.508h0l.111.333H27.9l.333.111-.222.333h0l.333-.111v.333h0l.111-.333.222.222h0v-.333h.333l-.333-.111.222-.222h0l-.333.111v-.333h0l-.111.333Z" transform="translate(-27.9 -16.397)" fill="#fff" fill-rule="evenodd"/>
              <path id="Trazado_81" data-name="Trazado 81" d="M28.456,17.511h0l-.111-.333-.333.111h0l.222-.333-.333-.111h.333l-.111-.333h0l.222.222.111-.333h0v.333l.333-.111h0l-.222.222.333.111h-.333l.111.333h-.111l-.222-.222.111.444Zm0-.444V17.4l.111-.333.333.222-.222-.222h.333l-.333-.111.222-.333-.333.222V16.4l-.111.333-.333-.222.222.333H27.9l.333.111-.222.333.444-.222Z" transform="translate(-27.9 -16.4)" fill="#fff"/>
            </g>
            <g id="Grupo_93" data-name="Grupo 93" transform="translate(9.445 12.223)">
              <path id="Trazado_82" data-name="Trazado 82" d="M28.234,11.667A10.382,10.382,0,0,1,24.9,11h0a10.382,10.382,0,0,0,3.334.667A10.382,10.382,0,0,0,31.567,11h0a9.851,9.851,0,0,1-3.334.667Z" transform="translate(-24.9 -11)" fill="#fff"/>
            </g>
            <g id="Grupo_94" data-name="Grupo 94" transform="translate(8.223 15.334)">
              <path id="Trazado_83" data-name="Trazado 83" d="M32.912,13.8h0Z" transform="translate(-23.8 -13.8)" fill="#fff"/>
            </g>
            <g id="Grupo_95" data-name="Grupo 95" transform="translate(8.667 13.556)">
              <path id="Trazado_84" data-name="Trazado 84" d="M28.422,12.867h0A13.392,13.392,0,0,1,24.2,12.2h0a25.948,25.948,0,0,0,4.222.667h0a13.8,13.8,0,0,0,4.111-.667h0a11.388,11.388,0,0,1-4.111.667Z" transform="translate(-24.2 -12.2)" fill="#fff"/>
            </g>
            <g id="Grupo_96" data-name="Grupo 96" transform="translate(10.778 19.112)">
              <path id="Trazado_85" data-name="Trazado 85" d="M26.1,17.644h0a4.539,4.539,0,0,1,2-.444,6.838,6.838,0,0,1,2,.333h0a6.838,6.838,0,0,0-2-.333,18.1,18.1,0,0,0-2,.444Z" transform="translate(-26.1 -17.2)" fill="#fff"/>
            </g>
            <g id="Grupo_97" data-name="Grupo 97" transform="translate(9.445 17.89)">
              <path id="Trazado_86" data-name="Trazado 86" d="M24.9,16.767h0a9.851,9.851,0,0,1,3.334-.667,10.382,10.382,0,0,1,3.334.667h0a10.382,10.382,0,0,0-3.334-.667,10.382,10.382,0,0,0-3.334.667Z" transform="translate(-24.9 -16.1)" fill="#fff"/>
            </g>
            <g id="Grupo_98" data-name="Grupo 98" transform="translate(8.667 16.556)">
              <path id="Trazado_87" data-name="Trazado 87" d="M24.2,15.567h0a13.392,13.392,0,0,1,4.222-.667h0a13.583,13.583,0,0,1,4.111.556h0a14.133,14.133,0,0,0-4.111-.556h0a12.836,12.836,0,0,0-4.222.667Z" transform="translate(-24.2 -14.9)" fill="#fff"/>
            </g>
            <g id="Grupo_99" data-name="Grupo 99" transform="translate(10.889 11.223)">
              <path id="Trazado_88" data-name="Trazado 88" d="M28.089,10.544a5.045,5.045,0,0,1-1.889-.333h0c.778.222,1.667.222,1.889.333a4.582,4.582,0,0,0,1.889-.444h0a4.233,4.233,0,0,1-1.889.444Z" transform="translate(-26.2 -10.1)" fill="#fff"/>
            </g>
            <g id="Grupo_100" data-name="Grupo 100" transform="translate(0 2.667)">
              <path id="Trazado_89" data-name="Trazado 89" d="M29.178,30.179h0c-.222,0-12.778-2.111-12.778-15V2.4H26.512v1H17.289V15.29c0,11.667,10.667,13.778,11.778,14,12.667-2.667,11.667-13.556,11.667-14h0v-12h-9V2.4h9.889V15.29c.111.556.889,12.223-12.445,14.89Z" transform="translate(-16.4 -2.4)" fill="#fff"/>
            </g>
            <g id="Grupo_101" data-name="Grupo 101" transform="translate(19.223 15.001)">
              <path id="Trazado_90" data-name="Trazado 90" d="M39.256,14.389H33.7V13.5h5.556Z" transform="translate(-33.7 -13.5)" fill="#fff"/>
            </g>
            <g id="Grupo_102" data-name="Grupo 102" transform="translate(7 9.445)">
              <path id="Trazado_91" data-name="Trazado 91" d="M23.8,14.478a4.667,4.667,0,1,1,4.667,4.667A4.7,4.7,0,0,1,23.8,14.478Zm8.112,4.445-.667-.222v.667l-.667-.333-.111.667-.556-.444-.222.667-.444-.556-.333.667-.444-.556-.333.667-.333-.667-.333.556-.222-.667-.556.444-.111-.667-.556.444v-.667l-.667.333.111-.667-.667.222.111-.667-.778-.111.222-.667h-.667l.333-.667-.667-.111.444-.556-.778-.111.556-.556-.667-.222.556-.444-.667-.333.667-.333-.556-.444.667-.222-.556-.556.667-.222-.444-.556.667-.111-.333-.667h.667l-.111-.556.667.111-.111-.667.667.222L25.245,9.7l.667.333V9.367l.556.444.111-.667.556.444.333-.778.444.556.333-.667.333.667.444-.556.333.667.444-.556.222.667.556-.444.111.667.667-.333v.667l.556-.222-.111.667.667-.222-.222.667.667-.111-.333.667h.667l-.111.778.667.111-.444.556.667.222-.556.444.667.333-.556.444.556.444-.667.333.556.444-.667.222.444.556-.667.111.333.556H32.8l.333.667-.667-.111.222.667-.667-.222Z" transform="translate(-22.689 -8.478)" fill="#fff" fill-rule="evenodd"/>
              <path id="Trazado_92" data-name="Trazado 92" d="M28.256,20.278l-.333-.667-.444.556-.222-.667-.556.556-.111-.778-.556.444v-.778l-.778.333.111-.778-.667.222.111-.778-.667.111.222-.667h-.778l.333-.667-.778.111.444-.556-.667-.222.556-.556-.667-.222.556-.444L22.7,14.5l.667-.333-.556-.444.667-.222-.556-.556.667-.222-.444-.556.778-.111-.333-.778h.778l-.222-.667.667.111-.111-.667.667.222-.111-.667.667.333V9.167l.556.444.111-.778.556.556.333-.778.444.556.333-.667.333.667.444-.556.333.667.556-.556.222.667.556-.444.111.778.667-.333v.778l.667-.333-.222.667.667-.222-.222.667.778-.111-.333.667h.778l-.444.667.778.111-.444.556.667.222-.556.444.667.333-.667.444.667.444-.667.333.556.444-.667.222.444.556-.778.111.444.667h-.778l.333.667-.778-.111.222.667h-.667l.111.778-.667-.333V19.5l-.556-.444-.111.778-.556-.444-.222.667-.556-.556-.333.667-.444-.556-.333.667Zm-.222-1,.333.667.333-.556.444.556.222-.667.444.556.222-.667.556.444.111-.667.556.333v-.667l.667.222-.111-.667.667.222-.222-.667.667.111-.333-.667h.667l-.333-.556.667-.111-.444-.778.667-.222-.556-.444.667-.333-.556-.333.556-.333-.667-.333.556-.444-.667-.222.444-.556-.667-.111.333-.556h-.667l.333-.667-.667.111.222-.667-.667.222.111-.778-.667.222V9.611l-.556.333-.111-.667-.556.444-.222-.667-.444.556-.222-.667L28.7,9.5l-.333-.556-.333.667-.444-.556-.222.667-.556-.444-.111.667L26.145,9.5v.667l-.667-.333V10.5l-.667-.222.111.667-.667-.111.222.667h-.667l.333.667-.667.111.444.556-.667.111.444.444-.667.222.556.444-.556.333.556.333-.556.444.667.222-.444.444.667.111-.444.556.667.111-.333.667h.667l-.222.667.667-.111-.111.667.667-.222-.111.667.667-.333v.667l.556-.444.111.667.556-.444.222.667.556-.444Zm.444,0A4.778,4.778,0,1,1,33.256,14.5a4.889,4.889,0,0,1-4.778,4.778Zm0-9.445A4.6,4.6,0,0,0,23.922,14.5a4.674,4.674,0,0,0,4.556,4.667,4.668,4.668,0,0,0,0-9.334Z" transform="translate(-22.7 -8.5)" fill="#fff"/>
            </g>
            <g id="Grupo_103" data-name="Grupo 103" transform="translate(9.667)">
              <path id="Trazado_93" data-name="Trazado 93" d="M28.1,6h-.111A3.037,3.037,0,0,1,25.1,3a3.122,3.122,0,0,1,2.889-3H28.1a2.964,2.964,0,0,1,2.889,3A2.959,2.959,0,0,1,28.1,6Zm0-5.222A2.222,2.222,0,1,0,30.322,3,2.229,2.229,0,0,0,28.1.778Z" transform="translate(-25.1)" fill="#fff"/>
            </g>
            <g id="Grupo_104" data-name="Grupo 104" transform="translate(12.817 1.662)">
              <path id="Trazado_94" data-name="Trazado 94" d="M28.218,1.612c-.222.111-.222.556-.111.778a.661.661,0,0,0,.778.333,1.109,1.109,0,0,1-.556-.444s0-.333.111-.444a.308.308,0,0,1,.444,0,.208.208,0,0,1,0,.333.388.388,0,0,1-.222.111c.111-.111.111-.111,0-.222s-.111-.111-.222,0c0,0-.111.111,0,.111a.355.355,0,0,0,.333.333c.111,0,.111-.111.222-.111a.367.367,0,0,0,0-.556C28.774,1.5,28.441,1.389,28.218,1.612Z" transform="translate(-27.923 -1.496)" fill="#fff" fill-rule="evenodd"/>
              <path id="Trazado_95" data-name="Trazado 95" d="M28.674,2.722a.95.95,0,0,1-.667-.333.684.684,0,0,1,.111-.778.408.408,0,0,1,.333-.111.577.577,0,0,1,.444.222.417.417,0,0,1,0,.667c-.111.111-.111.111-.222.111h-.111c-.111,0-.111,0-.222-.111s-.111-.111-.111-.222a.109.109,0,0,1,.111-.111c.111-.111.222-.111.222,0v.222h.111a.208.208,0,0,0,0-.333.278.278,0,0,0-.444,0c-.111.111-.111.444-.111.444,0,.222.222.333.556.444h0c.111-.111.111-.111,0-.111ZM28.563,1.5a.408.408,0,0,0-.333.111.536.536,0,0,0-.111.667.766.766,0,0,0,.556.333c-.222-.111-.444-.222-.444-.444,0,0,0-.333.111-.444a.388.388,0,0,1,.222-.111c.111,0,.111,0,.222.111a.408.408,0,0,1,.111.333.388.388,0,0,1-.222.111h0V1.944h-.222v.111c0,.111,0,.111.111.222a.388.388,0,0,0,.222.111H28.9a.344.344,0,0,0,.222-.111.816.816,0,0,0-.222-.667,1.119,1.119,0,0,0-.333-.111Z" transform="translate(-27.934 -1.495)" fill="#fff"/>
            </g>
            <g id="Grupo_105" data-name="Grupo 105" transform="translate(10.667 6.111)">
              <path id="Trazado_96" data-name="Trazado 96" d="M28,7.722a.239.239,0,0,1-.222-.222c0-.111,0-.111.111-.222V7.167c-.111.111-.222.111-.222,0-.111,0-.111-.111,0-.222h.111V6.722h-.333V6.5h-.333v.222h-.333V6.5h-.333v.222H26V5.5h.333v.444h.333V5.5H27v.444h.333V5.5H28A14.837,14.837,0,0,1,28,7.722Z" transform="translate(-26 -5.5)" fill="#fff" fill-rule="evenodd"/>
              <path id="Trazado_97" data-name="Trazado 97" d="M28,7.722a.239.239,0,0,1-.222-.222c0-.111,0-.222.111-.222h0c-.111.111-.222.111-.222,0V7.056h.111V6.722h-.333V6.611h-.333v.222h-.333V6.611h-.333v.222H26V5.5h.444v.444h.333V5.5h.333v.444h.333V5.5h.667A13.471,13.471,0,0,1,28,7.722Zm-.111-.556v.222c-.111,0-.111.111-.111.222s.111.111.222.111A6.945,6.945,0,0,0,28,5.5h-.556v.444h-.333V5.5h-.333v.444h-.333V5.5H26V6.722h.333V6.5h.333v.222H27V6.5h.333v.222h.333l.222.444-.111-.111h-.111v.222a.344.344,0,0,0,.222-.111Z" transform="translate(-26 -5.5)" fill="#fff"/>
            </g>
            <g id="Grupo_106" data-name="Grupo 106" transform="translate(12.84 1)">
              <path id="Trazado_98" data-name="Trazado 98" d="M28.116,6.011V4.789a.5.5,0,0,1,.333-.444l.111.111c.111.111.222-.111.222-.222a.4.4,0,0,0-.333-.222A1.551,1.551,0,0,0,28,4.567V3.678h.111a.208.208,0,0,0,.333,0h.222a.111.111,0,1,0,0-.222h-.222a.208.208,0,0,0-.333,0H28V3.345a.367.367,0,0,0,0-.556v-1c0-.111.222-.333.222-.333h.111l.111-.111h-.111a.239.239,0,0,0-.222.222V1.233a.109.109,0,0,0,.111-.111c0-.111,0-.222-.222-.222-.111.444,0,5.222,0,5.222h.111Z" transform="translate(-27.956 -0.9)" fill="#fff" fill-rule="evenodd"/>
            </g>
            <g id="Grupo_107" data-name="Grupo 107" transform="translate(9.975 0.333)">
              <path id="Trazado_99" data-name="Trazado 99" d="M27.625,1.745a.684.684,0,0,1,.111.778.661.661,0,0,1-.778.333,1.109,1.109,0,0,0,.556-.444s0-.333-.111-.444a.308.308,0,0,0-.444,0,.208.208,0,0,0,0,.333.388.388,0,0,0,.222.111c-.111-.111-.111-.111,0-.222s.111-.111.222,0c0,0,.111.111,0,.111a.355.355,0,0,1-.333.333c-.111,0-.111-.111-.222-.111a.367.367,0,0,1,0-.556A.477.477,0,0,1,27.625,1.745Zm.222,4.334V4.856a.5.5,0,0,0-.333-.444l-.111.111c-.111,0-.222-.111-.111-.222a.4.4,0,0,1,.333-.222,1.551,1.551,0,0,1,.444.556V3.745h-.111a.208.208,0,0,1-.333,0H27.4a.111.111,0,0,1,0-.222h.222a.208.208,0,0,1,.333,0h.111V3.3a.367.367,0,0,1,0-.556V1.856c0-.111-.222-.333-.222-.333h-.111l-.111-.111h.111a.239.239,0,0,1,.222.222V1.189a.109.109,0,0,1-.111-.111c0-.111.111-.222.333-.222.111.444,0,5.222,0,5.222Zm.222-.444s-3-.556-2.667-2.667A2.866,2.866,0,0,1,28.069.3C28.181.633,28.069,5.634,28.069,5.634Z" transform="translate(-25.377 -0.3)" fill="#fff" fill-rule="evenodd"/>
            </g>
            <g id="Grupo_108" data-name="Grupo 108" transform="translate(12.667 3.111)">
              <path id="Trazado_100" data-name="Trazado 100" d="M27.8,4.911h.222V5.8h.333v.444h.333V5.8h.333v.444h.333V5.8h.333V7.022h-.333V6.8h-.333v.222h-.333V6.8h-.333v.222h-.333v.333h.111c.111.111.111.111,0,.222s-.222.111-.222,0v.111a.109.109,0,0,1,.111.111c0,.111-.111.111-.222.111ZM30.467,2.8l-.444,1.333-1,1H27.911V8.578l2.333.333L32.8,10.689l.778,1.222.667,1.445.111,1.778h5.778V2.8Z" transform="translate(-27.8 -2.8)" fill="#fff" fill-rule="evenodd"/>
            </g>
          </g>
        </g>
      </g>
      <line id="Línea_3" data-name="Línea 3" x2="163.453" transform="translate(83.226 24.446)" fill="none" stroke="#fff" stroke-miterlimit="10" stroke-width="0.852"/>
      <line id="Línea_4" data-name="Línea 4" x2="163.453" transform="translate(83.226 60.003)" fill="none" stroke="#fff" stroke-miterlimit="10" stroke-width="0.852"/>
    </g>
    <line id="Línea_75" data-name="Línea 75" y2="74" transform="translate(1534.5 971.5)" fill="none" stroke="#fff" stroke-width="1" opacity="0.213"/>
  </g>
</svg>
