<?xml version="1.0" encoding="UTF-8"?>
<svg xmlns="http://www.w3.org/2000/svg" viewBox="0 0 241.47 52.43">
  <defs>
    <style>.cls-1,.cls-2{fill:#222220;}.cls-1{fill-rule:evenodd;}.cls-3{fill:none;stroke:#000;stroke-miterlimit:10;stroke-width:0.41px;}</style>
  </defs>
  <title>logo-umayor-vri</title>
  <g id="Capa_2" data-name="Capa 2">
    <g id="Capa_1-2" data-name="Capa 1">
      <path class="cls-1" d="M5.94,33V28.17H4.52V33c0,1.33-.46,1.82-1.55,1.82-1.24,0-1.54-.7-1.54-1.68v-5H0v5.1c0,1.49.53,2.83,2.87,2.83C4.82,36.1,5.94,35.09,5.94,33Z"></path>
      <path class="cls-1" d="M11.79,36V29.4H10.63v2c0,.81,0,2,.06,2.65-.23-.5-.48-1.05-.77-1.55L8.18,29.4H6.62V36H7.78V33.63c0-.79,0-1.82,0-2.39a14.61,14.61,0,0,0,.67,1.41L10.24,36Z"></path>
      <rect class="cls-2" x="12.56" y="29.4" width="1.2" height="6.58"></rect>
      <path class="cls-1" d="M19.85,29.4H18.61l-1.23,3.77c-.17.56-.28.92-.37,1.36h0c-.11-.47-.25-.91-.37-1.28L15.41,29.4H14.09L16.27,36h1.39Z"></path>
      <polygon class="cls-1" points="23.59 35.98 23.59 34.9 21.39 34.9 21.39 33.11 23.48 33.11 23.48 32.08 21.39 32.08 21.39 30.46 23.59 30.46 23.59 29.4 20.19 29.4 20.19 35.98 23.59 35.98"></polygon>
      <path class="cls-1" d="M28.71,36l-1.5-2.22L26.7,33a1.8,1.8,0,0,0,1.59-1.83c0-1.35-.89-1.85-2.27-1.85-.72,0-1.3,0-1.8,0V36h1.21V33.26h0L27.22,36ZM27,31.34c0,.61-.44,1-1.17,1l-.43,0v-1.9a3.09,3.09,0,0,1,.47,0C26.66,30.39,27,30.7,27,31.34Z"></path>
      <path class="cls-1" d="M32.76,33.94c0-2.06-2.63-1.62-2.63-2.8,0-.47.35-.8,1.05-.8a3.8,3.8,0,0,1,1.12.18l.06-1.11a6.39,6.39,0,0,0-1.13-.12c-1.5,0-2.38.81-2.38,2,0,2.16,2.62,1.59,2.62,2.85,0,.6-.47.86-1.08.86a4.13,4.13,0,0,1-1.31-.23L29,35.93a4.78,4.78,0,0,0,1.28.15A2.19,2.19,0,0,0,32.76,33.94Z"></path>
      <rect class="cls-2" x="33.26" y="29.4" width="1.2" height="6.58"></rect>
      <path class="cls-1" d="M40.6,32.58c0-2.32-1.23-3.22-3.17-3.22-.77,0-1.53,0-2,.05V36c.53,0,1.1.05,1.74.05A3.17,3.17,0,0,0,40.6,32.58Zm-1.3.09c0,1.56-.85,2.27-2,2.27a5.39,5.39,0,0,1-.65,0V30.45c.19,0,.45,0,.73,0C38.77,30.42,39.3,31.26,39.3,32.67Z"></path>
      <path class="cls-1" d="M46.39,36,44.16,29.4H42.79L40.61,36h1.21l.44-1.35h2.36L45.05,36ZM44.3,33.63H42.56L43.13,32a11.3,11.3,0,0,0,.29-1.1h0a9.6,9.6,0,0,0,.29,1Z"></path>
      <path class="cls-1" d="M51.89,32.58c0-2.32-1.23-3.22-3.17-3.22-.77,0-1.53,0-2,.05V36c.53,0,1.1.05,1.74.05A3.17,3.17,0,0,0,51.89,32.58Zm-1.3.09c0,1.56-.85,2.27-2,2.27a5.39,5.39,0,0,1-.65,0V30.45c.19,0,.45,0,.73,0C50.06,30.42,50.59,31.26,50.59,32.67Z"></path>
      <path class="cls-1" d="M14.76,52,12.87,39.23H10.15L8.06,45.84a20.19,20.19,0,0,0-.68,2.65h0a20.28,20.28,0,0,0-.66-2.69l-2-6.57H1.91L0,52H2.41l.69-5.89c.14-1.12.27-2.12.34-3.26h0a21.23,21.23,0,0,0,.78,3.22L6.1,52H8.42l1.93-6.42c.31-1,.5-1.91.67-2.73h0c.09.89.2,1.84.38,3l.86,6.1Z"></path>
      <path class="cls-1" d="M25.4,52,21.62,40.86H19.31L15.61,52h2.05l.74-2.28h4L23.14,52Zm-3.53-4H18.92l1-2.84c.2-.64.37-1.29.5-1.87h0a15.78,15.78,0,0,0,.49,1.79Z"></path>
      <path class="cls-1" d="M33.14,40.86H31l-1.33,3c-.32.71-.63,1.42-.85,2.07h0c-.2-.58-.44-1.19-.72-1.85l-1.4-3.21H24.41l3.31,7.22V52h2V48.07Z"></path>
      <path class="cls-1" d="M43.27,46.28c0-3.82-2-5.6-4.82-5.6s-5.18,2.21-5.18,5.9c0,3.45,1.59,5.62,4.82,5.62C41,52.2,43.27,50,43.27,46.28Zm-2.18.17c0,2.67-1.48,3.8-2.86,3.8-1.9,0-2.78-1.54-2.78-3.9s1.35-3.74,2.81-3.74C40.08,42.61,41.09,44,41.09,46.45Z"></path>
      <path class="cls-1" d="M52.56,52,50,48.26c-.27-.38-.57-.81-.87-1.22a3.06,3.06,0,0,0,2.7-3.11c0-2.28-1.5-3.14-3.84-3.14-1.23,0-2.22,0-3,.07V52h2V47.4h.08L50,52Zm-2.84-7.86c0,1-.76,1.7-2,1.7-.31,0-.6,0-.74,0V42.6a4.68,4.68,0,0,1,.8-.05C49.09,42.55,49.72,43.08,49.72,44.15Z"></path>
      <path class="cls-2" d="M26.56,17.07l0,0a6.19,6.19,0,0,0,0-8l0,0a6.21,6.21,0,0,1,0,8Z"></path>
      <path class="cls-2" d="M26.59,17.06v0a4.34,4.34,0,0,0,2.83-4,4.38,4.38,0,0,0-2.83-4V9a4.42,4.42,0,0,1,2.86,4,4.38,4.38,0,0,1-2.86,4Z"></path>
      <path class="cls-2" d="M26.58,17.07a6.21,6.21,0,0,1,0-8l0,0a6.19,6.19,0,0,0,0,8l0,0Z"></path>
      <path class="cls-2" d="M26.55,17.06a4.38,4.38,0,0,1-2.86-4,4.42,4.42,0,0,1,2.86-4v0a4.38,4.38,0,0,0-2.83,4,4.34,4.34,0,0,0,2.83,4v0Z"></path>
      <polygon class="cls-2" points="26.59 17.04 26.55 17.04 26.55 9.1 26.59 9.1 26.59 17.04 26.59 17.04"></polygon>
      <polygon class="cls-1" points="21.04 13.11 16.05 13.11 16.78 17.82 19.09 21.44 23.02 24.33 26.53 25.46 26.53 18.49 24.54 18.18 22.27 16.55 21.25 14.53 21.04 13.11"></polygon>
      <polygon class="cls-2" points="26.89 25.54 26.16 25.54 26.16 18.48 26.89 18.48 26.89 25.54 26.89 25.54"></polygon>
      <polygon class="cls-2" points="20.94 13.49 16.19 13.49 16.19 12.76 20.94 12.76 20.94 13.49 20.94 13.49"></polygon>
      <path class="cls-2" d="M26.53,18.62A5.64,5.64,0,1,1,32.17,13a5.65,5.65,0,0,1-5.64,5.64Zm0-10.87A5.24,5.24,0,1,0,31.76,13a5.23,5.23,0,0,0-5.23-5.23Z"></path>
      <path class="cls-1" d="M28.43,13.54s0,0,0,0h0v0l.17.35-.39,0h0s0,0,0,0,0,0,0,0l.37.14-.25.3,0,0s0,0,0,0l.36-.16,0,.37v0h0s0,0,0,0l.12-.35.29.24,0,0s0,0,0,0L29,14.17l.38,0h0L29,14l.24-.28,0,0h0l-.35.16,0-.39s0,0,0,0h0s0,0,0,0l-.13.35Z"></path>
      <path class="cls-2" d="M28.71,14.68h0v0l0-.37-.37.16a0,0,0,0,1,0,0,0,0,0,0,1,0,0l.23-.28L28.17,14s0,0,0,0h0l0,0h0l.36,0-.17-.35a0,0,0,0,1,0,0l0,0,.27.22.12-.33a.05.05,0,0,1,0,0h0l0,0,0,.39.35-.16s0,0,0,0h0l0,0-.23.27.33.13s0,0,0,0l0,0h0l-.35,0,.15.32a0,0,0,0,1,0,.05h0a.07.07,0,0,1,0,0l-.27-.22-.12.32a0,0,0,0,1,0,0Zm0-.45,0,.38.13-.36.31.26L29,14.15l.41,0L29,14l.27-.31-.37.18,0-.42-.13.39-.32-.26.19.37-.42,0,.4.14-.27.32.37-.18Z"></path>
      <path class="cls-1" d="M25.63,10.28s0,0,0,0h0s0,0,0,0l.13.28-.31,0h0l0,0,.3.1-.2.25,0,0a0,0,0,0,0,0,0l.29-.13,0,.3v0h0s0,0,0,0l.1-.28.24.19,0,0s0,0,0,0l-.12-.27.3,0h0l-.29-.11.2-.23a0,0,0,0,0,0,0h0L26,10.5l0-.31s0,0,0,0h0v0l-.1.28Z"></path>
      <path class="cls-2" d="M25.85,11.19h0l0,0,0-.29-.3.13,0,0,.2-.25-.3-.12v0h0l.31,0-.13-.29h.06l.21.17.12-.29h0l0,0,0,.3.29-.12,0,0,0,0-.18.21.29.13v0h0l-.29,0,.12.28h-.06L26,10.9l-.12.29Zm0-.37,0,.3.1-.28.25.21-.16-.29.33,0-.31-.1.22-.25-.3.15,0-.34-.09.32-.26-.22.16.3-.34,0,.32.11-.22.26.3-.16Z"></path>
      <path class="cls-1" d="M24.18,14.44l0,0h0v0l.13.28-.31,0h0l.29.11-.2.24s0,0,0,0,0,0,0,0l.29-.13,0,.29v0h0l0,0,.1-.28.23.19s0,0,0,0,0,0,0,0l-.13-.27.3,0h0l-.28-.11.19-.23,0,0h0l-.28.13,0-.31s0,0,0,0h0s0,0,0,0l-.11.29Z"></path>
      <path class="cls-2" d="M24.4,15.35h0v0l0-.29-.3.13,0,0,.21-.25-.31-.12v0l0,0,.31,0-.13-.29h.06l.21.17.12-.29h0v0l0,.31.3-.13v0l0,0-.18.21.3.12,0,0-.3,0,.12.29h-.06l-.2-.17-.13.29Zm0-.37,0,.3.1-.29.25.22-.15-.29.33,0-.32-.1.22-.25-.29.15,0-.34-.1.31-.25-.21.16.3-.35,0,.32.1-.21.26.3-.15Z"></path>
      <path class="cls-1" d="M26.77,15.52h0v0l.14.27-.32,0h0l.29.11-.2.24a0,0,0,0,0,0,0h0l.29-.14,0,.3s0,0,0,0,0,0,0,0v0l.1-.28.23.2h0s0,0,0,0L27.23,16l.3,0h0l-.29-.11.2-.22v0h0l-.27.12,0-.31v0h0s0,0,0,0l-.11.28Z"></path>
      <path class="cls-2" d="M27,16.43h0v0l0-.29-.3.13v0l.2-.24-.3-.13v0h0l.32,0-.13-.27,0,0,0,0,.2.17.12-.29h0l0,0,0,.3.3-.12v0l0,0-.18.21.3.13v0h0l-.3,0,.12.28h-.05l-.21-.17-.12.28Zm0-.37,0,.3.1-.28.25.21L27.2,16l.33,0-.32-.11.22-.25-.29.15,0-.33-.1.31-.25-.21.16.29-.35,0,.33.1-.22.26.3-.16Z"></path>
      <path class="cls-2" d="M26.57,11a9.23,9.23,0,0,1-2.86-.55l0,0a9.12,9.12,0,0,0,2.84.55,9.16,9.16,0,0,0,2.82-.55v0a9.17,9.17,0,0,1-2.83.55Z"></path>
      <polygon class="cls-2" points="30.42 13.04 22.64 13.04 22.64 12.99 30.42 12.99 30.42 13.04 30.42 13.04"></polygon>
      <path class="cls-2" d="M26.59,12.06h0a12.11,12.11,0,0,1-3.6-.55v0a12.41,12.41,0,0,0,3.59.54h0a11.5,11.5,0,0,0,3.52-.51v0a11.57,11.57,0,0,1-3.53.51Z"></path>
      <path class="cls-2" d="M24.84,16.62l0,0a4.79,4.79,0,0,1,1.73-.34,5.09,5.09,0,0,1,1.71.32l0,0a4.71,4.71,0,0,0-1.69-.32,4.6,4.6,0,0,0-1.71.33Z"></path>
      <path class="cls-2" d="M23.69,15.75l0,0a8.81,8.81,0,0,1,2.9-.58,9,9,0,0,1,2.85.56l0,0a9.41,9.41,0,0,0-2.83-.55,8.93,8.93,0,0,0-2.88.57Z"></path>
      <path class="cls-2" d="M23,14.65l0,0a12.46,12.46,0,0,1,3.61-.55h0a11.31,11.31,0,0,1,3.54.52l0,0a11.46,11.46,0,0,0-3.52-.51h0a12.31,12.31,0,0,0-3.59.55Z"></path>
      <path class="cls-2" d="M26.55,9.87a4.78,4.78,0,0,1-1.65-.3l0,0a4.66,4.66,0,0,0,1.63.3,4.89,4.89,0,0,0,1.64-.3v0a5,5,0,0,1-1.65.3Z"></path>
      <path class="cls-2" d="M26.54,25.85h-.07c-.11,0-10.85-1.76-10.85-12.71V2.24H24.3v.82H16.44V13.13c0,9.9,9.11,11.72,10.08,11.89,10.76-2.19,10-11.42,9.92-11.81V3.06H28.76V2.24h8.5V13.15c0,.57.65,10.43-10.65,12.69Z"></path>
      <polygon class="cls-2" points="36.83 13.49 32.08 13.49 32.08 12.76 36.83 12.76 36.83 13.49 36.83 13.49"></polygon>
      <path class="cls-1" d="M22.52,13.08a4,4,0,1,1,4,4A4,4,0,0,1,22.52,13.08Zm7,3.76L29,16.61v.61l-.52-.31-.08.6-.48-.38-.16.59-.42-.44-.25.56-.35-.5-.32.52-.28-.54-.39.47-.2-.57-.45.41-.13-.6-.5.35,0-.61-.54.27,0-.61-.58.19.13-.59-.6.11.21-.57-.61,0,.29-.53-.6-.06.36-.49-.6-.14.43-.44-.57-.22.49-.37L21.72,13l.53-.3-.49-.37.57-.22-.43-.44.6-.14-.36-.49.6-.06-.29-.54.61,0-.21-.57.6.11-.13-.6.58.2,0-.61.54.27,0-.61.5.35.13-.6.45.41.2-.57.39.47.28-.54.32.52.35-.5.25.56.42-.44.16.59.48-.39.08.61L29,8.85v.61l.56-.23-.09.6L30,9.68l-.17.58.61-.06-.26.55.62,0-.33.51.6.1-.4.47.59.18-.46.4.55.27-.51.33.51.34-.55.26.46.41-.59.18.4.47-.6.1.33.51-.62,0,.26.55-.61-.07.17.59-.59-.15Z"></path>
      <path class="cls-2" d="M26.38,18l-.29-.56-.4.48-.21-.59-.47.43-.12-.62-.52.36,0-.63-.56.28.05-.62-.59.2.13-.62-.62.12.22-.59-.62,0,.3-.56L22,15.05l.38-.5-.62-.15.45-.44-.59-.23.5-.39L21.58,13l.55-.31-.5-.38.59-.23-.45-.44.62-.15L22,11l.63-.06-.3-.55.62,0-.22-.59.62.12-.13-.62.59.2-.05-.62.56.28,0-.63.52.36L25,8.31l.47.43.21-.6.4.49.29-.56.32.54.37-.51.25.57.43-.45.17.6.49-.39.08.62L29,8.73v.63l.58-.24-.1.62.61-.16-.18.61.63-.07-.26.57h.62l-.33.53.62.11-.41.47.6.19-.47.42.56.27L31,13l.52.35-.56.27.47.42-.6.19.41.47-.62.11.33.53h-.62l.26.57-.63-.07.18.6-.61-.15.1.62L29,16.71v.63L28.49,17l-.08.62-.49-.39-.17.6-.43-.45-.25.57-.37-.51-.32.54Zm-.27-.8.27.53.32-.51.34.49.24-.55.4.43.16-.57.47.37.08-.59.51.3v-.59l.55.23-.09-.59.58.15-.17-.57.59.07-.25-.55h.6l-.32-.5.58-.1-.38-.45.56-.18-.44-.39.53-.26L30.74,13l.49-.32-.53-.26.44-.39-.56-.18.38-.45-.58-.1.32-.5-.6,0,.25-.54-.59.07.17-.57-.58.15.09-.59-.55.23V9l-.51.3-.08-.59-.47.37-.16-.57-.4.43L27,8.36l-.34.49-.32-.51-.27.53-.38-.46L25.54,9l-.44-.4L25,9.15l-.49-.34,0,.6-.53-.27,0,.59-.56-.19.13.58L23,10l.21.55-.59,0,.28.52-.59,0,.35.48-.58.14.42.42-.55.22.47.36-.52.29.52.3-.47.36.55.22-.42.42.58.14-.35.48.59.05-.28.52.59,0-.21.55.58-.11-.12.59.56-.19,0,.59.53-.27,0,.6.49-.34.12.58.44-.4.19.56.38-.46Zm.42-.05a4.07,4.07,0,1,1,4.06-4.07,4.07,4.07,0,0,1-4.06,4.07Zm0-8a3.94,3.94,0,1,0,3.93,3.94,3.94,3.94,0,0,0-3.93-3.94Z"></path>
      <path class="cls-2" d="M26.49,5.07h-.12a2.59,2.59,0,0,1-2.49-2.54A2.58,2.58,0,0,1,26.38,0h.1A2.55,2.55,0,0,1,29,2.53a2.59,2.59,0,0,1-2.49,2.54ZM26.42.62A2,2,0,0,0,24.5,2.53a1.93,1.93,0,0,0,3.85,0A1.92,1.92,0,0,0,26.42.62Z"></path>
      <path class="cls-1" d="M26.8,1.51a.53.53,0,0,0-.09.62.74.74,0,0,0,.62.26A.58.58,0,0,1,26.86,2s0-.26.1-.36a.29.29,0,0,1,.35,0,.22.22,0,0,1,.05.3.16.16,0,0,1-.15.05.13.13,0,0,0,0-.19.15.15,0,0,0-.2,0,.12.12,0,0,0,0,.11.23.23,0,0,0,.32.24.75.75,0,0,0,.17-.1.36.36,0,0,0,0-.52A.46.46,0,0,0,26.8,1.51Z"></path>
      <path class="cls-2" d="M27.24,2.42a.77.77,0,0,1-.54-.28.55.55,0,0,1,.09-.65.48.48,0,0,1,.31-.13.55.55,0,0,1,.37.16.37.37,0,0,1,0,.54,1.08,1.08,0,0,1-.18.11l-.1,0h0A.26.26,0,0,1,27,1.91.15.15,0,0,1,27,1.78a.18.18,0,0,1,.22,0,.15.15,0,0,1,0,.11.22.22,0,0,1,0,.08.15.15,0,0,0,.08-.05.18.18,0,0,0,0-.26.3.3,0,0,0-.15,0,.38.38,0,0,0-.18.06c-.1.09-.09.33-.09.33,0,.18.2.3.46.37v0Zm-.14-1a.43.43,0,0,0-.28.11.53.53,0,0,0-.09.6.79.79,0,0,0,.49.26A.54.54,0,0,1,26.84,2s0-.27.11-.37a.26.26,0,0,1,.2-.08.34.34,0,0,1,.18.07.22.22,0,0,1,0,.32.18.18,0,0,1-.16.06h0l0,0a.16.16,0,0,0,0-.09.11.11,0,0,0,0-.08.12.12,0,0,0-.16,0,.14.14,0,0,0,0,.1.25.25,0,0,0,.06.17.21.21,0,0,0,.15.07h0l.09,0,.16-.1a.32.32,0,0,0,0-.48.51.51,0,0,0-.34-.14Z"></path>
      <path class="cls-1" d="M26.42,7.07c-.09,0-.19-.09-.19-.15a.15.15,0,0,1,.08-.15v-.1a.13.13,0,0,1-.21,0,.12.12,0,0,1,0-.17.17.17,0,0,1,.14,0V6.24h-.33V6.07h-.29v.17h-.29V6.07h-.28v.17h-.3V5.18h.3v.38h.28V5.18h.29v.38h.29V5.18h.56A13.26,13.26,0,0,1,26.42,7.07Z"></path>
      <path class="cls-2" d="M26.42,7.09c-.1,0-.21-.09-.21-.17a.17.17,0,0,1,.1-.17v0a.17.17,0,0,1-.22,0,.16.16,0,0,1,0-.21.17.17,0,0,1,.14,0V6.27h-.33V6.09h-.25v.18h-.33V6.09h-.23v.18h-.35V5.16h.35v.37h.23V5.16h.33v.38h.25V5.16h.6v0a11.36,11.36,0,0,1,0,1.9Zm-.09-.49v.17a.19.19,0,0,0-.08.15s.09.12.17.13a13.6,13.6,0,0,0,0-1.85h-.52v.38H25.6V5.2h-.24v.38H25V5.2h-.26v1H25V6.05h.33v.17h.24V6.05h.33v.17h.33v.33l0,0a.13.13,0,0,0-.12,0,.09.09,0,0,0,0,.07.07.07,0,0,0,0,.06.13.13,0,0,0,.19,0l0-.06Z"></path>
      <path class="cls-1" d="M26.72,5.18v-1a.56.56,0,0,1,.29-.4.08.08,0,0,0,.06.06c.09.06.17-.07.15-.14S27,3.52,27,3.52c-.17.06-.35.42-.35.42V3.21h.09a.17.17,0,0,0,.28,0h.19a.1.1,0,0,0,.07-.08.08.08,0,0,0-.07-.08H27a.18.18,0,0,0-.28,0h-.09V2.9a.32.32,0,0,0,0-.47V2.14l0-.11V1.56a.93.93,0,0,1,.21-.27s.09,0,.09,0,.05-.11.05-.12l-.13-.05a.41.41,0,0,0-.22.23V1A.21.21,0,0,0,26.72,1c0-.08,0-.23-.2-.23-.07.35,0,4.44,0,4.44Z"></path>
      <path class="cls-1" d="M26,1.51a.53.53,0,0,1,.09.62.74.74,0,0,1-.62.26A.58.58,0,0,0,26,2s0-.26-.1-.36a.29.29,0,0,0-.35,0,.22.22,0,0,0-.05.3.16.16,0,0,0,.15.05.12.12,0,0,1,0-.19.14.14,0,0,1,.19,0,.12.12,0,0,1,0,.11.23.23,0,0,1-.32.24.75.75,0,0,1-.17-.1.36.36,0,0,1,0-.52A.46.46,0,0,1,26,1.51Zm.21,3.67v-1a.53.53,0,0,0-.28-.4s-.07.06-.07.06-.17-.07-.14-.14.24-.15.24-.15c.17.06.36.42.36.42V3.21h-.08a.17.17,0,0,1-.28,0h-.19a.09.09,0,0,1-.07-.08.08.08,0,0,1,.06-.08H26a.18.18,0,0,1,.28,0h.08V2.9a.31.31,0,0,1,0-.47V2.14L26.32,2V1.56a.93.93,0,0,0-.21-.27s-.08,0-.08,0L26,1.18l.13-.05a.43.43,0,0,1,.23.23V1s-.06,0-.07-.07.06-.23.24-.23c.07.35,0,4.44,0,4.44Zm.22-.39s-2.59-.47-2.28-2.26A2.43,2.43,0,0,1,26.51.29C26.51.53,26.47,4.79,26.47,4.79Z"></path>
      <path class="cls-1" d="M26.47,4.4l.17,0v.74h.31v.38h.29V5.18h.29v.38h.28V5.18h.31V6.24H27.8V6.07h-.28v.17h-.29V6.07h-.29v.17h-.32v.27a.18.18,0,0,1,.14,0,.14.14,0,0,1,0,.17.14.14,0,0,1-.22,0v.1a.14.14,0,0,1,.08.15c0,.06-.06.1-.15.1Zm2.26-1.8L28.3,3.71l-.85.87-1,0v3l2,.25,2.19,1.49.62,1,.58,1.21,0,1.54h5V2.6Z"></path>
      <path d="M70.86,17.77H74L69.08,32.19H66.23L61.35,17.77h3.22l3.13,11Z"></path>
      <path d="M77.23,32.19h-3V17.77h3Z"></path>
      <path d="M80.13,19.28a6.71,6.71,0,0,1,9.69.61,5.09,5.09,0,0,1,1,2.69h-3A4.1,4.1,0,0,0,87.06,21a3,3,0,0,0-2.39-.94,2.93,2.93,0,0,0-2.54,1.33,6.45,6.45,0,0,0-.92,3.75,5.62,5.62,0,0,0,1,3.63A3,3,0,0,0,84.68,30,2.82,2.82,0,0,0,87,29a4.64,4.64,0,0,0,.75-1.68h3a6.55,6.55,0,0,1-2,3.84,5.77,5.77,0,0,1-4.08,1.47,6.1,6.1,0,0,1-4.83-2,8,8,0,0,1-1.77-5.5A7.94,7.94,0,0,1,80.13,19.28Z"></path>
      <path d="M102.58,20.33H95v3.06h7v2.5H95V29.6h8v2.59H92V17.77h10.58Z"></path>
      <path d="M113.22,18.15a3.51,3.51,0,0,1,1.35,1,4.67,4.67,0,0,1,.72,1.22,4,4,0,0,1,.27,1.51,4.37,4.37,0,0,1-.52,2,3,3,0,0,1-1.71,1.41,2.65,2.65,0,0,1,1.41,1.14,4.68,4.68,0,0,1,.42,2.25v1a6.64,6.64,0,0,0,.08,1.34,1.19,1.19,0,0,0,.55.82v.36h-3.32a7.45,7.45,0,0,1-.2-.77,7.24,7.24,0,0,1-.13-1.24l0-1.34a2.75,2.75,0,0,0-.47-1.84,2.43,2.43,0,0,0-1.72-.46H107v5.65H104V17.77h6.9A6.28,6.28,0,0,1,113.22,18.15ZM107,20.28v3.87h3.24a3.58,3.58,0,0,0,1.45-.23,1.63,1.63,0,0,0,.85-1.63,1.82,1.82,0,0,0-.82-1.76,3,3,0,0,0-1.4-.25Z"></path>
      <path d="M126.38,18.15a3.51,3.51,0,0,1,1.35,1,4.44,4.44,0,0,1,.73,1.22,4.19,4.19,0,0,1,.26,1.51,4.25,4.25,0,0,1-.52,2,2.9,2.9,0,0,1-1.71,1.41,2.63,2.63,0,0,1,1.42,1.14,4.82,4.82,0,0,1,.41,2.25v1A7.52,7.52,0,0,0,128.4,31a1.2,1.2,0,0,0,.56.82v.36h-3.33a7,7,0,0,1-.19-.77,7.24,7.24,0,0,1-.13-1.24l0-1.34a2.69,2.69,0,0,0-.48-1.84,2.38,2.38,0,0,0-1.71-.46h-2.95v5.65h-2.94V17.77h6.9A6.22,6.22,0,0,1,126.38,18.15Zm-6.23,2.13v3.87h3.25a3.61,3.61,0,0,0,1.45-.23,1.63,1.63,0,0,0,.85-1.63,1.83,1.83,0,0,0-.83-1.76,3,3,0,0,0-1.39-.25Z"></path>
      <path d="M141,20.33h-7.63v3.06h7v2.5h-7V29.6h8v2.59H130.39V17.77H141Z"></path>
      <path d="M143.74,19.28a6.72,6.72,0,0,1,9.7.61,5.26,5.26,0,0,1,1,2.69h-3a4.1,4.1,0,0,0-.73-1.57,3,3,0,0,0-2.39-.94,2.93,2.93,0,0,0-2.54,1.33,6.45,6.45,0,0,0-.93,3.75,5.68,5.68,0,0,0,1,3.63A3.08,3.08,0,0,0,148.29,30a2.82,2.82,0,0,0,2.37-1,4.48,4.48,0,0,0,.74-1.68h3a6.55,6.55,0,0,1-2,3.84,5.77,5.77,0,0,1-4.08,1.47,6.13,6.13,0,0,1-4.84-2,8.07,8.07,0,0,1-1.76-5.5A8,8,0,0,1,143.74,19.28Z"></path>
      <path d="M166,17.77v2.56h-4.32V32.19h-3V20.33h-4.33V17.77Z"></path>
      <path d="M177.22,30.91a7.48,7.48,0,0,1-9.45,0A7.78,7.78,0,0,1,165.58,25q0-4,2.19-5.94a7.45,7.45,0,0,1,9.45,0q2.17,2,2.18,5.94A7.81,7.81,0,0,1,177.22,30.91Zm-1.89-2.19A5.85,5.85,0,0,0,176.39,25a5.87,5.87,0,0,0-1.06-3.75,3.43,3.43,0,0,0-2.84-1.32,3.47,3.47,0,0,0-2.85,1.32A5.84,5.84,0,0,0,168.57,25a5.85,5.85,0,0,0,1.07,3.76A3.47,3.47,0,0,0,172.49,30,3.43,3.43,0,0,0,175.33,28.72Z"></path>
      <path d="M189.63,18.15a3.37,3.37,0,0,1,1.35,1,4.44,4.44,0,0,1,.73,1.22,4,4,0,0,1,.27,1.51,4.37,4.37,0,0,1-.52,2,3,3,0,0,1-1.71,1.41,2.65,2.65,0,0,1,1.41,1.14,4.68,4.68,0,0,1,.42,2.25v1a6.64,6.64,0,0,0,.08,1.34,1.16,1.16,0,0,0,.55.82v.36h-3.32a7.45,7.45,0,0,1-.2-.77,7.24,7.24,0,0,1-.13-1.24l0-1.34a2.75,2.75,0,0,0-.47-1.84,2.43,2.43,0,0,0-1.72-.46h-2.94v5.65h-2.95V17.77h6.9A6.18,6.18,0,0,1,189.63,18.15Zm-6.22,2.13v3.87h3.24a3.58,3.58,0,0,0,1.45-.23,1.63,1.63,0,0,0,.85-1.63,1.82,1.82,0,0,0-.82-1.76,3,3,0,0,0-1.4-.25Z"></path>
      <path d="M198.68,14.81l-3,2h-2l1.88-2Zm-2.37,17.38h-3V17.77h3Z"></path>
      <path d="M202,17.77h3.41l5.1,14.42h-3.27l-.95-3h-5.31l-1,3H196.8Zm-.2,9h3.69l-1.82-5.67Z"></path>
      <path d="M223,18.09a4.76,4.76,0,0,1,2.46,1.83,6.34,6.34,0,0,1,1,2.32,10.85,10.85,0,0,1,.28,2.39,9.57,9.57,0,0,1-1.16,4.87,5.19,5.19,0,0,1-4.83,2.69h-6.22V17.77h6.22A7.7,7.7,0,0,1,223,18.09Zm-5.53,2.19v9.41h2.79a3,3,0,0,0,3-2.1,7.57,7.57,0,0,0,.46-2.75,6.74,6.74,0,0,0-.69-3.38,2.92,2.92,0,0,0-2.75-1.18Z"></path>
      <path d="M238.35,20.33h-7.63v3.06h7v2.5h-7V29.6h8v2.59H227.77V17.77h10.58Z"></path>
      <path d="M65.17,49.26h-3V34.84h3Z"></path>
      <path d="M66.64,34.84H69.8l5.72,10v-10h2.81V49.26h-3L69.45,39V49.26H66.64Z"></path>
      <path d="M88.29,34.84h3.13L86.51,49.26H83.66L78.78,34.84H82l3.13,10.95Z"></path>
      <path d="M102.58,37.39H95v3.07h7V43H95v3.71h8v2.59H92V34.84h10.58Z"></path>
      <path d="M106.15,44.81a2.85,2.85,0,0,0,.55,1.48,3.2,3.2,0,0,0,2.56.89,5.4,5.4,0,0,0,1.77-.24,1.68,1.68,0,0,0,1.29-1.67,1.23,1.23,0,0,0-.63-1.11,6.84,6.84,0,0,0-2-.67l-1.56-.34A9.74,9.74,0,0,1,105,42a3.53,3.53,0,0,1-1.45-3.12,4.15,4.15,0,0,1,1.42-3.22,6.11,6.11,0,0,1,4.19-1.28,6.41,6.41,0,0,1,3.94,1.21,4.28,4.28,0,0,1,1.7,3.5h-2.89a2,2,0,0,0-1.16-1.84,3.9,3.9,0,0,0-1.8-.37,3.42,3.42,0,0,0-1.9.47,1.49,1.49,0,0,0-.72,1.31,1.25,1.25,0,0,0,.71,1.16,8.58,8.58,0,0,0,1.91.6l2.53.59a6.45,6.45,0,0,1,2.5,1.05A3.55,3.55,0,0,1,115.22,45a4.12,4.12,0,0,1-1.52,3.28,6.41,6.41,0,0,1-4.32,1.31,7,7,0,0,1-4.48-1.29,4.23,4.23,0,0,1-1.63-3.53Z"></path>
      <path d="M126.51,34.84v2.55H122.2V49.26h-3V37.39h-4.34V34.84Z"></path>
      <path d="M129.72,49.26h-3V34.84h3Z"></path>
      <path d="M140.93,39.34a2.84,2.84,0,0,0-1.67-2.06A4.07,4.07,0,0,0,137.6,37a3.59,3.59,0,0,0-2.86,1.32,5.93,5.93,0,0,0-1.12,3.95A4.9,4.9,0,0,0,134.83,46a4,4,0,0,0,2.76,1.11,3.6,3.6,0,0,0,2.49-.87,3.78,3.78,0,0,0,1.19-2.28h-3.34V41.52h6v7.74h-2l-.31-1.8a7,7,0,0,1-1.56,1.44,5.53,5.53,0,0,1-2.94.73,6.1,6.1,0,0,1-4.69-2,7.58,7.58,0,0,1-1.91-5.46,8,8,0,0,1,1.93-5.61,6.54,6.54,0,0,1,5.09-2.11A6.65,6.65,0,0,1,142,35.86a5.18,5.18,0,0,1,1.91,3.48Z"></path>
      <path d="M149.64,34.84h3.41l5.1,14.42h-3.27l-.95-3h-5.31l-1,3h-3.15Zm-.2,9h3.69l-1.82-5.67Z"></path>
      <path d="M160.06,36.35a6.72,6.72,0,0,1,9.69.6,5.12,5.12,0,0,1,1,2.69h-3a4,4,0,0,0-.74-1.56,3.28,3.28,0,0,0-4.93.38,6.59,6.59,0,0,0-.92,3.76,5.66,5.66,0,0,0,1,3.63,3,3,0,0,0,2.49,1.21A2.82,2.82,0,0,0,167,46a4.58,4.58,0,0,0,.75-1.67h3a6.49,6.49,0,0,1-2,3.83,5.74,5.74,0,0,1-4.08,1.48,6.1,6.1,0,0,1-4.83-2,8,8,0,0,1-1.77-5.49A7.94,7.94,0,0,1,160.06,36.35Z"></path>
      <path d="M174.59,49.26h-3V34.84h3Z"></path>
      <path d="M187.21,48a7.48,7.48,0,0,1-9.45,0A7.79,7.79,0,0,1,175.57,42q0-4,2.19-6a7.48,7.48,0,0,1,9.45,0c1.46,1.33,2.18,3.31,2.18,6A7.79,7.79,0,0,1,187.21,48Zm-1.88-2.19a5.93,5.93,0,0,0,1-3.76,5.89,5.89,0,0,0-1-3.75,3.73,3.73,0,0,0-5.7,0A5.87,5.87,0,0,0,178.56,42a5.87,5.87,0,0,0,1.07,3.76,3.48,3.48,0,0,0,2.86,1.32A3.44,3.44,0,0,0,185.33,45.79Zm1-13.73-3,2h-2l1.88-2Z"></path>
      <path d="M190.34,34.84h3.16l5.72,10v-10H202V49.26h-3L193.15,39V49.26h-2.81Z"></path>
      <line class="cls-3" x1="60.36" y1="14.33" x2="241" y2="14.33"></line>
      <line class="cls-3" x1="60.83" y1="52.22" x2="241.47" y2="52.22"></line>
    </g>
  </g>
</svg>
