<?xml version="1.0" encoding="utf-8"?>
<!-- Generator: Adobe Illustrator 23.0.3, SVG Export Plug-In . SVG Version: 6.00 Build 0)  -->
<svg version="1.1" id="Capa_1" xmlns="http://www.w3.org/2000/svg" xmlns:xlink="http://www.w3.org/1999/xlink" x="0px" y="0px"
	 viewBox="0 0 298 390" style="enable-background:new 0 0 298 390;" xml:space="preserve">
<style type="text/css">
	.st0{clip-path:url(#SVGID_2_);}
	.st1{fill:#FFFFFF;}
</style>
<g>
	<defs>
		<rect id="SVGID_1_" y="0" width="298" height="390"/>
	</defs>
	<clipPath id="SVGID_2_">
		<use xlink:href="#SVGID_1_"  style="overflow:visible;"/>
	</clipPath>
	<g class="st0">
		<path class="st1" d="M3.5,179.4c4.3-8.3,9.1-32.4,13.5-61.2c0.3-2.1,1.5-10.1,1.5-10.1c0.5-3.6,1.1-7.2,1.7-10.7
			c2.5-14.6,5.4-24.9,9.7-32c1.4-2.4,7-11.2,8.2-13.4c3.4-5.9,5.4-11.3,7.4-19.8c1.5-6.5,3.4-8.3,8.1-9.6c2.6-0.7,3.6-1.1,4.8-2.2
			c1.6-1.4,2.8-3.7,3.7-7.2C63,9.8,63.3,7.1,64,1c0.8-8,1.4-11.5,3.1-15.8c2.2-5.6,5.8-10.4,11.5-14.8c8.2-6.3,12.8-6,19.3-1.1
			l1.6,1.3c4.6,3.5,7.4,4.9,11.6,4.9c5.8,0,9.5-1.2,12.8-3.5c0.5-0.4,2.4-1.8,2.9-2.1c1.4-0.9,2.5-1.4,4-1.4c1.6,0,2.9,0,6.4,0.2
			c6.9,0.3,9.8,0.3,11.8-0.2c4.9-1.9,9.2-4.9,12.6-9.3c4.4-5.7,6.8-13.4,6.8-23.2c0-7-0.1-11.9-0.3-21.6c-0.2-7.9-0.3-13.8-0.3-19.4
			h-0.5c0,5.5,0.1,11,0.3,18.3c0.3,10.8,0.4,15.7,0.4,22.7c0,9.5-2.3,16.8-6.6,22.3c-3.3,4.3-7.6,7.3-12.4,9.2
			c-1.9,0.5-4.8,0.5-10.8,0.3c-4.4-0.2-5.7-0.3-7.3-0.3c-1.4,0-2.8,0.5-4.1,1.4c-0.5,0.3-2.4,1.8-2.9,2.1c-3.3,2.3-6.9,3.5-12.7,3.5
			c-4.1,0-6.9-1.4-11.5-4.8l-1.7-1.3c-6.6-5-11.3-5.3-19.6,1.1c-5.9,4.5-9.6,9.4-11.8,15.2c-1.7,4.4-2.3,8.1-3.2,16.2
			c-0.6,6-1,8.6-1.8,11.9c-0.8,3.3-1.9,5.4-3.4,6.7c-1.1,1-2.2,1.4-4.5,2.1c-2.5,0.7-3.7,1.2-4.9,2.4c-1.6,1.6-2.9,4-3.7,7.9
			c-1.9,8.3-3.9,13.6-7.2,19.4c-1.2,2.2-6.8,11-8.2,13.4c-4.3,7.2-7.3,17.7-9.8,32.4c-0.6,3.2-1.1,6.5-1.7,10.7c0,0-1.2,8-1.5,10.1
			c-4.4,28.7-9.2,52.7-13.4,60.8c-1.5,2.8-2.7,5.7-4.8,11.2c-1.9,5.2-3.5,9-4.9,12v1.5c1.4-2.9,2.9-6.4,4.6-11.1
			C0.9,185,2.1,182.2,3.5,179.4z"/>
		<path class="st1" d="M62.4-80.1c1.3,0,2.2-0.7,3.5-2.2c0.3-0.3,1.1-1.4,1.2-1.5c1.9-2.3,3.4-3.3,5.7-3.3c2.3,0,5.3,0.8,14.8,3.5
			l0.8,0.2c8.1,2.3,12.2,3.3,15,3.3c2.8,0,6.8-0.4,14.9-1.4l0.8-0.1c9.6-1.2,12.5-1.5,14.9-1.5c5.3,0,7.2-4.1,10.2-22h-1.1
			c-2.9,16.6-4.5,20-9.2,20c-2.4,0-5.3,0.3-14.9,1.5l-0.8,0.1c-8.1,1-12.1,1.4-14.8,1.4c-2.7,0-6.8-1-14.8-3.3l-0.8-0.2
			c-9.6-2.8-12.6-3.5-15-3.5c-2.5,0-4.2,1.1-6.2,3.7c-0.1,0.1-0.9,1.2-1.2,1.4c-1.1,1.3-1.9,1.9-3,1.9c-0.9,0-1.1-0.5-1.1-2.2
			c0-1.3,0.1-2.5,0.2-3.7c0.1-0.8,0.5-4.4,0.6-5.3c0.4-4.3,0.7-7.9,0.8-11.8h-1c-0.1,3.7-0.3,7.3-0.8,11.4c-0.1,0.9-0.5,4.5-0.6,5.3
			c-0.2,1.8-0.3,3.1-0.3,4.1C60.3-81.5,61-80.1,62.4-80.1z"/>
		<path class="st1" d="M6.3,23.2L7.7,20c4.7-11,6.7-16.5,8.1-23.7c0.5-2.4,3.8-21.8,5-28c3-15,6.2-25.4,10.4-31.6
			c3.7-5.5,5.6-9.6,6.8-14.3c0.4-1.6,0.7-3.3,1-5c1.2-7.3,1.5-8.7,2.7-13c0.7-2.7,1.2-5.5,1.6-9.5h-1.1c-0.2,3-0.7,5.9-1.4,8.5
			c-1.2,4.5-1.5,5.9-2.8,13.3c-0.4,2.1-0.6,3.4-1,4.8c-1.1,4.4-2.9,8.3-6.5,13.6c-4.3,6.4-7.7,17.1-10.7,32.4
			c-1.2,6.3-4.5,25.7-5,28c-1.3,6.9-3.3,12.3-7.9,23.1L5.5,22c-3.2,7.5-4.9,12.3-6.2,17.6c-1,4.3-3.1,8.7-5.8,12.6v2.4
			c3-4.3,5.5-9.2,6.7-14.2C1.4,35.3,3.1,30.6,6.3,23.2z"/>
		<path class="st1" d="M67.1-95.9c1,0.3,2,0.4,5.7,0.4c3.1,0,6.7,0.6,11,1.6c2,0.5,4.1,1.1,6.8,1.9c12.5,3.7,11.7,3.5,14,3.5
			c12.6,0,27-2.2,31.6-7.1c1.7-1.8,2.9-5,3.7-9.4h-0.6c-0.8,4.1-1.9,7-3.4,8.6c-4.5,4.7-18.9,6.9-31.3,6.9c-2.2,0-1.5,0.2-13.9-3.5
			c-2.6-0.8-4.8-1.4-6.8-1.9c-4.3-1.1-7.9-1.6-11.1-1.6c-3.6,0-4.7-0.1-5.6-0.4c-1-0.3-1.3-0.8-1.2-2c0.1-1.1,0.4-2.3,1.4-6.2h-0.6
			c-1,3.7-1.3,4.8-1.4,6.1C65.4-97.3,65.9-96.3,67.1-95.9z"/>
		<path class="st1" d="M-4.5,120.1l0.1-1.3c0.2-3.9,0.1-6.1-0.6-7.6c-0.4-0.7-0.9-1.2-1.5-1.3v1c0.5,0.1,0.9,0.5,1.1,1
			c0.6,1.2,0.7,3.2,0.5,6.8L-5,120c-0.2,2.3-0.2,3-0.2,4c0,2.6-0.5,7.3-1.3,12.5v3.5c1-6.4,1.8-12.7,1.8-15.9
			C-4.7,122.7-4.6,121.4-4.5,120.1z"/>
		<path class="st1" d="M1.9-45.6c-0.2-3.4-0.4-6.3-1-12.2C0.1-66.3-0.2-69.6-0.3-74C-0.4-79.7,0-84.5,1-88.9c1.4-6,1.8-8.6,2.8-16.2
			H3.3c-1,7.3-1.4,9.9-2.8,15.8c-1,4.5-1.4,9.5-1.3,15.3c0.1,4.4,0.4,7.8,1.2,16.3c0.6,5.9,0.8,8.7,1,12.1C1.9-36.8,1.5-29.8,0-23.3
			C-2-14.6-4.2-6.1-6.5,2.3v2.1c2.5-8.9,4.8-18,7-27.2C2.1-29.6,2.4-36.7,1.9-45.6z"/>
		<path class="st1" d="M20.2,22.2c1.7-5.3,3.2-15.6,5.1-32c0.4-3.9,2-18.2,2.3-21.1c0.8-7,1.4-11.1,1.9-13c0.6-2.4,1.9-5.7,3.7-9.7
			c2.1-4.6,4.3-9,6.6-13.3c0.9-3.2,1.1-4.3,1.2-5.4c0.5-3.2,1.2-6.4,1.8-9.4c0.6-2.8,1.3-5.6,2.1-8.2c0.8-2.6,1.5-7,2.4-15.3h-0.5
			c-0.8,8-1.5,12.3-2.3,14.7c-0.8,2.7-1.6,5.5-2.2,8.4c-1,4.4-1.8,8.9-2.5,13.5c-0.9,1.7-1.3,2.5-1.7,3.4c-1.3,2.5-2.7,5.2-3.9,7.8
			c-0.5,1.1-1,2.2-1.5,3.2c-1.8,4-3.1,7.4-3.8,9.9c-0.5,2-1.1,6.1-1.9,13.2c-0.3,2.9-1.9,17.2-2.3,21.1c-1.9,16.3-3.4,26.5-5.1,31.7
			c-3.9,12.4-5.5,15.6-19.1,40.9c-2.1,4-4.5,7.5-7.1,10.4v1.2c2.7-3,5.2-6.6,7.4-10.9C14.6,37.9,16.2,34.7,20.2,22.2z"/>
		<path class="st1" d="M2.9,146c0.4-1.4,0.7-2.9,1.3-6.3c0.2-1.5,1.9-12,2.6-16.5c1-6.4,1.9-12.8,2.7-19.3
			c0.4-3.1,1.8-14.6,2.1-17.1c2.4-18.7,4.4-27.7,8.1-33.3c0.4-0.7,0.9-1.3,1.4-2c0.7-1,1.4-2,2.4-3.3l2.4-3.1c6.5-8.7,9-15.4,9-28
			c0-8.3,2-12.5,6.6-16.6c0.5-0.4,2-1.8,2-1.7c3.5-3.1,4.9-5.3,4.9-9.7c0-7.5,0.3-11.4,1.2-15.3c1.1-4.6,3.3-8.5,6.9-12.3
			c2.2-2.3,3.9-5.1,7.2-11.5c3.5-6.9,5.1-9.6,7.2-12c1.3-1.5,2.8-2.5,4.3-3c1.5-0.4,3-0.3,4.5,0.5c9,4.1,22.3,7,28.1,7
			c3.2,0,13.4-4.5,16.7-7c4.7-1.4,8.6-1.2,14.6,0.1c6.1,1.4,7.3,1.5,9.1,0.4c2.4-1.5,3.4-5.4,3.4-13.1c0-10,0.8-16.1,2.8-25.2
			c0.2-1,0.4-1.9,0.6-2.8h-0.5c-2.6,11.7-3.4,17.9-3.4,28c0,7.3-1,10.8-3.1,12.1c-1.7,1-2.9,0.9-8.9-0.5c-6-1.4-10-1.6-14.8-0.1
			c-3.2,2.5-13.4,7-16.5,7c-5.7,0-19-2.9-27.9-7c-1.5-0.8-3.1-0.9-4.7-0.5c-1.6,0.4-3.1,1.5-4.4,3.1c-2.2,2.4-3.8,5.1-7,11.5
			c-3.5,6.9-5.2,9.7-7.3,11.9c-3.8,3.9-6,7.9-7.2,12.7c-1,4-1.3,8.1-1.3,15.7c0,3.9-1.2,5.9-4.6,8.8c0.1,0-1.5,1.3-2,1.7
			c-4.7,4.2-6.9,8.7-6.9,17.5c0,12.1-2.4,18.6-8.8,27.1l-2.4,3.1c-1,1.3-1.7,2.3-2.4,3.3c-0.5,0.7-0.9,1.3-1.4,2
			c-3.8,5.8-5.9,14.9-8.3,33.8c-0.3,2.6-1.7,14-2.1,17.1c-0.9,7.2-1.7,13.2-2.7,19.3c-0.7,4.5-2.3,15.1-2.6,16.5
			c-0.5,3.1-1.3,6.1-1.3,6.2c-2.3,5.9-4.5,12-6.5,18.2l-2.4,7.4v1.9l2.8-8.7C-0.7,155.1,2.4,147.4,2.9,146z"/>
		<path class="st1" d="M13.4,51.3c0.9-2,2.1-3.9,3.8-6.3l2.8-4c4.9-7,7.4-12.2,8.5-19.9c0.4-3,0.8-6.8,1.3-12.4
			c0.1-1.5,1-12.5,1.3-15.8c1.5-16.6,2.9-26.5,5.1-31.6c5.7-13.5,10.4-27.8,10.4-33.3c0-2.3,0.2-3.3,3.1-15.3c0.4-1.5,0.7-2.8,0.9-4
			c1.3-5.9,2.1-10.3,2.2-13.8h-0.5c-0.1,3.3-0.8,7.6-2.1,13.4c-0.3,1.2-0.6,2.4-0.9,3.9c-3,12.4-3.1,13.2-3.1,15.7
			c0,5.1-4.7,19.4-10.3,32.7c-2.2,5.3-3.7,15.3-5.2,32.1c-0.3,3.3-1.2,14.4-1.3,15.8c-0.5,5.5-0.9,9.3-1.3,12.3
			c-1,7.4-3.4,12.5-8.3,19.4c-0.3,0.4-2.3,3.2-2.8,4c-1.7,2.5-2.9,4.4-3.8,6.5c-0.8,1.8-6.2,16-8.2,20.6C1,79.9-2.7,86.3-6.5,90.2
			v1.1v0c4-3.9,7.8-10.4,11.7-19.5C7.2,67.2,12.6,53,13.4,51.3z"/>
		<path class="st1" d="M16.3-97.6c0.3,0,0.6,0,0.9,0c2.8,0.1,4.6-0.1,6.7-1c2.6-1.1,4.7-3.3,6.2-6.5h0h-0.7
			c-1.4,2.7-3.3,4.5-5.6,5.6c-2,0.9-3.8,1.1-6.6,1l-0.9,0c-2.6,0-4.2-1.1-4.7-4.3c-0.1-0.7-0.2-1.4-0.2-2.2h-0.5
			c0,0.9,0.1,1.7,0.2,2.5C11.7-98.8,13.5-97.6,16.3-97.6z"/>
		<path class="st1" d="M7.2-12.7c1.2-5.3,2.4-10.6,3.6-15.9c0.4-2.3,0.8-4.6,1.1-7c0.6-5.2,1-10.8,1-16.5c0-1.5,0-2.7-0.1-6
			c0-2.8-0.1-4.3-0.1-6c0-14.5,1.5-21.5,6.1-21.5c4.1,0,8.9-2.7,12.6-7.2c2.8-3.4,4.8-7.6,5.9-12.3h-0.6h0c-1.1,4.4-3,8.3-5.6,11.5
			c-3.7,4.4-8.4,7.1-12.4,7.1c-2.7,0-4.5,2.5-5.5,7.2c-0.8,3.7-1.1,8.6-1.1,15.3c0,1.7,0,3.2,0.1,6c0,3.3,0.1,4.4,0.1,6
			c0,7.2-0.6,14.3-1.7,21.1c-0.8,3.7-1,4.7-1.3,5.9C5.1-6.4,0.8,12.2-3.6,30.7c-0.8,3.4-1.8,6.6-2.9,9.6V42c1.3-3.3,2.4-7,3.3-10.8
			C0.3,16.6,3.8,1.9,7.2-12.7z"/>
		<path class="st1" d="M42.1-39.5c-0.2,1.9,0,3,0.6,3.6c0.4,0.4,0.8,0.5,2.7,0.4c1.6,0,3.6-2.2,6.2-6.2c0.8-1.3,1.6-2.6,2.4-3.9
			c0.3-0.6,3.8-6.8,4.6-8c0.8-1.3,4.9-8.6,5.6-9.8c1.1-1.9,2.2-3.7,3.4-5.5c1.9-2.8,3.5-4.7,4.9-5.6c4.4-2.9,19.2-1.2,28.4,3
			c1.4,0.6,2.8,1,4.1,1.1c3.1,0.3,3.5,0.1,12.3-2.5c5.7-1.7,10-2.6,15.3-2.6c2.7,0,8.3,0.3,7.8,0.3c1.7,0,2.3-0.2,2.7-1.3
			c0.2-0.6,0.3-1.3,0.4-2.1l0.1-1.5l0.2-1.8c0.4-3.5,1.2-7.3,2.5-12c1-3.6,1.9-7.4,2.5-11.2h-0.5c-0.7,3.8-1.5,7.3-2.5,10.8
			c-1.3,4.8-2.1,8.6-2.6,12.2l-0.2,1.9l-0.1,1.4c-0.1,0.9-0.2,1.4-0.3,1.7c-0.2,0.7-0.7,0.9-2.2,0.8c0.5,0-5.1-0.3-7.8-0.3
			c-5.3,0-9.6,0.8-15.3,2.6c-8.7,2.7-9.1,2.8-12.2,2.5c-1.4-0.1-2.7-0.5-4-1.1c-9.3-4.2-24.1-5.9-28.6-3c-1.5,0.9-3.2,2.9-5.1,5.7
			c-1.1,1.6-2.2,3.4-3.4,5.5c-0.7,1.3-4.7,8.5-5.6,9.8c-0.8,1.2-4.3,7.5-4.6,8.1c-0.9,1.5-1.6,2.7-2.3,3.9c-2.5,3.9-4.4,6-6.5,6
			c-1.1,0-1.5,0-1.8-0.3c-0.3-0.3-0.5-1-0.3-2.5c0.4-3.5,2.3-10.6,6.6-24.5c3-9.6,4.9-18.2,6.2-26.4c0.8-5.1,1-7.5,1.6-14.8h-0.5
			c-0.5,7.1-0.8,9.5-1.5,14.5c-1.2,8.2-3.2,16.7-6.1,26.2C44.4-50.4,42.5-43.2,42.1-39.5z"/>
		<path class="st1" d="M-6.5,102.8v1c3.5-0.2,5.4,2.9,5.4,10.1c0,10.7-2.4,26.5-5.4,39.2v2.3c3.3-13.2,6-30.1,6-41.5
			C-0.5,106.2-2.7,102.7-6.5,102.8z"/>
		<path class="st1" d="M12.1,121.7l0.8-4.8c3.4-19.9,5.2-29.7,7.6-39.3c3.1-12.4,6.3-20.5,10.1-24.7c3.7-4,5.7-8.5,6.8-14.2
			c0.4-1.9,0.6-3.3,1-6.8c0.6-5,1-7.2,1.9-9.7c1.1-3.3,3-6,5.8-8.2c8.6-6.9,9-7.2,9.8-9.7c0.5-1.4,0.6-3,0.6-5.7
			c0-0.8-0.1-3.9-0.1-4c-0.1-1.9-0.1-3.6-0.1-5.4c0-9.2,0.1-10.4,0.8-11.6c0.2-0.3,0.5-0.6,0.9-1.1c0.1-0.1,1.1-1.1,1.5-1.5
			c1.7-1.8,3.3-3.8,4.9-6c1.1-1.7,1.4-2.2,4.3-8.2c4-8.3,6.3-11.2,9.3-9.7c2.4,1.3,5.8,2.1,10,2.5c3.6,0.4,6.7,0.5,11.4,0.5
			c2.5,0,4.5,0.5,7.8,1.5c4.1,1.4,4.9,1.6,6.6,1.6c2.2,0.1,4.3-1,6.1-3.3c2.5-3.1,4-4.4,5.4-4.9c1.7-0.6,2.3-0.4,8.2,2.1
			c9.3,3.8,16.7,1.4,22.3-10.3c2.9-6.1,3.2-10.3,2-16.8c-0.4-2.3-0.5-2.9-0.6-3.9c-0.1-1.9,0.2-3.5,1.1-5.3c1.6-3.1,2.7-10,3.5-19.7
			h-1.1c-0.8,9.1-1.9,15.6-3.2,18.3c-1.1,2.2-1.6,4.4-1.4,6.9c0.1,1.2,0.2,1.9,0.6,4.3c1,5.9,0.8,9.3-1.8,14.8
			c-5.3,11.1-12.3,13.4-21.3,9.7c-6.1-2.5-6.7-2.7-8.6-2.1c-1.6,0.5-3.2,2-5.8,5.2c-1.7,2.1-3.4,3-5.5,3c-1.6,0-2.4-0.2-6.4-1.5
			c-3.3-1.1-5.5-1.6-8-1.6c-4.7,0-7.8-0.1-11.4-0.5c-4.1-0.5-7.5-1.3-9.7-2.5c-1.9-1-3.8-0.2-5.6,2.1c-1.4,1.8-2.7,4-4.6,8.1
			c-2.8,5.8-3.1,6.4-4.2,7.9c-1.5,2.2-3.1,4.2-4.7,5.9c-0.3,0.4-1.3,1.3-1.5,1.5c-0.5,0.5-0.8,0.9-1.1,1.3
			c-1.1,1.8-1.2,3.1-1.2,13.2c0,1.9,0,3.7,0.1,5.6c0,0.2,0.1,3.3,0.1,4c0,2.4,0,3.5-0.4,4.5c-0.7,2-1.2,2.4-9.4,9
			c-3,2.4-5,5.3-6.3,9c-1,2.8-1.4,5.2-2,10.4c-0.2,2.2-0.6,4.4-1,6.6c-1,5.3-2.9,9.4-6.3,13.2c-4,4.4-7.4,12.8-10.5,25.5
			c-2.4,9.7-4.3,19.6-7.7,39.6l-0.8,4.8c-2.4,14.4-3.9,22.4-5.6,30.6c-2.6,12.2-6.7,24.1-12,35.4v0v3c5.7-12,10.2-24.6,12.9-37.6
			C8.1,144.2,9.6,136.1,12.1,121.7z"/>
		<path class="st1" d="M248.9-71.5c-5.6,5-9.2,5-16.4,0c-6-4.1-8.1-4.4-10.1-1.4c-0.6,1-3.4,6.2-4.1,7.5c-1.3,2.3-2.2,5.4-3.6,12.3
			l-0.3,1.6c-1.4,7.1-2.4,10.6-3.9,13.1c-1.2,1.9-2.4,4.3-4.2,7.8l-0.6,1.1c-4.1,8.1-5.2,10.1-6.6,12c-0.5,0.7-2.9,3.8-2.7,3.6
			c-1.1,1.5-2.3,3-3.4,4.6C188.7-3,186,2.6,185.3,8c-0.6,4.6,0.3,8.7,2.9,12.3c1.3,1.8,2.8,2.6,5.3,3l0.9,0.2
			c2.6,0.4,3.6,0.7,4.7,1.9c0.3,0.4,2.3,2.7,3,3.4c3.5,3.9,6.4,5.6,9.3,4.4c0.5-0.2,0.9-0.5,1.4-0.8l1.1-0.8
			c0.1-0.1,2.5-1.7,3.2-2.2c2.5-1.9,4.3-3.7,5.6-6.1c0.2-0.4,1.8-3.8,2.4-4.9c2.1-3.8,4.3-5.9,7.3-5.9c2.8,0,5.6-1.6,8.9-4.7
			c0.4-0.4,0.9-0.8,1.4-1.3l1.3-1.2c0.9-0.9,1.5-1.4,2-1.7c1-0.6,1.6-2.1,2.6-5c0.1-0.3,0.7-2.3,0.9-2.9c1.7-5.2,3.3-7.6,6.3-7.6
			c2.3,0.1,4.5-0.5,6.7-1.8c2.9-1.9,5-5.1,6-10c1-5.3,1.5-20,1.3-34.2c-0.3-16.2-1.5-27.2-3.5-28.5c-1.8-1.1-3.7-0.6-5.8,1.3
			c-1.6,1.4-2.9,3-5.8,6.9C251.8-74.5,250.5-72.9,248.9-71.5z M260.6-84.4c2-1.8,3.8-2.3,5.4-1.2c1.7,1,2.9,12,3.2,27.5
			c0.3,14.1-0.3,28.7-1.2,33.8c-0.9,4.6-2.9,7.7-5.7,9.4c-2,1.3-4.2,1.8-6.6,1.8c-3.2,0-5,2.6-6.8,8.1L248.1-2
			c-0.8,2.7-1.4,4-2.3,4.5c-0.5,0.3-1.1,0.9-2.1,1.8c-0.3,0.2-1.2,1.2-1.3,1.2c-0.5,0.5-1,0.9-1.4,1.3c-3.3,3-5.9,4.6-8.7,4.6
			c-3.1,0-5.5,2.2-7.6,6.2c-0.6,1.1-2.2,4.6-2.4,4.9c-1.3,2.3-3,4.1-5.4,5.9c-0.7,0.5-3.1,2.1-3.2,2.2c-0.4,0.3-0.7,0.5-1.1,0.8
			c-0.4,0.3-0.9,0.6-1.3,0.8c-2.7,1.1-5.5-0.5-9-4.3c-0.7-0.7-2.6-3-3-3.4c-1.2-1.3-2.3-1.7-4.9-2.1l-0.9-0.1
			c-2.4-0.4-3.8-1.1-5-2.8c-2.4-3.4-3.3-7.1-2.7-11.3c0.6-5.1,3.3-10.6,7.5-16.7c1-1.5,2.1-2.9,3.4-4.6c-0.2,0.2,2.2-2.9,2.8-3.6
			c1.5-2,2.5-4,6.7-12.2c1.5-3.1,3.1-6.1,4.7-8.9c1.6-2.7,2.6-6.2,4-13.5l0.3-1.6c1.4-6.8,2.2-9.8,3.4-12c0.8-1.3,3.5-6.5,4.1-7.4
			c1.9-2.8,3.8-2.5,9.7,1.5c7.3,5,11,5,16.8,0c1.6-1.4,2.9-3,5.8-6.9C257.8-81.4,259.1-83,260.6-84.4z"/>
		<path class="st1" d="M160.8,33.5c-1.6,0.9-3.3,2.9-5.6,6.1c-0.6,0.8-1.1,1.6-1.9,2.7c-5.1,7.5-6.4,9.2-8,9.2
			c-1.9,0-3.4,4.6-3.1,9.1c0.3,5.1,2.7,7.8,6.8,5.9c7.7-3.5,13.1-12.4,17.3-25.2c1.6-4.8,1.7-7.8,0.4-9
			C165.7,31.3,163.7,31.8,160.8,33.5z M165.9,40.7c-4.1,12.6-9.4,21.4-16.9,24.8c-3.8,1.7-5.9-0.6-6.2-5.1c-0.3-3.9,1-7.9,2.6-7.9
			c1.7,0,3.1-1.6,8.3-9.4c0.8-1.1,1.3-2,1.9-2.7c2.2-3.1,3.9-5.1,5.4-5.9c2.8-1.6,4.6-2.1,5.5-1.3C167.4,34,167.3,36.3,165.9,40.7z"
			/>
		<path class="st1" d="M198.6-51.7c-1.2,7.4-3.2,14.3-5.8,20.3c-3,6.8-6.3,13.1-9.9,18.6c-5.8,8.9-12,15.3-18.4,18.2
			c-3.7,1.6-7.4,2.9-11.7,4.1c-1.6,0.4-3.3,0.8-5.3,1.3l-4.9,1.1c-6,1.4-9.1,2.6-11.4,4.5c-4.7,4.1-14.6,6-25.3,6
			c-0.7,0-1.4-0.1-2.1-0.3c-1.6-0.5-3.1-1.3-4.7-2.3c-3.9-2.3-5.1-2.8-6.7-2.6c-2.2,0.3-3.8,2.6-4.8,7.5c-1,4.8-1.3,7.7-1.8,15.2
			c-0.5,8.6-1.4,11.4-4.8,13.5c-1.2,0.7-2.5,1.6-3.6,2.7c-0.3,0.4-0.6,0.7-1,1.1l-0.7,0.8c-0.9,1-1.8,1.4-4.5,1.4
			c-1.6,0-4.6-0.6-5-0.4c-0.8,0.4-0.5-0.2-3.9,6.5c-1,1.9-2.1,3.6-3.2,5.3c-0.8,1.2-3.7,5.4-4.1,6c-2.6,3.8-4.4,6.7-5.8,9.5
			c-2.7,5.2-3.8,9.7-3,13.7c0.8,4.3,2.5,5.2,5.3,3.4c1.4-1,2.8-2.2,4.1-3.5c0.8-0.8,4-4.1,4.9-5c2.1-2.1,4.2-4,6.3-5.6
			c1.5-1.1,3.3-2.7,5.8-4.9l6.7-6.2c2.3-2.1,4.2-3.8,6-5.3c8.8-7.2,15-9.8,19.1-6.6l2.8,2.1c1.2,0.9,2.2,1.6,3.1,2.4
			c2.5,2,4.7,3.9,6.7,6c9.4,9.5,15.5,21.8,17.8,39.2c3.6,27.6,1.9,45-4.1,61.6c-2.3,6.3-1.9,10.8,0.5,10.5c2.3-0.3,5.6-5.2,8.2-13
			c1.6-4.9,2.7-10.6,4.2-21.8l0.9-6.4c0.3-2.5,0.6-4.5,0.9-6.5c2.5-16.4,5.6-26.9,11-34.2c3.7-5.1,12.3-15.5,13.2-16.8
			c3.6-4.9,5.6-9.7,7.6-18.5c3.9-17,10.6-23.7,22.6-23.7c4.9,0,9.4-1.1,15.4-3.5c1.1-0.4,2.1-0.9,3.2-1.3c1.2-0.5,2.1-0.8,2.9-1.1
			c2.1-0.7,3.6-1.1,4.9-1.1c2.4,0,4.9-1,16.4-6l1.5-0.7c8.4-3.7,13.2-5.3,16.3-5.3c0.8,0,1.2,0,3.3,0.1c4.1,0.2,6.4,0.1,9-0.2
			c8.7-1.1,14.2-5.5,15.9-15.2c0.5-3,1.1-5.9,1.8-8.7c-0.1,0.3,1.2-5,1.5-6.4c2.8-12.6,2.9-22.4-0.7-40.2
			c-1.3-6.6-2.2-13.5-2.7-20.5c-0.8-11.9-0.7-23,0.1-40.2l0.1-2.2h-0.5l-0.1,2.1c-0.8,17.2-0.9,28.4-0.1,40.4
			c0.5,7.1,1.4,14.1,2.7,20.7c3.6,17.5,3.5,27.1,0.7,39.5C291.2-1,289.9,4.3,290,4c-0.7,2.9-1.3,5.8-1.8,8.8
			c-1.6,9.2-6.9,13.5-15.4,14.6c-2.6,0.3-4.9,0.4-9,0.2c-2.1-0.1-2.5-0.1-3.3-0.1c-3.1,0-7.9,1.7-16.4,5.4l-1.5,0.7
			c-11.4,5-14,6-16.3,6c-1.3,0-2.9,0.4-5,1.1c-0.8,0.3-1.7,0.6-2.9,1.1c-1.1,0.4-2.1,0.9-3.2,1.3c-6,2.4-10.5,3.5-15.3,3.5
			c-12.1,0-19,6.9-23,24.3c-2,8.6-3.9,13.2-7.4,18c-0.9,1.3-9.5,11.7-13.2,16.8c-5.5,7.5-8.6,18.2-11.2,34.8c-0.3,2-0.6,4-0.9,6.5
			l-0.9,6.4c-1.5,11.1-2.6,16.7-4.2,21.5c-2.5,7.6-5.7,12.2-7.8,12.5c-1.9,0.2-2.1-3.2,0-9c6.1-16.9,7.8-34.6,4.2-62.4
			c-2.3-17.7-8.5-30.2-18-39.9c-2.2-2.2-4.5-4.2-6.8-6c-1-0.8-1.9-1.5-3.1-2.4l-2.8-2.1c-4.3-3.3-10.6-0.7-19.5,6.7
			c-1.8,1.5-3.8,3.2-6,5.3c-1.2,1.1-5.7,5.3-6.7,6.2c-1.9,1.8-3.8,3.4-5.7,4.8c-2.2,1.7-4.3,3.6-6.4,5.7c-0.8,0.8-4.1,4.2-4.9,5
			c-1.3,1.4-2.6,2.5-4,3.5c-2.5,1.6-3.9,0.9-4.6-2.8c-0.7-3.6,0.4-7.7,2.9-12.7c1.4-2.8,3.2-5.6,5.7-9.4c0.4-0.6,3.3-4.9,4.1-6
			c1.5-2.2,2.5-3.9,3.3-5.4c3.3-6.4,3.1-6,3.7-6.2c0.4-0.2,3.3,0.4,4.9,0.4c2.8,0,3.8-0.4,4.8-1.5l0.7-0.9c0.3-0.4,0.6-0.7,0.9-1
			c1.1-1.1,2.3-2,3.5-2.7c3.7-2.2,4.6-5.3,5.2-14.3c0.5-7.5,0.8-10.3,1.7-15c1-4.6,2.4-6.7,4.4-6.9c1.6-0.2,2.7,0.4,6.5,2.6
			c2.1,1.3,3.4,1.9,4.7,2.3c0.8,0.2,1.5,0.4,2.2,0.4c10.8,0,20.7-1.8,25.5-6c2.2-1.9,5.2-3.1,11.2-4.5l4.9-1.1
			c2-0.5,3.7-0.9,5.3-1.3c3.9-1,7.8-2.4,11.7-4.1c6.5-2.9,12.8-9.4,18.6-18.4c3.6-5.6,7-11.9,10-18.8c2.6-6.1,4.6-13.1,5.9-20.7
			c2-11.7,2.3-24.7,0.4-38.8c-0.8-6.2-1.4-11-1.8-14.9h-0.5c0.5,5.1,1.2,10.1,1.9,15.1C200.9-76.1,200.6-63.3,198.6-51.7z"/>
		<path class="st1" d="M161.7,24.5c-2.3,1.9-3.9,3.8-9,9.9l-1.4,1.7c-1.1,1.3-2.1,2.1-3.1,2.6c-1.6,0.8-2.5,0.8-6.6,0.3
			c-6.7-0.8-12.1-0.3-20.7,3c-5.3,2-7.7,3.8-8,6.1c-0.3,2.1,0.8,3.7,3.3,5.9c0.8,0.7,5.9,4.6,7.5,5.9c4.8,4,7.8,8,9.3,12.7
			c5.6,17.7,8.4,20.8,14.1,16.4c3.8-3,5.9-4.8,8.1-7.6c3-3.7,5.2-8.2,6.7-13.9c0.7-2.6,1.5-5.2,2.4-7.5c0.4-1.1,0.9-2.2,1.4-3.2
			l1.3-3c1.9-4.2,2.9-7.1,3.7-11.4c2.2-11.5,1.9-15.1-1.8-19.2C167.2,21.2,164.9,21.8,161.7,24.5z M169.8,41.6
			c-0.8,4-1.7,6.8-3.5,10.8l-1.3,3c-0.5,1.1-1,2.2-1.4,3.3c-1,2.4-1.8,4.9-2.5,7.8c-1.4,5.4-3.5,9.6-6.3,13.1
			c-2.1,2.7-4.2,4.5-7.9,7.4c-5.1,4-7.5,1.3-12.8-15.6c-1.6-5.1-4.8-9.3-9.8-13.4c-1.6-1.4-6.7-5.3-7.5-5.9c-2-1.7-2.8-2.9-2.7-3.5
			c0.1-0.5,0.6-1.2,1.6-1.9c1.2-0.9,3.1-1.8,5.6-2.8c8.5-3.3,13.8-3.8,20.4-3c4.2,0.5,5.2,0.5,6.9-0.3c1.2-0.6,2.4-1.6,3.4-2.8
			l1.4-1.7c5.1-6.1,6.7-7.9,8.8-9.8c2.9-2.5,4.9-3,6.3-1.5C171.6,28.3,171.8,30.9,169.8,41.6z"/>
		<path class="st1" d="M193.6-72c0.3,10.9-0.8,20.9-3.4,30.7c-4,14.9-10.5,26.2-18.5,33.7c-6.3,5.9-13.4,9.1-18.5,9.1
			c-3.6,0-9,1.4-19.4,4.6l-1.2,0.4c-12.6,4-16.4,5-19.3,5c-1.8,0-2.1-0.1-10-2.8c-1.9-0.6-3.3-1.1-4.7-1.5C93.7,5.8,90,5.4,87.2,6.3
			c-3.5,1.1-5.5,4.2-5.8,9.6l-0.2,2.8l-0.1,2.7C80.5,32.2,80,37,78.9,41c-1.4,5-3.8,7.4-7.6,7.4c-5.4,0-6.9,0.6-8.4,3.5
			c0.2-0.5-2.6,5.9-4.2,8.7c-1.4,2.5-7.4,12.5-8.2,13.8c-1.3,2.2-2.4,4.1-3.4,5.9c-3.6,6.5-6.2,11.9-7.7,16.3
			c-3.1,9.4-5.5,18.2-6.1,24.4c-1,9.5,2.3,11,10.6,2.3c7.5-7.9,15.2-15.2,23-21.9c1.8-1.6,7.3-6.2,8.1-7c1.9-1.6,3.8-3.3,5.6-5.2
			l1-1.1c1.2-1.3,2.4-2.5,3.7-3.7C94.7,76,103,74.3,111,83.4c11.7,13.2,19.6,36.5,19.6,55.6c0,19-0.4,24.8-2.6,32.7
			c-0.7,2.5-1.6,4.8-2.5,7c-3.4,7.9-6.2,16.4-6.7,21.7c-0.7,7.6,2.8,8.4,11.2,1c7-6.2,11.8-15.2,15-26.8c1.3-4.9,2.4-10,3.2-15.3
			c0.5-3,1.6-11.7,1.8-12.5c0.2-1.6,0.5-3.2,0.9-4.7c3.8-14.7,10.8-30.1,18.5-36.8c4.1-3.5,6.9-9.9,10.3-21.2
			c0.4-1.5,2.2-7.7,2.7-9.2c1.8-6,3.2-9.5,4.7-11.7c5.2-7.2,14.7-10.9,25.8-10.9c3.9,0,8.6-1.3,14.4-3.6c2.6-1.1,5.2-2.3,7.8-3.5
			c-0.7,0.3,8.1-4,10.1-4.9c7.3-3.3,21.2-5,33.1-5c9.2,0,14.8-9.5,20.5-39.3c3.5-18.5,3.5-26.9,1.4-35.1c0,0-0.5-1.9-0.6-2.4
			c-0.5-2.1-0.8-3.7-0.8-5.7c0-4,0-4,1.3-24.4c0.2-3.7,0.4-6.8,0.6-9.7c0.5-8.5,0.7-15.3,0.7-20.9c0-0.9,0-1.9,0-3h-0.5
			c0,1.1,0,2.1,0,3c0,5.6-0.2,12.4-0.7,20.8c-0.2,2.9-0.3,5.9-0.6,9.6C298-51.1,298-51.1,298-47.1c0,2.1,0.3,4.2,0.8,6.1l0.6,2.4
			c2,8,2,16.1-1.4,34.4c-5.6,29.4-11,38.7-20,38.7c-11.9,0-25.9,1.7-33.2,5c-2,0.9-10.7,5.2-10.1,4.9c-2.6,1.3-5.2,2.4-7.8,3.5
			c-5.7,2.3-10.4,3.6-14.3,3.6c-11.2,0-20.8,3.7-26.1,11.1c-1.6,2.3-3,5.9-4.9,12c-0.5,1.5-2.2,7.7-2.7,9.2
			c-3.3,11.1-6.1,17.4-10.1,20.8c-7.9,6.7-14.9,22.3-18.8,37.3c-0.4,1.6-0.7,3.2-0.9,4.8c-0.1,0.8-1.3,9.5-1.8,12.5
			c-0.8,5.2-1.8,10.3-3.2,15.1c-3.2,11.4-7.9,20.2-14.8,26.3c-8,7.1-11.1,6.4-10.5,0c0.5-5.1,3.3-13.5,6.6-21.3
			c1-2.2,1.8-4.6,2.6-7.1c2.3-8.1,2.7-14.1,2.7-33.2c0-19.4-8-43.1-19.8-56.5c-8.2-9.3-16.7-7.5-26.1,1.2c-0.8,0.8-1.7,1.6-2.6,2.6
			l-1.1,1.2l-1,1.1c-1.3,1.4-3,2.9-5.6,5.2c-0.8,0.8-6.3,5.4-8.1,7c-7.8,6.7-15.5,14-23.1,21.9c-8,8.3-10.7,7.1-9.9-1.2
			c0.6-6,3-14.8,6.1-24.1c1.4-4.4,4-9.7,7.6-16.2c1.1-2,2.2-4,3.4-5.9c0.8-1.3,6.7-11.3,8.2-13.8c1.6-2.9,4.5-9.2,4.2-8.7
			c1.3-2.6,2.7-3.2,8-3.2c4.1,0,6.6-2.6,8.1-8c1.2-4.2,1.7-9.1,2.2-20l0.1-2.7c0.1-1.1,0.1-2,0.2-2.8C82.4,6.9,88,5.2,98.4,8.1
			c1.4,0.4,2.8,0.9,4.7,1.5c8,2.7,8.3,2.8,10.1,2.8c3,0,6.7-1,19.4-5l1.2-0.4c10.4-3.2,15.8-4.6,19.3-4.6c5.2,0,12.4-3.2,18.8-9.2
			c8.2-7.6,14.7-19,18.8-34.1c2.6-9.9,3.7-20.2,3.4-31.2c-0.2-8.5-1-16.2-2.7-27.8l-0.8-5.3h-0.5l0.8,5.5
			C192.6-88.1,193.4-80.3,193.6-72z"/>
		<path class="st1" d="M82.6,151.5l1,0.9c1.8,1.8,4,2.6,5.7,1.8c2.2-1,3.4-4.3,3.4-10c0-11.8-7.3-13.7-10.8-4.6
			c-2.3,6-2.3,8.6-0.2,10.9C82,150.9,82.2,151.2,82.6,151.5z M82.3,140.3c1.4-3.7,3.9-5.7,6.1-5.2c2.3,0.6,3.8,3.9,3.8,9.2
			c0,5.3-1.1,8.1-3,9c-1.6,0.7-3.7-0.1-5.4-1.7l-1-0.9c-0.3-0.3-0.6-0.6-0.8-0.8C80.2,147.7,80.2,145.8,82.3,140.3z"/>
		<path class="st1" d="M239.7-50.1c-3.4,0-5-0.8-6.7-3c-0.3-0.4-2.7-3.7-3.7-4.9c-5.3-6.4-9-2.7-11.8,15.6c-0.4,2.6-1.3,5.3-2.6,8.3
			c-1.9,4.3-4.4,8.6-8.6,14.9C198-6.8,197.9-6.7,196.2-2.7c-2.6,5.8-2.5,10.4,0.8,13.6c6.7,6.5,9.4,8.7,12.2,9.5
			c3.3,0.9,6-1.1,8.6-6.7c2.6-5.6,4.6-7.3,9-9.4c2.4-1.1,3.6-1.9,4.9-3.5c1.3-1.5,2.6-2.8,4-3.9l0.9-0.8c0.4-0.3,0.6-0.6,0.9-0.8
			c3.7-3.3,5.9-6.2,7.8-10.7c1.4-3.4,3.2-5,6.3-6.1c0.4-0.2,0.6-0.2,1.6-0.5c3.4-1.1,4.8-1.9,6.1-4.3c1.3-2.5,1.8-3.6,2.1-4.7
			c0.1-0.4,0.2-0.7,0.3-1.2c0-0.2,0.4-2.1,0.6-2.9c0.4-1.9,0.8-3.7,1.3-5.5c2.9-11.1,3.2-18.1,0-27c-1.6-4.5-3.4-4.6-5.3-1.2
			c-0.6,1.1-1,1.8-2.3,4.8c-1.6,3.6-2.4,5.2-3.4,6c-2.6,2.2-7.1,6.5-7.7,7C243.6-50.3,242.5-50.1,239.7-50.1z M252.9-56.1
			c1.2-1,2.1-2.7,3.8-6.6c1.3-3,1.6-3.7,2.2-4.7c1.5-2.6,2.5-2.6,3.8,0.9c3,8.2,2.7,14.5,0,25c-0.6,2.2-1,4-1.3,5.6
			c-0.2,0.8-0.5,2.8-0.6,2.9c-0.1,0.4-0.2,0.7-0.2,0.9c-0.3,0.9-0.7,1.9-1.9,4.3c-1,2-2.3,2.8-5.5,3.8c-0.9,0.3-1.1,0.4-1.6,0.5
			c-3.3,1.2-5.4,3-7,6.8c-1.7,4.3-3.8,7-7.4,10.1l-0.9,0.8l-0.9,0.8c-1.4,1.1-2.8,2.5-4.1,4c-1.2,1.5-2.3,2.2-4.6,3.2
			c-4.6,2.1-6.7,4-9.5,10c-2.4,5.2-4.7,6.9-7.7,6.1c-2.6-0.7-5.3-2.9-11.9-9.3c-2.6-2.5-2.6-5.6-0.5-10.5c1.7-3.8,1.8-4,9.9-16.2
			c4.3-6.4,6.8-10.7,8.8-15.2c1.4-3.2,2.3-6.1,2.8-9c2.7-17.2,5.6-20.1,10.3-14.5c1,1.2,3.4,4.5,3.7,4.9c1.9,2.4,3.8,3.3,7.3,3.3
			c2.9,0,4.1-0.2,5.4-1.1C245.8-49.6,250.4-54,252.9-56.1z"/>
		<path class="st1" d="M16.6,157c0-17.8,11.1-72,16.5-78.6c6.7-8.2,16.9-28.2,18.8-38.3c0.9-4.9,2.6-6.7,6.7-8.5
			c3.7-1.7,5.1-2.7,6.2-5.3c0.8-1.9,1.5-5,2.3-10.7c0.1-0.8,1-6.7,1.3-8.5c1.8-11.8,3.7-18,6.6-19.7c1.3-0.8,1.6-1,5.1-3.7
			c3.8-3,6.1-4.4,8.7-4.9c3.4-0.6,6.6,0.7,9.8,4.5c2.9,3.4,6.5,4.9,10.7,4.7c3.2-0.1,6.4-1.1,10.4-2.8c0.9-0.4,3.8-1.7,4.3-1.9
			c1.4-0.6,2.2-0.9,2.7-0.9c2.6,0,4.6-0.1,7.4-0.3c4.1-0.3,8.1-0.9,11.8-1.9c4.4-1.2,8.3-2.8,11.4-4.9c10-6.7,17.2-18.7,17.8-28.4
			c0.1-2.5,0.2-2.9,1.4-11c1.2-8.1,1.7-13.1,1.4-18.6c-0.1-2.3-0.4-4.5-0.8-6.7c-0.8-4.1-1.4-9.4-1.8-15.8H175
			c0.4,6.8,1,12.3,1.8,16.2c0.4,2,0.7,4.2,0.8,6.4c0.3,5.3-0.2,10.3-1.4,18.2c-1.2,8.2-1.3,8.6-1.4,11.1c-0.5,9.3-7.7,21-17.5,27.6
			c-3.1,2.1-6.9,3.7-11.3,4.8c-3.7,1-7.7,1.6-11.8,1.9c-2.7,0.2-4.8,0.3-7.4,0.3c-0.6,0-1.4,0.3-2.8,0.9c-0.5,0.2-3.3,1.5-4.3,1.9
			c-4,1.7-7.2,2.7-10.3,2.8c-4.1,0.2-7.6-1.2-10.5-4.6c-3.3-3.9-6.6-5.3-10.1-4.7c-2.7,0.5-5,1.9-8.9,4.9c-3.5,2.7-3.8,2.9-5,3.7
			c-3.2,1.9-5.1,8.3-7,20.4c-0.3,1.8-1.1,7.7-1.3,8.5c-0.8,5.5-1.5,8.6-2.2,10.3C63.3,28,62,29,58.8,30.4c-4.6,2.1-6.5,4.1-7.5,9.4
			c-1.8,9.8-12,29.7-18.6,37.8C27.2,84.3,16,138.9,16,157c0,16-8.4,44.1-15.4,53.6c-2.3,2.9-4.7,5.7-7.1,8.3v0v1.2
			c3.1-3.6,6.3-7.2,7.4-8.7C8.1,201.8,16.6,173.3,16.6,157z"/>
		<path class="st1" d="M160.8,17.5c-2.3,1.7-4.5,2.9-6.8,4c-1.7,0.8-3.4,1.4-5.8,2.2c-0.3,0.1-4.6,1.5-6,2c-2.5,0.9-4.8,1.8-7.3,2.8
			c-10.7,4.5-12.9,5-19.6,5c-1.2,0-1.5-0.1-7.2-2c-1.3-0.4-2.2-0.7-3.2-1c-4.3-1.2-7.3-1.4-9.4-0.2c-2.7,1.6-3.5,5.4-2.2,11.8
			c1.1,5.5,2.6,9,4.8,11.3c1.8,1.8,3.6,2.7,7.3,3.8c4.9,1.5,5.6,1.7,8,2.9c3.3,1.6,6.5,4.1,9.5,7.3c4.2,4.5,7.4,11.3,10.2,20.5
			c1.4,4.7,4.9,19.3,5.5,21.2c1.9,6.4,3.8,7.4,6.5,2.2c2.5-4.9,5.3-8.3,10.8-13.9l1.1-1.1c4.2-4.2,6.2-6.6,8.3-9.6
			c2.7-4,4.6-8.3,5.7-13.5c4.3-19.9,10.5-32.7,16.3-32.7l2.8,0c5.5,0.1,9,0,12.9-0.3c7.2-0.6,12.4-2.1,15.4-4.8
			c3-2.7,6.9-5.5,12.5-9c1.8-1.1,3.3-2,6.6-4.1c4-2.5,5.7-3.6,7.9-4.9c2-1.2,3.9-2.5,5.9-3.7c1.9-1.2,3.1-2,4.2-2.8
			c1.2-0.9,2.4-1.9,3.5-3c1.1-1.1,2.1-2.3,3.1-3.6c1.7-2.2,3.1-3,6-4l0.6-0.2c3-1,4.8-2.4,6.9-5.9c4.3-7.3,4.7-23.8,2.2-45.5
			c-0.9-7.6-1.1-19.1-0.8-35.2c0.1-4.6,0.2-9.2,0.4-15.6l0.1-3.1h-0.5c-0.2,6.2-0.3,12.4-0.4,18.6c-0.3,16.2-0.1,27.8,0.8,35.5
			c2.5,21.3,2.1,37.6-2,44.5c-1.9,3.3-3.7,4.6-6.6,5.6l-0.6,0.2c-3.1,1-4.4,1.8-6.2,4.1c-1.1,1.4-2.1,2.5-3,3.5
			c-1.1,1.1-2.3,2.1-3.5,2.9c-1.1,0.8-2.3,1.6-4.2,2.8c-2,1.2-3.9,2.5-5.9,3.7c-2.1,1.4-3.9,2.5-7.9,4.9c-3.3,2.1-4.8,3-6.6,4.1
			c-5.6,3.5-9.5,6.3-12.5,9c-2.9,2.6-8.2,4.1-15.2,4.7c-3.9,0.3-7.4,0.4-12.9,0.3l-2.9,0c-6.1,0-12.4,13.1-16.8,33.3
			c-1.1,5-2.9,9.2-5.6,13.1c-2,3-4.1,5.3-8.2,9.5c0,0-0.9,0.9-1.1,1.1c-5.6,5.7-8.4,9.1-11,14.1c-2.4,4.6-3.9,3.9-5.6-2
			c-0.6-1.9-4-16.5-5.5-21.2c-2.8-9.4-6.1-16.3-10.4-20.9c-3-3.2-6.3-5.7-9.7-7.4c-2.4-1.2-3.2-1.4-8-2.9c-3.7-1.1-5.5-2-7.2-3.7
			c-2.1-2.1-3.5-5.5-4.6-10.7c-1.2-5.9-0.4-9.1,1.9-10.5c2-1.2,4.9-1,9.1,0.2c1,0.3,1.9,0.6,3.2,1c5.8,1.9,6,2,7.3,2
			c6.8,0,9.1-0.5,19.8-5c2.4-1,4.7-1.9,7.3-2.8c1.4-0.5,5.7-1.9,6-2c2.4-0.8,4.1-1.5,5.8-2.2c2.3-1.1,4.7-2.4,6.9-4
			c6.7-4.9,16-15.7,22.9-25.1c3.9-5.4,13.7-21.5,17.7-29.1c3.6-6.9,6.3-36.6,6.3-57.4c0-4.1,0.8-6,2.3-6.2c1.3-0.2,2.9,0.7,5.5,2.7
			l0.8,0.6c3.5,2.7,4.5,3.4,5.7,3.4c0.6,0,1.1,0.2,1.7,0.4c0.6,0.3,1.3,0.8,2.2,1.5l1.1,1c0.4,0.4,0.8,0.7,1.2,1.1
			c3.2,2.8,5.4,4.1,8.3,4.1c2.9,0,4.8-1.3,7.1-4.1l1.4-1.7c1.3-1.5,2.2-2.2,3.5-2.2c0.9,0,1.8-0.5,2.6-1.4c1.5-1.7,3-4.6,5.1-9.6
			c0.1-0.3,0.3-0.9,0.6-1.5h-0.6l-0.4,0.9c-2,4.9-3.5,7.8-4.9,9.3c-0.8,0.9-1.6,1.3-2.3,1.3c-1.3,0-2.4,0.7-3.8,2.4
			c-0.3,0.3-1.3,1.6-1.4,1.7c-2.2,2.7-4,3.9-6.8,3.9c-2.8,0-5-1.2-8.1-4l-0.6-0.5c-0.6-0.5-1.1-1-1.7-1.5c-0.9-0.7-1.6-1.2-2.3-1.5
			c-0.6-0.3-1.2-0.5-1.8-0.5c-1.1,0-2.1-0.7-5.5-3.3l-0.8-0.6c-2.7-2-4.3-2.9-5.7-2.7c-1.8,0.3-2.8,2.5-2.8,7.2
			c0,20.5-2.7,50-6.1,56.7c-3.9,7.5-13.7,23.6-17.6,28.9C176.8,1.9,167.5,12.7,160.8,17.5z"/>
		<path class="st1" d="M50.1,212.5c6.7-4.3,11.6-11.9,11.6-21.5c0-5.1-1.7-8.3-4.5-10.1c-1.4-0.9-2.9-1.3-4.4-1.4
			c-1.6,0.3-3.1,1.4-4.4,3c-2.3,2.8-3.8,7.2-4.3,13.5C43,210.7,45,215.8,50.1,212.5z M44.6,196.1c0.4-6,1.9-10.1,4-12.8
			c1.2-1.4,2.5-2.3,3.8-2.7c0.2,0,0.3-0.1,0.3-0.1c1.4,0,2.9,0.5,4.3,1.3c2.6,1.7,4.2,4.6,4.2,9.2c0,9-4.8,16.4-11.2,20.5
			C45.3,214.5,43.6,210.2,44.6,196.1z"/>
		<path class="st1" d="M24.3,250.4l0.3,0.1c3.9,1.5,5.5,2.8,6.2,5.8c1.1,4.8,5.9,5.2,12.8,2.3c6-2.5,12.8-7.3,17-11.9
			c8.1-8.8,17.9-33.9,17.9-44.9c0-4.9,1.5-8,4.7-10.7c0.5-0.5,2.5-2.1,2.9-2.4c0.4-0.4,0.8-0.7,1-1c0.4-0.5,0.9-0.9,1.6-1.5
			c4.1-3.5,5.9-5.8,8.9-13.8c0.5-1.3,3.9-9.5,4.5-11.3c1-3.4,1.3-6.7,1.3-14.3c0-7.1-2.3-16.5-5.7-23.7c-3.7-7.8-8-11.6-11.6-9.1
			c-7.2,5-8.3,6-13.1,12c-1.2,1.5-4.9,6.7-5.7,7.7c-1.8,2.2-3.4,3.2-5.4,3.2c-4.6,0-5.9,1.7-8.2,9.5c-0.7,2.4-1.2,2.5-3.9,1.5
			c-3.1-1.2-5.2-0.9-7.9,2.1c-8.4,9.5-14.3,24.5-14.3,42.9c0,8.7-1.6,16.5-5.1,27.2c-0.4,1.4-2,6-1.9,5.8c-0.7,2.2-1.2,3.8-1.7,5.4
			c-1.1,3.9-1.7,6.9-1.7,9.7c0,3.1,0.8,5.3,2.3,6.8C20.7,248.8,21.8,249.4,24.3,250.4z M19.9,232.2c0.4-1.5,0.9-3.1,1.6-5.3l1.9-5.8
			c3.6-11,5.3-19.1,5.3-28.3c0-17.6,5.6-32,13.7-41.2c2.5-2.8,4.3-3,7.2-1.9c1.7,0.7,2,0.8,2.7,0.6c1-0.2,1.7-1.2,2.3-3.1
			c2.2-7.3,3.1-8.5,7.3-8.5c2.2,0,4-1.1,6-3.5c0.9-1,4.5-6.2,5.7-7.7c4.7-5.9,5.7-6.9,12.9-11.8c3.1-2.2,7,1.3,10.5,8.6
			c3.2,6.8,5.4,15.8,5.4,22.3c0,7.2-0.3,10.3-1.2,13.3c-0.5,1.7-3.9,9.8-4.4,11.1c-3,7.6-4.6,9.8-8.5,13.1c-0.7,0.6-1.2,1.1-1.7,1.6
			c-0.2,0.3-0.5,0.6-0.9,0.9c-0.3,0.3-2.3,1.9-2.9,2.4c-3.5,3.1-5.3,6.7-5.3,12.6c0,10.1-9.6,34.7-17.4,43.1
			c-9.6,10.5-26.7,17.6-28.3,10.5c-0.9-3.8-2.7-5.3-6.9-7l-0.3-0.1c-4.7-1.9-6.2-3.3-6.2-7.5C18.4,238.5,18.9,235.8,19.9,232.2z"/>
		<path class="st1" d="M94.3,157.1L94.3,157.1c1.9-13.3,1-22.9-3.8-26.6c-2.7-2.1-4.8-1.7-7.3,0.7c-0.7,0.7-1.4,1.5-2,2.3l-1.1,1.3
			c-0.8,1-1.5,1.9-2.3,2.7c-4.6,4.9-2.7,17.2,2.6,22.9C86.6,167,92.9,166.9,94.3,157.1z M78.1,138.4c0.4-0.4,0.8-0.9,1.2-1.4
			c0.3-0.4,0.7-0.8,1.1-1.4l1.1-1.3c0.6-0.8,1.3-1.6,2-2.3v0c2.3-2.3,4.3-2.7,6.8-0.7c4.4,3.4,5.3,12.6,3.5,25.4
			c-1.3,8.9-7.2,9-13.1,2.7C75.7,154.2,74,142.8,78.1,138.4z"/>
		<path class="st1" d="M10.4,258.4c1.4,2,2.6,4.3,3.6,6.9c2.3,6,2.8,11.1,2.6,20.5c-0.1,6.5,0,8.6,1,10.5c3.4,6.6,16.6,1.7,22.7-9
			c1.4-2.5,3.4-5.4,6.8-9.8c0.9-1.2,4.4-5.8,4.5-5.9c1.6-2.1,3.2-4.3,4.8-6.4c7.7-10.6,12.8-19.3,15.7-28c2.6-7.6,8-26.7,8.3-27.8
			c1.6-5.1,3.1-8.1,5.1-10c3.6-3.4,8.7-9.7,13.1-16.4c6-9.3,10.3-18.8,11.9-27.9c1.7-9.2-1-21-6.6-32.5
			c-4.6-9.6-10.6-17.2-13.3-17.2c-5.7,0-13.4,5.6-18.8,14.1c-1.9,3-3.9,4.7-6.8,5.9c-0.7,0.3-1.2,0.5-2.6,1
			c-4.3,1.6-6.3,2.8-8.2,6.1c-1.7,2.8-3.2,4.1-6.4,5.7c-5.9,3.1-8.3,5-12.3,11.3c-5.7,8.9-5.7,9-6.3,11.4c-0.3,1.3-0.5,2.5-0.8,5.5
			c-0.5,4.9-0.7,6.6-1.2,10.4c-0.5,3.5-0.9,6.9-1.2,10.6c-0.1,1.4-0.3,2.9-0.5,4.7c-0.1,1.5-0.3,2.9-0.4,4.4
			c-1,10.5-1.9,15.4-4,20.1c-0.8,1.7-1.7,3.3-2.7,4.8c-0.2,0.3-2.9,4.5-3.7,5.8c-5.3,8.6-7.8,15.1-7.3,21.7
			C7.3,252.3,8.4,255.5,10.4,258.4z M14.7,228c0.8-1.3,3.4-5.4,3.7-5.8c1-1.5,1.9-3.1,2.8-4.9c2.2-4.8,3.1-9.9,4.2-20.5l0.2-2.1
			c0.2-2.3,0.4-4.6,0.7-7c0.4-3.8,0.8-7.1,1.2-10.6c0.5-3.8,0.7-5.6,1.2-10.4c0.3-2.9,0.5-4.1,0.8-5.2c0.6-2.2,0.6-2.3,6.2-11.1
			c3.9-6.2,6.2-8,12.1-11.1c3.2-1.7,4.9-3,6.6-5.9c1.9-3.2,3.7-4.3,8-5.9c1.4-0.5,1.9-0.7,2.6-1c2.9-1.3,5-3,7-6.1
			c5.3-8.4,13-13.9,18.5-13.9c2.6,0,8.4,7.4,13,16.8c5.4,11.2,8.1,22.7,6.5,31.5c-1.6,8.9-5.8,18.2-11.8,27.4
			c-4.3,6.7-9.5,12.9-13,16.3c-2,2-3.6,5.1-5.3,10.4c-0.4,1.1-5.8,20.3-8.3,27.8c-2.9,8.5-7.9,17.2-15.5,27.7
			c-1.4,2-2.9,3.9-4.8,6.4l-4.5,5.9c-3.4,4.5-5.4,7.4-6.8,9.9c-5.9,10.4-18.8,15.1-21.9,9c-0.9-1.7-1-3.6-0.9-9.8
			c0.2-9.6-0.3-14.9-2.7-21.2c-1-2.5-2.2-4.9-3.8-7.1c-1.9-2.8-3-5.7-3.2-8.8C7.1,242.7,9.5,236.4,14.7,228z"/>
		<path class="st1" d="M1.9,305.2c0,8.6,2.4,13.4,7.7,13.4c9.3,0,22.8-10,33.8-22.1c9-9.9,29.2-41.4,33.8-54.2
			c7.3-20.3,14.7-34.4,27.4-47.9c6.9-7.3,11.1-15.1,13.3-23.5c1.6-6,1.9-10.7,1.9-19c0-11.2-0.4-18.9-1.9-27.8
			c-1.7-9.4-4.4-17.1-8.5-22.7c-11.1-15-15.7-16.7-25.7-8.1c0.4-0.3-8.8,7.6-11,9.5c-4.9,4.4-9.8,9.2-14.4,14.5c-3,3.3-6,6.3-9.2,9
			l-2.3,1.9c-0.5,0.5-1,0.8-1.4,1.2c-2.2,2-4.1,4-6.3,7v0c-0.9,1.2-1.8,2.3-2.8,3.4c-0.4,0.4-2,2.2-2.4,2.7
			c-4.4,5-6.2,10.2-7.8,25.3c-2.7,25.3-4.4,33.4-9.3,44.8c-1.4,3.2-2.9,6.1-5.5,10.8c-4.4,7.7-4.8,8.5-6.2,11.5
			c-1.9,4.2-2.9,7.7-2.9,11.1c0,3.4,0.4,5.4,2,12.5c2.2,9.4,2.6,14.9,1.1,22.3C3,291.4,1.9,298.8,1.9,305.2z M4.5,258.2
			c-1.6-7-2-8.9-2-12.1c0-3.1,0.9-6.4,2.7-10.4c1.3-2.9,1.8-3.8,6.1-11.4c2.7-4.7,4.2-7.7,5.6-10.8c5-11.5,6.6-19.8,9.4-45.2
			c1.6-14.8,3.3-19.8,7.6-24.6l2.4-2.7c1-1.1,1.9-2.2,2.8-3.4c2-2.7,4-5,6.2-6.9c0.4-0.4,0.9-0.8,1.4-1.2l2.3-1.9
			c3.2-2.6,6.3-5.7,9.3-9c3.9-4.4,7.8-8.4,11.9-12.2c0.8-0.8,1.6-1.5,2.5-2.3c2.2-1.9,11.3-9.8,11-9.5c9.7-8.5,14.2-6.9,25.1,8
			c4,5.4,6.7,12.9,8.3,22.2c1.5,8.7,1.9,16.3,1.9,27.4c0,8.2-0.3,12.7-1.9,18.5c-2.1,8.2-6.2,15.8-13,23
			c-12.8,13.6-20.3,27.7-27.6,48.2c-4.5,12.7-24.7,44-33.6,53.9c-10.9,12-24.4,21.9-33.6,21.9c-4.9,0-7.1-4.3-7.1-12.4
			c0-6.2,1.1-13.5,3.2-23.9C7.3,273.5,6.8,267.8,4.5,258.2z"/>
		<path class="st1" d="M33.8,244.5c2.9,2.2,5.4,3.1,8,2.9c3.6-0.4,6-2,14.5-8.9c8.6-7,14.7-25.4,18.8-50.3c0.7-4.5,2-7.4,3.9-9.4
			c1.5-1.6,2.9-2.4,6-3.7c1-0.4,1.2-0.5,1.6-0.7c4.8-2.1,7.6-4.9,9.7-11.1c5.3-15.8,2.9-30.7-4.8-38.7c-3.1-3.2-4.4-4-5.7-3.1
			c-0.4,0.2-0.8,0.6-1.3,1.2c-0.3,0.3-1.5,1.7-1.5,1.8v0c-1.6,2-3.4,3.7-5.2,5.1c-1,0.8-1.8,1.5-2.6,2.4c-1.3,1.3-2.5,3-3.5,5
			c-0.6,1.1-2.1,4.4-2,4.2c-1.2,2.4-2.2,3.4-4.2,3.4c-3.1,0-4.6,1.5-6.4,5.5c-0.1,0.3-1.1,2.5-1.4,3.2c-0.5,1.2-1.1,2.4-1.7,3.4
			c-0.3,0.5-0.6,1-0.9,1.3c-1.2,1.4-2.2,1.8-4.7,2c-3.9,0.4-5.9,1.1-9.3,3.5c-2.9,2.1-4.8,5.7-6.1,11.1c-1,4.4-1.6,9.2-2.3,18.7
			c-0.2,3-0.5,5.9-0.7,8.9c-0.3,3.6-0.6,6.6-0.9,9.7c-0.6,5.1-2.4,18.5-2.5,20.7c-0.3,4.6,0.2,7,2.3,9.3
			C31.8,242.9,32.8,243.7,33.8,244.5z M29.1,232.7c0.2-2.1,1.9-15.4,2.5-20.6c0.3-3.1,0.6-6.2,0.9-9.7l0.4-4.6l0.3-4.3
			c0.7-9.3,1.3-14.1,2.3-18.4c1.2-5.2,3-8.6,5.8-10.6c3.4-2.4,5.4-3.1,9.2-3.5c2.6-0.3,3.6-0.7,4.9-2.2c0.3-0.4,0.7-0.9,1-1.4
			c0.6-1.1,1.2-2.3,1.8-3.5c0.3-0.7,1.2-2.9,1.4-3.2c1.6-3.8,3-5.2,6-5.2c2.2,0,3.3-1,4.6-3.7c0.6-1.4,1.3-2.8,2-4.2
			c1-1.9,2.2-3.5,3.4-4.8c0.8-0.8,1.6-1.6,2.5-2.3c1.8-1.4,3.6-3.2,5.3-5.2c0.1-0.1,1.2-1.5,1.5-1.8c0.5-0.5,0.8-0.9,1.2-1.1
			c1.2-0.7,2.3,0,5.3,3.1c7.4,7.7,9.7,22,4.6,37.3c-2,6-4.7,8.6-9.4,10.7c-0.4,0.2-0.6,0.3-1.6,0.7c-3.2,1.3-4.6,2.1-6.2,3.8
			c-2,2.1-3.4,5.3-4.1,10c-4,24.7-10.1,42.9-18.5,49.7c-8.5,6.9-10.9,8.5-14.3,8.8c-2.5,0.3-4.9-0.6-7.8-2.8c-1.3-1-2.2-1.8-2.9-2.6
			C29.3,238.9,28.8,236.9,29.1,232.7z"/>
		<path class="st1" d="M126.9-105.1h-1.5c-3,1.8-6.6,2.5-11.6,2.5c-1.9,0-4.4-0.9-7.3-2.5h-1.8c3.7,2.3,6.8,3.5,9.1,3.5
			C119.6-101.6,123.7-102.5,126.9-105.1z"/>
		<path class="st1" d="M55.3,232.4c6.5-9,9.5-15.6,12-25.2c3.7-14.1,5.7-29.6,3.1-35.6c-3.2-7.1-8.5-9-16.8-6.2
			c-1.7,0.6-2.8,0.8-5.6,1c-3.5,0.3-4.9,0.8-6.4,2.6c-1.8,2.3-3,6.5-3.8,13.7c-0.4,3.8-0.8,7.3-1.6,14.1l-0.1,0.5
			c-1.5,12.3-2,17.3-2.5,23c-0.5,7.6-0.4,12.8,0.5,15.7C36.9,244.6,48,242.5,55.3,232.4z M34.2,220.7c0.4-5.6,1-10.7,2.4-22.9
			l0.1-0.5c0.8-6.8,1.2-10.3,1.6-14.2c0.7-7,1.9-11,3.5-13.1c1.4-1.7,2.7-2.1,6.1-2.5c2.8-0.3,4-0.5,5.7-1c8.2-2.8,13.3-1,16.3,5.8
			c2.4,5.5,0.4,20.7-3.1,34.5c-2.4,9.4-5.4,15.9-11.8,24.8c-7.1,9.8-17.9,11.9-20.4,4.2C33.8,233,33.7,228,34.2,220.7z"/>
		<path class="st1" d="M52.2,227.4c4.6-5.9,12.8-22.8,14.1-31.3c1.2-7.8,1.7-11.9,1.4-15.9c-0.3-5.6-2.1-8.7-5.8-8.7
			c-1,0-1.8,0-3.8-0.1l-2-0.1c-4.1-0.2-6.8,0.1-9.1,1.3c-2.9,1.5-4.8,4.5-5.6,9.3l-0.2,1.2c-0.5,3.4-1.1,6.7-1.6,10.1
			c-0.5,3.1-0.9,6-1.2,8.8c-1.8,14.4-2.1,23.6,0,26.5C41.8,233.1,48.6,232.1,52.2,227.4z M39,202.2c0.4-2.7,0.8-5.6,1.2-8.7
			c0.3-1.9,0.6-3.9,0.9-6.1c0.3-1.7,0.6-3.5,0.8-5.2c0.7-4.4,2.4-7.2,5.2-8.6c2.2-1.2,4.8-1.5,8.9-1.3l2,0.1c2,0.1,2.8,0.2,3.8,0.2
			c3.4,0,5,2.7,5.3,7.8c0.2,3.9-0.2,7.9-1.4,15.6c-1.3,8.2-9.4,25-13.9,30.7c-3.5,4.5-10,5.4-13.2,1C37,225.1,37.2,216.1,39,202.2z"
			/>
		<path class="st1" d="M233.1-39.5L233.1-39.5c-1-1.4-1.9-2.9-2.9-4.6c-0.4-0.6-1.8-3.1-2.1-3.7c-1.5-2.4-2.3-3.1-3.2-1.9
			c-1,1.3-1.9,4.9-3.5,13.4c-1.3,6.9-3.8,12.7-7.5,18.3c-1.5,2.3-6.3,8.8-7,9.9c-1.9,3.1-2.2,5.3-0.4,7.3c0.4,0.5,0.8,0.9,1.2,1.4
			l1,1.3c0.6,0.8,1.2,1.4,1.9,2c2.8,2.3,5.5,0.2,12.3-9.7c2.6-3.7,5.7-6.9,9.8-10.2c1.9-1.6,9-6.6,10.4-7.7
			c5.2-4.2,7.2-7.7,6.4-12.7c-0.5-3.1-1.4-4.5-2.7-4.5c-0.9,0-1.2,0.2-4,2.1C238.5-35.7,236-35.6,233.1-39.5z M242.7-37.6
			c2.7-1.9,3-2.1,3.8-2.1c1.1,0,1.8,1.1,2.2,3.8c0.7,4.2-1.2,7.5-6.1,11.4c-1.4,1.1-8.4,6.2-10.4,7.7c-4.1,3.3-7.3,6.5-9.9,10.3
			c-6.6,9.6-9.2,11.6-11.8,9.6c-0.5-0.4-1-1-1.8-1.9l-1-1.3l-1.2-1.4c-1.3-1.6-1.2-3,0.5-5.7c0.7-1.1,5.5-7.6,7-9.9
			c3.7-5.8,6.3-11.7,7.6-18.8c1.5-8.2,2.5-11.8,3.3-12.9c0.6-0.8,1.3-0.3,2.6,1.8c0.3,0.5,1.7,3.1,2.1,3.7c1,1.7,1.9,3.2,3,4.6l0,0
			C235.8-34.5,238.5-34.7,242.7-37.6z"/>
		<path class="st1" d="M290.9,270.6c-2.1,3.2-2.2,3.4-11.5,14.7l-2.3,2.8c-4.7,5.9-7.8,10.1-9.7,13.8c-2.4,4.7-2.9,8.3-0.8,10.5
			c1,1,1.9,2.1,2.8,3.3l1.7,2.1c3,3.7,5,5.4,7.7,5.9c3.3,0.6,7.1-0.9,11.9-5.3c3.3-3,10.4-8.3,10.6-8.4c1.4-1.2,2.5-2.5,3.3-4.1
			v-1.5c-0.9,2-2,3.3-3.5,4.7c-0.1,0.1-7.2,5.5-10.6,8.4c-4.8,4.3-8.5,5.8-11.7,5.2c-2.5-0.5-4.5-2.2-7.4-5.8l-1.7-2.1
			c-1.1-1.4-2-2.4-2.9-3.3c-1.7-1.8-1.4-4.6,0.9-8.9c1.9-3.6,4.9-7.8,9.6-13.7c0.8-1,1.5-1.9,2.3-2.8c9.3-11.4,9.5-11.5,11.6-14.8
			c5.7-8.9,10-13.8,13.3-14.9v-1C301.1,256.6,296.7,261.6,290.9,270.6z"/>
		<path class="st1" d="M294,273.8c-0.4,0.6-2,3.1-2.4,3.7c-0.9,1.3-1.6,2.3-2.2,3.1c-0.4,0.5-2.9,3.3-3.2,3.8
			c-1.7,2-3.2,3.8-4.6,5.6c-1.6,2.1-3.1,4.1-4.3,6c-2.5,3.9-4,7.2-4.3,9.9c-0.4,3.4,0.9,5.7,4.1,6.7c5.7,1.8,11.1,0,16.1-4.7
			c3.3-3.1,6.4-7.3,9-12.4c0.9-1.9,1.7-4,2.4-6.2v-1.9c-0.8,2.7-1.7,5.2-2.8,7.4c-2.6,5-5.6,9.1-8.9,12.2
			c-4.9,4.6-10.2,6.4-15.8,4.7c-2.9-0.9-4-2.8-3.7-5.5c0.3-2.5,1.7-5.6,4.1-9.4c1.4-2.1,2.8-4.1,4.2-5.9c1.4-1.8,2.9-3.6,4.6-5.6
			c0.4-0.4,2.8-3.2,3.2-3.8c0.8-1,1.5-2,2.3-3.1l2.4-3.7c3.9-6,6.8-8.8,10.2-9.1v-1C300.9,264.8,298,267.7,294,273.8z"/>
		<path class="st1" d="M296.1,248.2c-1.1,1.7-2.2,3.4-3.3,5.1c-1.5,2.2-3,4.3-4.6,6.3c-2.9,3.8-6.5,8-11.8,14l-1.3,1.5
			c-11.3,12.8-11.3,12.8-14.3,16.5c-4.2,5.2-9,8.5-17.4,12.6c-0.4,0.2-8.5,4-11.1,5.3c-7.7,3.9-10,7.9-11.9,17.8
			c-0.3,1.4-0.5,2.7-0.8,4.1c-0.3,1.6-0.6,3-1,4.4c-1.4,5.3-3.6,9.5-9.4,19.1c-5.1,8.4-7.1,12.1-8.7,16.8c-0.5,1.4-1,2.9-1.4,4.5
			c-0.5,1.8-1.1,3.7-1.8,6.3c-3.9,14.7-5.6,20-10.3,30.2c-3.6,7.8-5,12-5.4,16.3c-0.2,2-0.2,3.2-0.1,7.6c0.1,5.6,0.1,9.5-0.3,15.3
			c-0.7,11.1-0.2,21,1.4,37.3l0.6,5.8h0.5h0l-0.6-6c-1.6-16.2-2.1-26-1.4-37c0.4-5.9,0.4-9.8,0.3-15.5c-0.1-4.4-0.1-5.6,0.1-7.4
			c0.4-4.1,1.7-8.2,5.3-15.9c4.7-10.3,6.4-15.6,10.3-30.4c0.7-2.6,1.2-4.4,1.7-6.3c0.4-1.5,0.9-3,1.4-4.5c1.6-4.6,3.6-8.3,8.6-16.6
			c5.9-9.7,8.1-14,9.5-19.5c0.4-1.5,0.7-3,1-4.5l0.8-4.1c0.9-4.8,1.6-7.3,3-9.7c1.7-3,4.4-5.4,8.5-7.5c2.6-1.3,10.6-5.1,11.1-5.3
			c8.4-4.1,13.2-7.4,17.5-12.7c3-3.8,3-3.8,14.3-16.5l1.3-1.5c5.3-6,8.9-10.2,11.8-14c1.6-2,3.1-4.1,4.6-6.4
			c0.8-1.3,3.4-5.2,3.3-5.1c2.5-3.8,5.2-7.2,8-9.9V238C301.5,240.8,298.7,244.2,296.1,248.2z"/>
		<path class="st1" d="M284.1,246.7c-2.9,6-6.4,10.1-11.6,14.2c-0.8,0.6-1.5,1.2-2.5,1.9l-2.5,1.8c-5.1,3.8-7.7,6.3-9.8,10.1
			c-2.2,3.9-5,6.6-8.7,8.8c-1,0.6-2.1,1.2-3.4,1.8l-3.2,1.5c-2.7,1.3-4.3,2.4-5.5,3.8c-1.6,1.9-3.4,3.3-6.6,5
			c-0.8,0.5-1.7,0.9-2.5,1.4c-1.1,0.6-1.9,1-2.7,1.5c-2,1.1-3.9,2.5-5.8,4.1c-1.4,1.2-2.9,3.9-4.6,8.4c-1.1,3-2.2,6.1-3.2,9.2
			c-3,9.1-3.9,11.7-5.3,14.5c-0.7,1.5-1.5,2.9-2.4,4.2c-1.2,1.9-5.4,7.5-6.1,8.7c-0.8,1.1-1.4,2.5-1.9,4.2c-0.6,2.3-1,4.6-1.4,8.9
			c-1.1,10.6-1.8,14.8-4.3,22.1c-2.1,6.3-3.5,9.9-5.1,13c-0.2,0.5-0.5,1-0.8,1.5l-1.9,3.6c-0.9,1.6-1.6,3.1-2.5,4.9
			c-2.4,4.8-4.1,10.6-5.1,16.9c-1.3,8.1-1.4,15.5-0.9,27.2c0.2,5.8,0.3,6.4,0.3,8.2c0,10.5,0.1,17.5,0.3,25.8
			c0.1,4.1,0.3,7.8,0.5,11.2h0.5c-0.6-9.6-0.8-21.8-0.8-37c0-1.9,0-2.4-0.3-8.3c-0.5-11.6-0.4-18.9,0.9-26.9c1-6.2,2.7-11.9,5-16.6
			c0.9-1.8,1.6-3.3,2.5-4.9c0.3-0.6,1.6-3,1.9-3.6c0.3-0.5,0.5-1,0.8-1.5c1.6-3.2,3-6.8,5.2-13.2c2.5-7.4,3.2-11.7,4.3-22.4
			c0.4-4.2,0.8-6.4,1.4-8.6c0.4-1.3,0.9-2.5,1.8-3.9c0.7-1.2,4.9-6.8,6.1-8.7c0.9-1.4,1.7-2.8,2.4-4.3c1.4-2.8,2.4-5.5,5.4-14.7
			c1-3.1,2.1-6.2,3.2-9.2c1.7-4.3,3.1-7,4.3-8.1c1.8-1.5,3.7-2.8,5.8-4c1.3-0.8,2.6-1.5,3.9-2.2l1.2-0.7c3.2-1.8,5.1-3.2,6.7-5.2
			c1.1-1.3,2.6-2.3,5.3-3.7l3.2-1.5c1.3-0.6,2.4-1.2,3.4-1.8c3.8-2.3,6.6-5.1,8.9-9.1c2.1-3.7,4.7-6.2,9.7-9.9l2.5-1.8
			c1-0.7,1.8-1.3,2.5-1.9c5.2-4.2,8.8-8.3,11.8-14.4c3.1-6.5,7.2-12.4,12.7-18.9c0.8-1,4.1-4.6,7.3-8.3v-1.2
			c-3.4,3.8-6.8,7.6-7.6,8.6C291.4,234.1,287.3,240.1,284.1,246.7z"/>
		<path class="st1" d="M301.1,345c0,5.1-1.5,9.8-4.7,16.5c-0.1,0.3-2.1,4.4-2.6,5.5c-0.9,2-1.5,3.6-1.8,5c-0.8,3.6-0.1,6.4,2.5,8.4
			c2.3,1.8,3.6,3.9,4,6.3c0.4,1.8,0.3,3.3,0,6.8c-0.1,1.1-0.2,1.6-0.2,2.2c-0.3,3.6,0,6.2,1.3,8.6c1.3,2.5,1.9,8.8,2.9,24.5l0.1,2
			l0.1,2c0.6,9.7,1.1,15.7,1.7,20.3v-4.3c-0.4-4-0.8-9-1.2-16l-0.1-2l-0.1-2c-1-16.1-1.6-22.3-3-25.1c-1.1-2.2-1.4-4.5-1.2-7.8
			c0-0.6,0.1-1.1,0.2-2.1c0.4-3.7,0.4-5.4,0-7.4c-0.5-2.7-1.9-4.9-4.3-6.8c-2.4-1.9-3-4.1-2.3-7.1c0.3-1.3,0.9-2.8,1.7-4.8
			c0.5-1.2,2.8-5.9,2.6-5.5c3.3-6.9,4.8-11.7,4.8-17.2c0-2.2,0.2-4.5,0.7-6.5c0.5-2,1.2-3.8,2.1-5.2v-1.3c-1.1,1.4-1.9,3.4-2.5,5.6
			C301.4,340,301.1,342.5,301.1,345z"/>
		<path class="st1" d="M260.1,360.5c-3,0-5.2,2.7-7.1,7.5c-0.3,0.9-0.7,1.8-1,2.7l-0.8,2.3c-0.9,2.7-1.9,7.1-2,10.6
			c-0.2,4.9,0.9,7.9,3.7,7.9c5.2,0,12.3-8.8,13.9-15.3C268.3,370.1,264.8,360.5,260.1,360.5z M266.3,375.8L266.3,375.8
			c-1.5,6.1-8.4,14.7-13.4,14.7c-2.4,0-3.4-2.4-3.2-6.8c0.2-3.3,1.1-7.6,2-10.1c0.2-0.5,0.8-2.3,0.8-2.3c0.4-1,0.6-1.8,1-2.6
			c1.8-4.6,3.8-7.1,6.6-7.1C264.5,361.5,267.7,370.3,266.3,375.8z"/>
		<path class="st1" d="M230.2,396.6c-2.1-0.3-3.7,1.8-3.7,6.5c0,5.7,4,6.5,6.7,1.3c1.3-2.5,1.2-4.6,0.1-6.1
			C232.5,397.4,231.3,396.7,230.2,396.6z M232.8,403.7c-2.4,4.6-5.8,3.9-5.8-0.6c0-4,1.3-5.8,3.2-5.5h0c1,0.2,2.1,0.8,2.8,1.6
			C233.8,400.3,233.8,401.7,232.8,403.7z"/>
		<path class="st1" d="M287.6,227l-1.6,2.9c-8.6,15.2-9.8,17.2-12.2,19.7c-1.8,1.9-3.4,2.7-7,3.6c-1,0.3-1.4,0.4-2,0.6
			c-4,1.3-6.7,3.6-9.2,8.9c-1.3,2.9-3,5-4.9,6.2c-1.6,1-2.9,1.2-5.7,1.4c-3.2,0.2-4.5,0.6-5.9,2.3c-1.3,1.6-1.6,2-2.2,2.6
			c-0.9,1-1.8,1.9-2.7,2.7c-2.6,2.2-6.2,4.3-13.1,7.6c-2.9,1.4-5.3,4.1-7.5,8.2c-1.7,3.2-3.1,6.5-5.4,12.8l-0.9,2.5
			c-4.6,12.4-7.6,18.1-12.6,21.6c-3.5,2.4-5.7,4.7-7.1,7c-1.2,2-1.7,4.2-1.8,6.7c-0.1,1.9,0,2.8,0.5,7.6c0.4,3.4,0.5,5.6,0.5,8.2
			c0,14.4-4,26.4-15.5,44.6c-3.8,6-5.7,13.4-6.2,22.7c-0.4,7.1-0.1,13.9,1,26.5l0.2,1.9c1.1,12.6,1.4,18,1.3,24.4
			c-0.1,5.6-0.2,10.3-0.1,15h0.5c0-4.8,0-9.4,0.1-15c0.1-6.5-0.2-11.9-1.3-24.6l-0.2-1.9c-1.1-12.5-1.4-19.2-1-26.2
			c0.5-9,2.4-16.2,6-22c11.5-18.4,15.6-30.6,15.6-45.4c0-2.7-0.2-5-0.5-8.4c-0.5-4.7-0.6-5.5-0.5-7.3c0.1-2.3,0.6-4.2,1.7-6
			c1.3-2.3,3.5-4.5,6.9-6.8c5.2-3.6,8.2-9.4,12.8-21.9l0.9-2.5c4.7-12.9,7.6-18.1,12.6-20.6c6.9-3.3,10.6-5.5,13.2-7.7
			c1-0.8,1.9-1.7,2.8-2.8c0.7-0.8,1.5-1.7,2.2-2.6c1.3-1.6,2.5-1.9,5.6-2.1c2.9-0.2,4.2-0.5,5.8-1.5c2-1.2,3.8-3.5,5.2-6.5
			c2.4-5.1,5-7.3,8.9-8.6c0.5-0.2,1-0.3,2-0.6c3.6-1,5.3-1.7,7.2-3.7c2.4-2.5,3.6-4.5,12.3-19.8l1.6-2.9c5-8.7,8.3-13.7,11-16.3
			c2.1-2,3.8-4.5,5.6-8.1V202c-1.9,3.9-3.6,6.5-5.8,8.6C295.9,213.2,292.6,218.3,287.6,227z"/>
		<path class="st1" d="M301.5,374.7c-0.2,1.4-0.1,2.7,0.5,5.2c0.3,1.3,1.8,8,2.6,11.2v-2.5c-0.8-3.4-1.9-8.1-2.1-9.1
			c-0.5-2.4-0.6-3.5-0.5-4.6c0.1-0.7,1-4.4,1.2-5.2c0.5-2.5,1-5,1.4-7.6v-4c-0.5,3.8-1.1,7.6-1.8,11.2
			C302.5,370,301.6,373.8,301.5,374.7z"/>
		<path class="st1" d="M288,362.4c5.4,0,9.8-9.3,9.8-20c0-10.5-2.5-13.5-6-7.8c-1.7,2.8-4.8,3.1-13.1,2.2c-2.1-0.3-4.2-0.4-6.3-0.5
			c-4.3,0-6.6-1.9-9.2-6.9c-0.5-0.9-2.7-5.5-3.4-6.8c-1.2-2.3-2.4-3.5-3.7-3.6c-1.3-0.1-1.8,0.2-4.6,2.2c-2,1.5-3.4,2.1-5,2.1
			c-2.6,0-4.2,1.8-6,5.9c-0.3,0.8-1.5,3.6-1.7,4c-0.6,1.5-1.3,2.9-2,4.3c-0.8,1.5-1.7,2.8-2.6,4c-3.4,4.4-4.9,8.5-6.6,16.5l-0.3,1.4
			l-0.2,0.7c-0.3,1.3-0.5,2.6-0.8,3.8c-0.5,2.4-1.1,4.6-1.7,6.8c-1.5,5.4-3.7,8.2-8.6,12.1l-2,1.6c-0.8,0.6-1.5,1.2-2.1,1.7
			c-1.6,1.4-3.1,2.7-4.4,4.2c-1.4,1.5-2.7,3.3-3.9,5.2c-8.3,13-9.6,17-9.6,29.8c0,6.3,1.7,8.7,4.8,7.9c2.2-0.6,2.9-1.1,10.1-6.7
			l0.4-0.3c1.7-1.3,2.5-1.3,2.7-0.4c0.2,0.9,0.2,2.1-0.1,5.8l-0.1,1.6c-0.4,6,0.1,9.3,2.4,10.1c2.2,0.8,3.5-0.3,4.7-2.8
			c0.1-0.3,0.7-1.7,0.8-1.9c0.4-0.8,0.8-0.6,2,2.4c1.3,3.2,1.4,5.8,0.9,11.6c-0.3,3.7-0.3,5.3-0.2,7.3c0.3,2.8,1,5.1,2.4,7.3
			c2.4,3.7,5.6,1,10.5-6.5c0.8-1.2,1.6-2.5,2.4-3.8l2.5-4.3c0.9-1.6,1.7-2.7,2.3-3.7c1.5-2.3,2.7-3.5,3.3-3.5c1.9,0,3.6-2.1,6.1-6.8
			c3-5.6,3.4-6.2,4.2-6.2c0.5,0,0.9,0.1,1.4,0.4l0.5,0.2c1.9,0.8,3.5-0.7,6.8-6.9c1.2-2.3,2.2-4.8,3.8-9.4l0.8-2.3
			c2.1-6,3.4-9.1,5.1-11.8c2.1-3.5,4.8-5.3,7.6-5.2c9.8,0,11-9.4,4-20.8c-2.7-4.4-3.7-8.1-3.1-10.6
			C283.7,363.8,285.5,362.4,288,362.4z M285.6,378.1c6.4,10.2,5.4,17.2-3.3,17.2c-3-0.1-5.9,1.9-8.2,5.7c-1.8,2.9-3.1,6.1-5.3,12.2
			l-0.8,2.3c-1.6,4.5-2.5,6.9-3.7,9.1c-3,5.8-4.3,6.9-5.8,6.3c-0.1,0-0.1,0-0.5-0.2c-0.7-0.3-1.1-0.4-1.6-0.4
			c-0.7,0-1.5,0.8-2.5,2.3c-0.4,0.6-0.7,1.2-1.2,2.1l-1.3,2.4c-2.3,4.3-3.8,6.2-5.4,6.2c-1,0-2.2,1.3-4,3.9c-0.7,1-1.4,2.2-2.4,3.8
			l-2.6,4.3c-0.9,1.5-1.6,2.7-2.3,3.8c-4.5,7-7.4,9.3-9.2,6.5c-2.1-3.3-2.4-6-1.9-12.7c0.5-6.4,0.4-9.4-1.2-13.1
			c-1.5-3.8-2.5-4.5-3.5-2.5c-0.2,0.3-0.8,1.8-0.9,2c-0.9,2-1.9,2.8-3.7,2.2c-1.6-0.6-2-2.8-1.6-7.8l0.1-1.5c0.4-4.2,0.4-5.6,0-7
			c-0.5-2.1-1.9-2.2-4-0.6l-0.4,0.3c-7,5.5-7.8,6-9.8,6.6c-2.5,0.7-3.6-0.9-3.6-5.9c0-12.1,1.1-15.5,9.2-28.2c1.2-1.9,2.5-3.5,3.8-5
			c1.4-1.5,2.8-2.9,4.3-4.1c0.6-0.5,1.3-1,2.1-1.7l2-1.6c5.1-4,7.5-7.1,9.1-13c0.6-2.3,1.2-4.6,1.7-7c0.3-1.3,0.5-2.6,0.8-3.9
			l0.1-0.7l0.3-1.4c1.6-7.7,2.9-11.4,6.2-15.6c1-1.3,1.9-2.7,2.7-4.2c0.7-1.4,1.4-2.9,2.1-4.5c0.2-0.4,1.3-3.2,1.6-4
			c1.6-3.7,2.9-5.2,5.2-5.2c1.7,0,3.2-0.7,5.3-2.2c2.6-1.9,3.2-2.2,4.2-2.1c1,0.1,2,1,3,3c0.7,1.3,2.9,5.8,3.4,6.8
			c2.8,5.4,5.3,7.5,9.9,7.5c1.5,0,3,0.1,5.7,0.4l0.5,0.1c8.7,0.9,11.8,0.6,13.8-2.7c2.8-4.6,4.3-2.7,4.3,6.2c0,9.7-4,18-8.8,18
			c-2.8,0-5,1.7-5.8,4.8C281.4,368.7,282.5,373.2,285.6,378.1z"/>
		<path class="st1" d="M282.5,349.9c0.4-1.5,0.2-2.9-0.7-4.2c-0.8-1.2-1.8-1.6-3.3-1.4c-1,0.2-1.5,0.3-4.3,1.5
			c-2,0.9-3.2,1.3-4.6,1.5c-2.1,0.3-3.9-0.2-5.5-1.7c-1.3-1.2-2.4-2.8-3.4-4.8c-0.4-0.8-0.8-1.7-1.3-2.8c-0.2-0.4-0.9-2.2-1-2.7
			c-1.4-3.4-2.5-4.8-4.7-4.8c-2.8,0-5.1,2.3-9.2,8l-0.7,1c-2.3,3.3-3.4,4.7-4.8,6.1c-2.2,2.2-3.9,5.7-5.7,11.3
			c-0.7,2.2-4.8,16.1-6.3,20.8c-1.9,5.8-3.5,7.6-7.3,9.3c-3.2,1.5-4.4,2.1-6.3,4.1c-2.7,2.7-5.3,7-8.2,13.5
			c-3,6.9-3.7,10.8-2.2,12.2c1,1,2.5,0.7,6.6-0.7l0.4-0.1c2.6-0.9,4-1.3,5.2-1.1c1.4,0.2,2,1.1,1.9,3c-0.3,6.1,0.1,9.3,1.4,10.7
			c1.1,1.2,2.5,1,5.7-0.2c0.9-0.4,1.6,0.6,2.1,2.9c0.4,1.8,0.6,3.9,1.1,8.9c0.5,5.8,0.8,8.3,1.5,10.4c0.9,2.8,2.3,3.2,4.3,0.8
			c2.1-2.6,7.6-8.8,7.7-8.8c1.6-1.9,3.1-4.1,4.5-6.7c0.8-1.6,1.6-3.4,2.4-5.6c2.1-5.7,3.8-6.8,7.8-7.1c2.5-0.2,3.6-0.5,5.1-1.7
			c0.5-0.4,1.1-1.2,1.6-2.1c0.9-1.7,1.7-3.5,2.4-5.5c0.5-1.3,2.3-6.2,2.6-6.9c3.8-10.1,6.7-14.7,10.4-14.7c4,0,6.1-1.8,6.5-5
			c0.3-2.8-0.7-6.3-2.7-9.6c-3.4-5.6-4.1-8.3-4.1-15.6c0-2.3,0.8-4.2,2.6-7.1C282,351.6,282.2,351.3,282.5,349.9z M276.8,362
			c0,7.6,0.7,10.6,4.2,16.4c1.9,3.1,2.9,6.3,2.6,8.6c-0.3,2.6-2.3,4.2-6,4.2c-3.9,0-6.9,4.8-10.8,15.1c-0.3,0.7-2.1,5.6-2.6,6.9
			c-0.7,1.9-1.5,3.7-2.4,5.4c-0.5,0.9-1,1.6-1.5,2c-1.4,1.2-2.5,1.5-4.9,1.7c-4.1,0.3-5.9,1.6-8.2,7.5c-0.7,1.9-1.5,3.8-2.4,5.5
			c-1.3,2.5-2.8,4.7-4.4,6.5c-0.1,0.1-5.5,6.2-7.7,8.9c-1.7,2.1-2.8,1.8-3.5-0.5c-0.6-1.9-0.9-4.3-1.4-10l0-0.4
			c-0.4-4.8-0.6-6.9-1.1-8.8c-0.6-2.7-1.4-3.9-2.7-3.5c-3.1,1.2-4.4,1.3-5.3,0.3c-1-1.1-1.4-4-1.1-9.8c0.1-2.6-0.8-3.9-2.4-4.1
			c-1.2-0.2-2.6,0.2-5.3,1.1l-0.4,0.1c-4,1.4-5.4,1.7-6.3,0.8c-1-1-0.5-4.2,2.4-10.7c2.8-6.4,5.4-10.6,8-13.3c1.9-1.9,3-2.6,6.2-4
			c3.9-1.8,5.6-3.7,7.6-9.8c1.5-4.8,5.6-18.6,6.3-20.8c1.8-5.6,3.4-8.9,5.5-11c1.4-1.4,2.5-2.9,4.8-6.2l0.7-1c4-5.6,6.2-7.8,8.9-7.8
			c2,0,3,1.2,4.3,4.4c0.2,0.4,0.9,2.2,1,2.7c0.4,1.1,0.9,2,1.3,2.9c1,1.9,2.1,3.6,3.6,5v0c1.7,1.6,3.6,2.1,5.8,1.8
			c1.3-0.2,2.6-0.6,4.6-1.5c4.7-2,6-2.2,7.1-0.4c0.6,1,0.8,2,0.5,3c-0.3,1.2-0.5,1.6-2.5,4.7C277.6,357.3,276.8,359.4,276.8,362z"/>
		<path class="st1" d="M274.3,366.3c-0.2-1-0.7-4.8-0.9-5.6c-1.1-6.7-2.5-8.1-8.3-8.1c-3.2,0-5.2-1.8-7.4-5.7
			c-0.2-0.4-1.3-2.4-1.6-2.9c-2-3.6-3.8-4.2-6.7-1.4v0c-6.7,6.4-9.1,10.9-12,21.2c-0.5,1.6-0.9,3.2-1.4,5l-1.1,4.3
			c-0.5,2.1-1,3.6-1.5,5.1c-0.8,2.3-1.7,4.5-2.7,6.5c-1,1.9-2.3,3.4-5.8,6.7c-3.5,3.4-4.8,4.9-5.9,6.9c-1.4,2.8-1.3,5.6,0.8,8.2
			c2.3,3,2.9,5.1,3.4,9.7c0.5,4.2,1.4,5.4,5,5.4c2.6,0,3.4,2.1,3.7,6.9c0,0.6,0.1,1.2,0.1,1.8c0.2,3.4,0.3,4.7,1,5.5
			c0.8,1,2.3,0.3,4.7-2.2c1.6-1.7,3.2-3.7,4.6-5.9c1.9-2.8,6.9-11.7,7.9-13.1c1.9-2.7,3.5-4,5.5-4c3.7,0,6.4-3.8,10.2-12.4
			c0.3-0.6,1.5-3.4,1.8-4.1c0.7-1.5,1.2-2.7,1.7-3.7c0.6-1.3,1.4-2.1,2.4-2.7c0.5-0.3,0.8-0.4,2-0.8c1.7-0.6,2.4-1.2,2.8-2.8
			c0.5-1.9,0.2-5.1-0.9-10.2C275.2,371.3,274.7,368.9,274.3,366.3z M276.1,383.7c-0.3,1.2-0.9,1.7-2.4,2.2c-1.2,0.4-1.5,0.6-2.1,0.9
			c-1,0.5-1.9,1.5-2.6,2.9c-0.6,1.2-1.2,2.4-1.7,3.7l-1.8,4.1c-3.6,8.3-6.3,12-9.8,12c-2.1,0-3.8,1.4-5.8,4.2
			c-1,1.4-6.1,10.4-7.9,13.1c-1.4,2.1-3,4.1-4.6,5.8c-2.2,2.4-3.5,3-4.1,2.3c-0.5-0.5-0.6-1.7-0.8-4.7c0-1-0.1-1.3-0.1-1.8
			c-0.3-5.2-1.4-7.8-4.2-7.8c-3.5,0-4.1-0.9-4.5-4.6c-0.5-4.8-1.2-7.2-3.6-10.3c-1.8-2.3-1.9-4.3-0.7-6.7c1-1.9,2.3-3.4,5.8-6.7
			c3.5-3.4,4.8-4.9,5.9-6.9c1.1-2,2-4.2,2.8-6.6c0.6-1.7,1.1-3.4,1.5-5.2l1.1-4.3c0.5-1.8,0.9-3.4,1.3-4.9
			c2.9-10.2,5.2-14.5,11.8-20.8c2.7-2.6,4.2-2.1,6.1,1.2c0.3,0.5,1.3,2.5,1.6,2.9c2.3,4.1,4.4,6,7.8,6c5.7,0,6.8,1.2,7.8,7.4
			c0.1,0.8,0.7,4.6,0.9,5.6c0.4,2.6,0.9,5.2,1.4,7.7C276.3,379.2,276.5,382.1,276.1,383.7z"/>
		<path class="st1" d="M300.3,111.5c-5.2,3.7-7.1,5.1-9.9,6.7c-0.9,0.6-1.4,0.8-2,1.3c-0.7,0.5-1.6,0.7-3.4,1.1
			c-0.5,0.1-0.9,0.2-1.4,0.3c-4.3,1-6.3,2.7-6.3,7.1c0,4.6,1.5,13.4,4.2,26.2c0.4,2,0.8,4.3,1.2,7.5c0.1,1.2,0.3,2.3,0.4,3.5
			c1,8,1.7,11.2,3.2,12.4c1.3,1,2.7,0.7,4.3-0.7c1.9-1.8,3.9-5.1,6-9.7c0.8-1.7,1.5-3.5,2.4-5.6c0.2-0.6,1.4-3.5,1.6-4.1
			c1.2-2.9,2.8-10.2,3.9-17.4v-3.5c-1.2,8-3,17-4.3,20.2l-1.6,4.1c-0.8,2.1-1.6,3.9-2.4,5.6c-2.1,4.5-4,7.8-5.8,9.5
			c-1.4,1.3-2.7,1.6-3.9,0.7c-1.2-1-1.9-4.1-2.9-11.7c-0.1-1.2-0.3-2.3-0.4-3.5c-0.3-2.6-0.7-5.1-1.2-7.6
			c-2.6-12.6-4.1-21.4-4.1-25.8c0-3.6,1.8-5.1,5.8-6.1c0.5-0.1,0.9-0.2,1.4-0.3c1.9-0.4,2.7-0.7,3.5-1.2c0.6-0.4,1.1-0.7,2-1.2
			c2.8-1.7,4.7-3,9.9-6.8c1.8-1.3,3.1-1.8,4.1-1.5v-1C303.5,109.7,302.1,110.2,300.3,111.5z"/>
		<path class="st1" d="M299.1,124.4c-0.6-1.2-1.6-1.3-3-0.4c-0.9,0.6-1.7,1.2-2.4,1.9c-0.4,0.4-1.5,1.5-1.7,1.7
			c-0.7,0.7-1.3,1.1-2,1.4h0c-0.3,0.1-0.6,0.2-1.2,0.3l-0.7,0.1c-1.5,0.3-2.4,1-3,2.7c-0.7,2.1-0.6,5.4,0.4,10.2
			c1.6,8.3,2.4,11.2,3.5,12.9c1.4,2.1,2.9,1.3,5.1-2.5c3.5-5.9,5.9-17.1,5.9-22.8c0-0.7,0-1,0-1.4
			C299.8,126.7,299.6,125.4,299.1,124.4z M293.3,151.2c-1.9,3.2-3,3.8-3.8,2.5c-0.9-1.4-1.6-4.3-3.2-12.1c-0.9-4.3-0.9-7-0.5-8.4
			c0.4-1.1,1-1.5,2.3-1.8l0.6-0.1c0.7-0.1,1-0.2,1.3-0.4c0.8-0.4,1.5-0.9,2.2-1.6c0.2-0.2,1.3-1.3,1.7-1.7c0.8-0.7,1.5-1.3,2.3-1.8
			c1.1-0.7,1.7-0.6,2,0c0.3,0.5,0.4,1.4,0.4,2.8c0,0.4,0,0.7,0,1.3C298.8,135.1,296.5,145.8,293.3,151.2z"/>
		<path class="st1" d="M299.7,115.5c-1.5,1.5-3,2.7-4.6,3.6l-0.1,0.1c-1.1,0.7-1.9,1.3-3,2.4c-1.6,1.5-2.5,2.2-3.4,2.7
			c-0.4,0.2-0.8,0.4-1.4,0.6c-0.2,0.1-0.5,0.2-0.9,0.3l-1,0.3c-0.5,0.1-0.8,0.2-1.5,0.3c-1.8,0.2-2.5,0.6-2.9,2.5
			c-0.5,2.2-0.2,6.1,1.1,12.9c0.5,3,1,6.1,1.4,9.2c0.2,1.1,0.7,5.8,0.9,7c0.8,5.9,1.4,8.9,2.4,10.5c1.2,2,2.8,1.2,5.1-2.4
			c6.2-10.2,9.8-22.7,11-36.3c0.8-8.7,0.9-10.7,0.6-12.7C303,113.7,301.9,113.5,299.7,115.5z M302.2,128.9
			c-1.2,13.4-4.7,25.7-10.8,35.7c-2.1,3.4-3.4,4-4.4,2.4c-0.9-1.4-1.5-4.3-2.2-10l-0.9-7c-0.4-3.1-0.9-6.2-1.4-9.3
			c-1.2-6.6-1.5-10.4-1.1-12.2c0.3-1.3,0.8-1.7,2.5-1.9c0.8-0.1,1.1-0.1,1.5-0.3c0.7-0.2,1.3-0.4,2-0.6c0.6-0.2,1-0.4,1.5-0.6
			c0.9-0.5,1.8-1.3,3.4-2.8c1-0.9,2-1.7,3-2.3l0.1-0.1c1.6-0.9,3.1-2.1,4.6-3.6c1.9-1.8,2.7-1.7,2.9,0.2
			C303,118.4,302.9,120.5,302.2,128.9z"/>
		<path class="st1" d="M291.9,110.5c-1.8,1.7-4.2,2.6-7.1,2.6c-2.5,0-5.1-0.5-7.5-1.3c-0.9-0.3-1.7-0.6-2.4-0.9
			c-0.2-0.1-0.5-0.2-1.9-0.6c-2.9-0.5-5.8-0.8-8.7-0.9c-5.8-0.2-9.3,0.7-9.8,3.4c-0.3,1.5,0.3,3.4,1.7,6c0.7,1.2,1.4,2.4,2.1,3.6
			c0.8,1.3,1.7,2.7,2.5,4c0.8,1.3,1.8,2.1,3.1,2.7c0.5,0.2,0.9,0.4,1.4,0.5c1.7,0.7,2.4,1.2,2.9,2.3c0.6,1.4,0.6,3.9-0.2,7.9
			c-1.2,6.5-2.7,9.4-4.8,9.7c-1.8,0.2-3.7-1.3-7.3-4.9c-2.2-2.3-3.3-6.9-4-14.6c-0.1-0.9-0.2-1.8-0.3-2.8l-0.2-2.8
			c-0.6-7-1-9.7-2.2-10.9c-0.4-0.4-0.9-0.8-1.3-1c-1.2-0.8-2.5-1.1-4.4-1c-1.2,0.1-7.7,1-7.4,1c-10.5,1.3-14.9,5.1-19.3,15.3
			c-0.6,1.5-1.3,3.1-2.2,5.5l-1.2,3.1c-0.4,1.1-0.9,2.2-1.3,3.3c-2.1,5.3-3.6,8.3-5.3,10.9c-0.3,0.5-0.7,1-1.1,1.6l-2.1,2.9
			c-0.9,1.3-1.8,2.6-2.7,4c-2.4,3.8-5.1,8.7-8.5,15.5c-4.4,8.8-6.3,13.9-6.2,16.7c0,2.5,1,3,4,3.3c0.8,0.1,1.1,0.1,1.5,0.2
			c1.5,0.2,2.5,0.7,3.3,1.6c3.8,4.1,5.9,7.1,7,11.2c1.6,5.7,0.4,11.9-4.5,19c-4.4,6.5-6,10.8-6.1,15.7c0,1.5,0,3.1,0.1,4.6
			c0.3,6.3,0.1,10.3-1.4,16.9c-0.7,3.1-1.4,5.5-2.1,7.4c-1.4,3.8-2.7,5.5-5.3,7.3c-0.2,0.2-1.7,1.2-2.2,1.6
			c-0.9,0.7-1.8,1.4-2.6,2.2c-2.4,2.3-4.8,5.1-6.9,8.4c-4.5,6.7-7,14.9-8.5,25.6c-0.6,4.3-0.8,6.9-1.5,15.3
			c-0.6,8.5-1.1,12.5-2.1,16.3c-1.1,4.3-6.2,26.6-6.7,28.9c-1.2,5.1-2.3,9.5-3.3,13.4c-2.1,8-3.9,14-5.5,17.6
			c-2.8,6.6-4.7,14.6-7.2,28.7c-0.3,1.9-0.6,3.7-1,5.6c-0.7,4-1.4,7.9-2.2,11.8c-3.1,14.9-12.9,25.7-23.6,25.7
			c-5.7,0-10.5-2.7-15.8-8.4c-2.9-3.1-2.3-2.4-11.5-14.5c-7.7-10.1-9.6-11.2-11.3-6.7c-0.2,0.5-1,2.8-1,2.8c-0.8,2-1.6,4-2.5,5.8
			c-0.4,0.8-2.9,5.9-3.6,7.5c-1.2,2.6-2.2,4.8-3.1,7c-1,2.4-1.9,5.1-2.7,7.8c-0.7,2.7-1,5.5-1.4,10.9l-0.2,3.3h0.5
			c0.1-1.1,0.2-2.1,0.2-3.2c0.4-5.4,0.7-8,1.4-10.6c0.7-2.7,1.6-5.3,2.6-7.7c0.9-2.1,1.9-4.3,3.1-6.9c0.8-1.6,3.2-6.7,3.6-7.5
			c0.9-1.8,1.8-3.8,2.6-5.9c0,0,0.8-2.3,0.9-2.8c1.4-3.8,3.2-2.9,10.6,6.9c9.2,12.1,8.6,11.4,11.5,14.5c5.4,5.8,10.3,8.6,16.1,8.6
			c10.9,0,20.9-11,24.1-26.3c0.7-3.3,1.3-6.5,2.2-11.9c0.3-1.9,0.7-3.7,1-5.6c2.5-14.1,4.3-22,7.1-28.4c1.6-3.7,3.5-9.7,5.6-17.8
			c1.1-4.4,2.2-8.9,3.3-13.4c0.5-2.3,5.6-24.6,6.7-28.9c1-3.9,1.5-8,2.1-16.6c0.6-8.4,0.9-11,1.5-15.2c1.4-10.5,3.9-18.6,8.3-25.1
			c2.4-3.6,4.6-6.2,6.8-8.2c0.8-0.8,1.7-1.5,2.6-2.1c0.5-0.4,2-1.4,2.2-1.6c2.7-2,4-3.7,5.5-7.7c0.8-2.4,1.6-4.9,2.2-7.5
			c1.6-6.8,1.8-11,1.5-17.4c-0.1-2.5-0.2-3.3-0.1-4.4c0.1-4.6,1.6-8.7,5.9-15c5-7.4,6.3-14.1,4.6-20.3c-1.2-4.3-3.4-7.4-7.2-11.6
			c-0.9-1-2-1.4-3.5-1.7c-0.4-0.1-0.7-0.1-1.5-0.2c-2.7-0.3-3.5-0.7-3.5-2.4c0-2.4,1.8-7.4,6.1-16c3.4-6.8,6.1-11.6,8.4-15.4
			c0.9-1.4,1.8-2.7,2.7-4l2.1-2.9c0.4-0.6,0.8-1.1,1.1-1.6c1.7-2.6,3.3-5.8,5.4-11.1l1.3-3.3l1.2-3.1c0.7-1.8,1.4-3.7,2.2-5.4
			c4.3-9.9,8.6-13.6,19.2-15c-0.5,0.1,6-0.9,7.1-0.9c1.8-0.1,3,0.1,4.2,0.9c0.4,0.3,0.8,0.6,1.2,1c0.9,0.9,1.4,3.5,1.9,10.1l0.2,2.8
			c0.1,1.1,0.2,2,0.3,2.9c0.8,8,2,12.8,4.3,15.3c3.6,3.8,5.6,5.3,7.5,5.1c2.3-0.3,4-3.5,5.3-10.3c0.8-4.3,0.8-7.1,0.1-8.9
			c-0.6-1.4-1.4-1.9-3.2-2.6c-0.9-0.3-1-0.4-1.4-0.5c-1.2-0.6-2.1-1.3-2.8-2.5c-0.8-1.3-1.7-2.7-2.5-4c-0.9-1.5-1.6-2.6-2.1-3.5
			c-1.3-2.3-1.8-3.9-1.6-4.9c0.4-2,3.9-2.9,9.3-2.7c2.9,0.1,5.8,0.4,8.6,0.9c0.6,0.1,1.2,0.3,1.8,0.6c0.7,0.3,1.5,0.6,2.4,0.9
			c2.6,0.9,5.2,1.4,7.6,1.3c3,0,5.5-0.9,7.3-2.7c4.1-4,8.1-6.8,11.3-7.5c0.4-0.1,0.7-0.1,1-0.1v-1c-0.3,0-0.7,0.1-1.1,0.1
			C300.2,103.6,296.1,106.5,291.9,110.5z"/>
		<path class="st1" d="M297.2,78.5c-3.8,1.6-6.7,1.6-13.1,0.6L283,79c-2.3-0.3-3.9-0.5-5.4-0.5c-10.6,0-19.9,3.7-30.7,12
			c-3.6,2.8-5.9,3.7-8.6,3.8c-0.8,0-1.2,0-2.9-0.1c-5.1-0.4-8.8,0-15.4,2.3c-8,2.8-12.9,9.8-16.3,20.8c-0.7,2.3-1.3,4.7-2,7.7
			c-0.1,0.3-1.2,5.5-1.6,6.8c-0.4,1.8-0.9,3.4-1.5,4.9c-0.9,2-2.1,3.5-5.9,8.2c-4.1,5-6.4,8-9.1,12.2c-4.6,7.3-8.2,15.6-11,25.7
			c-8.1,30-14.6,49.1-19.1,54.8c-4.1,5.2-11.3,9.3-30.5,17.9c-7.1,3.2-13.1,8.5-18.2,15.6c-3.8,5.2-6.4,10.1-10.4,18.6
			c-1.1,2.2-2.2,4.3-3.4,6.3c-0.9,1.5-4.1,6.8-4.1,6.8c-1.5,2.5-2.9,5-4.3,7.7c-2.9,5.5-5.4,11.6-7.5,18.3c-2.4,7.6-1.7,13,1.5,16.7
			c2.4,2.7,5.2,4.1,12.1,6.5c3.6,1.2,5.1,1.8,6.8,2.6c6.4,3.1,11,0.8,17-6.1l2.3-2.7c0.7-0.8,1.4-1.6,2.1-2.3
			c0.5-0.5,3.1-3.2,3.9-3.9c4.9-4.7,8.7-6.8,12.4-5.9c1.9,0.5,3.6,1.8,5.2,3.8c3.8,4.9,4.1,11.8,2.2,24c-0.2,1.1-0.3,2.1-0.6,3.7
			c-1.4,8.2-1.7,11.2-1.7,14.9c0,10.6-2.9,22.7-7.7,36.7c-0.8,2.4-1.5,5-2.1,7.6c-0.2,1-0.4,2-0.6,3.1c-1.7,8.8-2.2,11-4,17.3
			c-3.8,12.9-16.8,16.3-24,7.8c-1.1-1.3-2.2-2.6-3.3-3.9c-1.8-2-8.5-9.7-9.2-10.5c-4.3-5-8.5-9.8-13.4-15.7c-5-6-8.4-7.9-10.4-6.4
			c-1.6,1.2-2.3,4.4-2.4,9.4c0,1.1,0,2,0,3.8l0,1.7c0,4.2-1.4,8.4-5.6,18.7c-2.3,5.5-3.3,8.2-4.2,11c-1.3,4.1-2.2,10.8-3.5,24.1
			l-0.5,5.6c-0.2,1.7-0.3,3.2-0.5,4.6h0.5h0l0.4-4.4l0.5-5.6c1.3-13.2,2.2-19.8,3.4-23.7c0.9-2.8,1.9-5.4,3.9-10.4
			c4.6-11.1,6-15.4,6-19.9l0-1.7c0-1.2,0-2.5,0-3.7c0.1-4.7,0.7-7.5,2.1-8.5c1.8-1.3,5,0.5,10,6.4c5,5.9,9.1,10.7,13.4,15.7
			c0.7,0.8,7.4,8.4,9.2,10.5c1.1,1.3,2.2,2.6,3.3,3.9c7.4,8.8,20.7,5.2,24.7-8.2c1.9-6.3,2.4-8.6,4.1-17.5c0.2-1.2,0.4-2.1,0.6-3
			c0.6-2.6,1.2-5.1,2.1-7.5c4.9-14.1,7.8-26.4,7.8-37.3c0-3.5,0.4-6.4,1.7-14.6c0.3-1.6,0.4-2.7,0.6-3.7c1.9-12.6,1.6-19.9-2.4-25.1
			c-1.6-2.1-3.5-3.5-5.4-3.9c-3.9-1-7.7,1.2-12.7,6c-0.8,0.8-3.4,3.4-3.9,3.9c-0.6,0.6-1.3,1.4-2.2,2.4l-2.3,2.7
			c-5.9,6.8-10.3,9-16.6,6c-2.2-1-4.4-1.9-6.7-2.6c-6.9-2.4-9.7-3.8-12-6.4c-3-3.4-3.5-8.1-1.3-15.3c2.1-6.6,4.5-12.7,7.4-18.1
			c1.3-2.5,2.6-4.8,4.3-7.6c0,0.1,3.2-5.3,4.1-6.8c1.2-2,2.3-4.2,3.4-6.4c4-8.4,6.6-13.3,10.3-18.4c5.1-7,11-12.2,18-15.4
			c19.3-8.7,26.5-12.8,30.7-18.1c4.6-5.9,11.2-25,19.3-55.2c2.7-10,6.3-18.2,10.8-25.4c2.6-4.2,4.9-7.2,9-12.2c3.9-4.7,5-6.2,6-8.4
			c0.7-1.6,1.2-3.3,1.6-5.1c0.3-1.3,1.5-6.5,1.6-6.8c0.6-2.6,1.3-5.2,2-7.6c3.3-10.7,8.1-17.6,15.9-20.3c6.6-2.3,10.2-2.7,15.3-2.3
			c1.7,0.1,2.2,0.2,2.9,0.1c2.7-0.1,5.2-1.1,8.8-3.9c10.7-8.2,20-12,30.5-12c1.6,0,3.1,0.2,5.4,0.5l1.1,0.2c6.5,1,9.5,1,13.3-0.7
			c2.5-1.1,4.9-2.8,7.2-5.3V73C302.2,75.6,299.8,77.4,297.2,78.5z"/>
		<path class="st1" d="M294.5,194.6c-1.7,2.4-2.7,3.7-7.7,9.6c-1.2,1.5-2.1,2.5-2.9,3.5c-4,5-6.5,8.7-7.6,12.1
			c-1.5,4.4-3.3,7-5.7,8.4c-1.8,1.1-3.5,1.4-7.4,1.6c-6.5,0.3-9.7,1.2-13.8,4.8c-1.5,1.4-3,2.8-4.5,4.4c-2.2,2.5-8.5,10.2-9.4,11.3
			c-3.9,4.4-7.1,6.3-11.4,6.3c-10,0-16,7.5-29.2,35.2c-2.5,5.2-4.9,8.8-7.5,11.4c-1,1-2.1,1.9-3.2,2.7c-0.4,0.3-0.9,0.6-1.4,1
			c-6.7,4.5-8.2,9.4-8.2,28.2c0,17.7-0.9,23.6-3.9,29.2c-0.3,0.7-1.7,3.1-1.9,3.5c-0.8,1.4-1.5,3-2.3,4.6c-1.9,4.2-3.6,9.5-5.4,16.6
			c-0.9,3.6-1.7,7.3-2.4,11.1c-1.8,10.1-2.7,20.7-3,32.2c-0.2,8.7-0.1,16.3,0.3,28.3c0.4,10.7,0.4,12.1,0.4,15.7
			c0,6.9-0.6,11.6-2.2,18.7l-0.1,0.3h0.5h0c1.7-8.1,2.3-12.7,2.3-19c0-3.6,0-5-0.4-15.7c-0.4-12-0.5-19.6-0.3-28.2
			c0.3-11.4,1.2-21.9,3-31.9c0.7-3.8,1.4-7.4,2.3-11c1.8-7.1,3.5-12.2,5.3-16.4c0.7-1.6,1.4-3.1,2.2-4.5c0.2-0.4,1.6-2.8,1.9-3.5
			c3.1-5.8,4-12,4-29.9c0-10.1,0.5-16.3,1.7-20.1c1-3.1,2.2-4.6,4.8-6.4c1.9-1.3,2.3-1.5,2.8-1.9c1.2-0.8,2.2-1.7,3.2-2.8
			c2.6-2.7,5.1-6.3,7.6-11.6c13.1-27.4,19.1-34.8,28.8-34.8c4.4,0,7.7-2,11.7-6.4c0.9-1,7.2-8.8,9.4-11.3c1.4-1.6,2.9-3,4.4-4.4
			c4-3.5,7.1-4.4,13.6-4.7c4-0.2,5.6-0.5,7.5-1.6c2.5-1.5,4.4-4.2,5.9-8.9c1.1-3.2,3.5-6.9,7.4-11.8c1-1.2,1.9-2.3,2.9-3.5
			c5-5.9,6-7.2,7.7-9.6c2.8-4.1,4.9-8.5,7.2-15c0.7-2,1.5-4.3,2.5-7.4v-1.9c-0.9,3-1.9,5.9-2.9,8.8
			C299.3,186.2,297.3,190.6,294.5,194.6z"/>
		<path class="st1" d="M292.9,179.6c-1.1,1.7-2.2,3.3-3.2,5l-0.7,1c-0.8,1.3-1.7,2.6-2.5,3.9c-3.9,6-6.7,10-9.1,13.1
			c-1.6,2.1-2.1,2.9-4.3,7.3c-2.9,5.9-5.9,8.3-14.8,10.6c-5.9,1.5-10.5,5-16.1,11.2c-0.9,1-3.8,4.3-3.6,4.1
			c-1.4,1.6-2.4,2.7-3.4,3.6c-2.8,2.7-5.3,4.1-7.9,4.1c-9,0-21.8,11.6-27.1,23.2c-6.2,13.3-16.1,27.4-23.2,30.8
			c-4,2-6.5,7.4-7.7,15.4c-0.7,4.5-0.8,8.5-0.8,14.1c0,0.9,0,1,0.1,3.7c0.2,5.1,0.2,8.5-0.4,12.9c-0.8,6-2.5,12.3-5.4,19
			c-7.3,16.9-12,47-12,72.3c0,2.4,0,4.3,0,8.8c0.1,10.8,0,15.8-0.1,21.9c-0.3,11.2-1.1,20.8-2.6,29.4h0.5c1.5-8.6,2.3-18.1,2.6-29.3
			c0.2-6.2,0.2-11.2,0.1-22c0-4.5,0-6.4,0-8.8c0-25.1,4.7-55,11.9-71.7c3-6.8,4.7-13.2,5.5-19.4c0.6-4.5,0.6-8.1,0.4-13.3
			c-0.1-2.7-0.1-2.8-0.1-3.6c0-5.5,0.2-9.4,0.8-13.8c1.1-7.6,3.4-12.8,7.3-14.7c7.2-3.5,17.2-17.8,23.5-31.2
			c5.3-11.3,17.9-22.8,26.8-22.8c2.7,0,5.2-1.4,8.1-4.2c1-1,2-2.1,3.4-3.7c-0.2,0.2,2.8-3.2,3.6-4.1c5.6-6.2,10.1-9.6,15.9-11.1
			c9-2.3,12.1-4.9,15.1-11c2.2-4.4,2.6-5.1,4.2-7.1c2.4-3.1,5.2-7.2,9.1-13.2c0.8-1.3,1.7-2.6,2.5-3.9l0.7-1c1.1-1.7,2.1-3.3,3.2-5
			c1.9-2.9,3.4-5.1,4.7-6.9c2.2-3.1,4.5-9.8,6.6-17.9v-2.3c-2.1,8.8-4.6,16.2-6.9,19.4C296.3,174.4,294.8,176.7,292.9,179.6z"/>
		<path class="st1" d="M293.6,206.4c-0.6,0.7-1.2,1.5-1.9,2.4c-6.3,7.6-7.7,9.4-11.9,16.5c-4.8,8.1-6.1,10.1-7.6,11.2
			c-1.2,0.9-1.9,0.9-5.8,0.7c-1.4-0.1-2.5-0.1-3.8-0.1c-4.6,0-7.7,2.9-10.8,8.8c-0.3,0.5-2.3,4.6-2.9,5.6c-1.1,1.8-1.9,2.6-2.9,2.6
			c-2.8,0-3.6,0.1-4.7,0.7c-1.5,0.9-3,2.5-6.5,7.5c-4.9,6.8-8.8,8.8-15.2,8.8c-5.3,0-13.7,14.7-18.6,31.5
			c-3.9,13.4-9.1,20.2-17.3,25.5c-3.4,2.2-4.5,9.7-4.2,21.8c0.1,2.7,0.2,5.3,0.4,9c0.4,7.5,0.4,7.5,0.4,9.2c0,1-0.2,2-0.5,3.1
			c-0.6,1.9-1.6,3.7-3.9,7.5c-3.3,5.3-4.4,7.2-6.1,10.8c-2.7,5.4-4.9,11.5-6.5,18.2c-1.4,5.7-2.3,11.7-2.7,18
			c-0.8,10.9-0.5,22.5,0.6,33.8c0.2,2.4,0.5,4.6,0.7,6.5c0.3,4.6,0.2,5.9,0.2,7.3c-0.1,4-0.3,8.1-0.5,12.2c-0.2,3.5-0.4,6.7-0.7,9.7
			h1.1c0.2-2.9,0.5-6.1,0.6-9.4c0.3-5.4,0.5-10.7,0.6-16.1c-0.2-2.8-0.2-3.4-0.3-4.1c-0.2-1.9-0.5-4.1-0.7-6.4
			c-1-11.1-1.4-22.5-0.6-33.2c0.4-6,1.3-11.9,2.6-17.4c1.6-6.5,3.8-12.5,6.3-17.7c1.7-3.5,2.8-5.4,6-10.6c2.4-3.9,3.4-5.8,4.1-8
			c0.4-1.4,0.6-2.7,0.6-4.1c0-1.9,0-1.8-0.4-9.4c-0.2-3.7-0.3-6.2-0.4-8.8c-0.2-11.3,0.7-18,3.5-19.8c8.5-5.4,13.8-12.5,17.9-26.5
			c4.8-16.3,12.9-30.5,17.7-30.5c6.6,0,10.8-2.1,15.9-9.2c3.4-4.8,4.8-6.4,6.1-7.2c1-0.6,1.8-0.7,4.4-0.7c1.3,0,2.3-1,3.6-3.1
			c0.6-1,2.7-5.2,2.9-5.7c2.9-5.5,5.8-8.2,10.1-8.2c1.3,0,2.3,0,3.8,0.1c4.1,0.2,4.8,0.2,6.2-0.8c1.8-1.2,3.1-3.2,8-11.6
			c4.1-7,5.5-8.8,11.7-16.3c0.8-0.9,1.4-1.6,1.9-2.4c1.8-2.3,3.4-4.7,5-7.7c1.8-3.3,3.6-6.8,5.3-10.4v-3c-1.9,4.1-3.9,8-6,11.9
			C296.9,201.7,295.3,204.2,293.6,206.4z"/>
		<path class="st1" d="M249.9,154.2c-0.7-1.1-1.4-3.3-2.2-6.9c-0.3-1.3-1.3-6.1-1.5-6.7c-1.5-6.8-2.8-10.8-4.4-13.4
			c-3.9-5.9-7.9-5.7-14.2-0.1c-4,3.6-12,18.5-17.8,32.3c-1.1,2.7-2.5,5.1-4.8,8.5c-0.3,0.4-1.7,2.5-2,3c-0.8,1.1-1.4,2.1-1.9,3
			c-2.2,3.7-3.3,6.8-3.3,10.3c0.1,7.7,9.6,23,17.9,31.9c0.9,1,1.8,2,2.7,3.1c0,0,7.1,9.2,8.9,11c4.6,4.4,8.7,3.8,14.5-3.3
			c1.3-1.6,2.6-3,4-4.2c2.7-2.3,3.6-2.8,9.8-6.3c4.2-2.3,6.3-3.9,8.3-6.6c2.5-3.3,4.1-7.9,4.9-14.4c1.4-12-0.6-18.3-6.4-25.3
			c-1-1.2-4.8-5.5-5.4-6.1c-2.3-2.7-4.1-5-5.9-7.8h0C250.6,155.4,250.3,154.8,249.9,154.2z M256.4,165.5c0.6,0.7,4.4,4.9,5.3,6.1
			c5.5,6.6,7.2,12.2,5.9,23.2c-0.7,6-2.1,10.2-4.4,13.2c-1.9,2.5-4,4.1-8,6.3c-6.3,3.5-7.2,4-9.9,6.4c-1.4,1.2-2.8,2.7-4.2,4.3
			c-5.5,6.7-9.2,7.3-13.5,3.2c-1.8-1.7-8.8-10.8-8.8-10.9c-0.9-1.1-1.8-2.2-2.7-3.1c-8-8.4-17.2-23.5-17.4-30.2
			c0-2.7,0.9-5.4,2.9-8.7c0.6-1,1.2-2,1.9-2.9l2-3c2.4-3.5,3.8-6,5-8.8c5.7-13.6,13.6-28.3,17.4-31.7c5.9-5.3,9.6-5.5,13.1-0.1
			c1.5,2.3,2.7,6.1,4.1,12.6c0.1,0.6,1.2,5.5,1.5,6.8c0.9,3.9,1.6,6.3,2.5,7.7c0.4,0.6,0.8,1.2,1.2,1.8
			C252.2,160.4,254.1,162.8,256.4,165.5z"/>
		<path class="st1" d="M245.5,171.5c-2.5-2.4-4.7-5.7-7.4-10.6c-0.5-1-3.4-6.3-4.1-7.7c-1.5-2.7-2.7-4.4-3.9-5.5
			c-2.7-2.6-5.1-1.5-7.8,3.9c-0.8,1.6-1.6,3.2-2.4,4.7c-1.5,2.7-3,5.2-4.6,7.7c-7.2,11.7-7.7,12.5-9.4,16.3
			c-2.4,5.5-2.6,9.5-0.1,12.1c1.6,1.7,3,3.6,4.5,5.7c0.6,0.9,4.4,6.2,5.5,7.9c2.6,3.5,4.7,6.3,6.7,8.5c5.3,6,9.6,8.2,13,5.9
			c0.8-0.5,8.4-5.5,10.9-7.2c5.1-3.5,8.8-6.7,11.4-9.8c3.2-4,4.5-7.9,3.2-11.6c-0.6-1.8-1.2-3.6-1.9-5.2c-1-2.3-2.3-4.2-3.7-5.6
			C254.5,179.8,247.9,173.9,245.5,171.5L245.5,171.5z M255.3,181.8c1.3,1.4,2.5,3.2,3.5,5.4c0.7,1.6,1.3,3.3,1.9,5.1
			c1,3.2,0,6.6-3.1,10.3c-2.5,3.1-6.2,6.2-11.3,9.7c-2.5,1.7-10.2,6.7-10.9,7.2c-3.2,2.2-7.4,0-12.6-5.8c-2.3-2.6-4.5-5.5-6.7-8.5
			c-1.2-1.6-4.9-7-5.5-7.9c-2-2.8-3.4-4.6-4.5-5.8c-2.1-2.2-2-5.5,0.2-10.6c1.7-3.8,2.1-4.6,9.3-16.2c1.9-3.2,3.3-5.5,4.6-7.8
			c0.9-1.5,1.7-3.1,2.5-4.7c2.5-5.1,4.7-6.1,7.2-3.7c1.1,1.1,2.3,2.8,3.7,5.4c0.8,1.4,3.6,6.7,4.1,7.7c2.7,5,5,8.3,7.5,10.8
			C247.7,174.8,254.2,180.7,255.3,181.8z"/>
		<path class="st1" d="M240.8,190.5c-2.5-1.7-4.4-3.3-6.8-5.6c-3.1-2.8-3.4-3.1-4.5-3.8c-1.4-0.8-2.7-1.1-4.4-0.7v0
			c-2.8,0.6-5,2.3-6.3,4.7c-1.5,2.9-1.6,6.7-0.1,11.1c2,5.8,3.9,9.8,6.3,12.3c3.1,3.3,6.7,3.7,11.1,0.9c5.1-3.3,8.2-6.2,9.2-9.2
			C246.7,196.8,245.2,193.5,240.8,190.5z M245,199.7c-1,2.7-4,5.6-9,8.8c-4.2,2.7-7.7,2.3-10.7-0.8c-2.3-2.5-4.2-6.3-6.1-12
			c-1.4-4-1.3-7.3,0-9.8c1.2-2.3,3.4-3.8,6-4.4h0c1.4-0.4,2.8-0.1,4.1,0.7c1.1,0.6,1.4,0.9,4.4,3.7c2.5,2.3,4.4,3.9,6.9,5.6
			C244.7,194.3,246,197,245,199.7z"/>
		<path class="st1" d="M291.7,416.7c-5.9-11.4-11.9-11.1-15.9-1c-0.4,1.1-0.9,2.3-1.4,3.8l-1.5,4c-3.9,10.7-6.2,15-9.3,15
			c-4.3,0-5.4,0.3-7.1,2.1c-1.1,1.2-2.1,3-3.5,6c-1.4,3.1-2.9,4.9-6.1,7.6c-2,1.8-2.1,1.9-2.9,2.6c-1.8,1.7-3.5,4-5,6.7
			c-0.5,0.9-0.9,1.9-1.4,2.9l-0.6,1.2l-0.6,1.2c-2.7,5.8-4.2,8.5-6.2,10c-2.6,2-5.3,1.1-8.6-3.4c-3.6-5-4.3-8.5-3.9-13.8
			c0.2-2.5,0.2-3.1-0.2-3.9c-0.5-1-1.4-1.4-3.3-1.4c-3.2,0-4.2-2.2-4.6-7.6c0-0.3,0-0.5-0.1-1.3c-0.4-5.3-1-7.1-3.1-7.1h-13.5
			c-2.8,0-4.4,2.4-5,7.1c-0.5,3.6-0.5,6.7-0.1,17.1c0.2,5.1,0.2,8,0.2,11.3c0,4.9,0.2,6.7,2,19h0.5c-1.8-12.4-2-14.2-2-19
			c0-3.8-0.1-7.6-0.2-11.4c-0.3-10.2-0.3-13.3,0.1-16.8c0.6-4.3,1.9-6.3,4.5-6.3h13.5c1.8,0,2.2,1.4,2.6,6.2l0.1,1.3
			c0.5,5.8,1.7,8.4,5.1,8.4c1.7,0,2.6,0.4,3,1c0.2,0.5,0.2,1,0.1,3.1c-0.5,5.6,0.3,9.6,4.1,14.8c3.4,4.7,6.3,5.6,9.1,3.5
			c2.1-1.6,3.6-4.3,6.4-10.3l0.6-1.2c0.6-1.4,1.3-2.7,1.9-4.1c1.4-2.7,3-4.9,4.8-6.5c1-0.9,1.9-1.8,2.9-2.6c3.2-2.8,4.8-4.6,6.3-7.9
			c1.3-2.9,2.3-4.7,3.3-5.8c1.5-1.7,2.7-2,6.8-2c3.3,0,5.8-4.5,9.8-15.4l1.5-4c0.5-1.5,1-2.7,1.4-3.8c3.9-9.6,9.5-9.9,15.2,1
			c2.8,5.3,5.1,19.1,6.9,38c1.3,13.7,2.2,29.3,2.3,39.7h0.5c-0.2-10.4-1-26.1-2.3-39.9C297,436.2,294.6,422.2,291.7,416.7z"/>
		<path class="st1" d="M304.5,2.9L304.5,2.9C304.5,2.9,304.5,2.9,304.5,2.9L304.5,2.9z"/>
		<path class="st1" d="M44.6,423.7c1.9-6.3,2.5-12.4,2.5-24.7c0-7.6,1.3-13.8,4.1-22.9l1.5-4.6c0.5-1.5,0.9-2.9,1.3-4.5
			c0.9-3.3,1.3-6,1.4-8.7c0.1-4.1-0.7-7.9-2.7-11.7c-2.9-5.5-5-5.9-6.6-1.7c-1.2,3.1-1.9,8-2.7,16.9l-0.4,4.6
			c-0.3,3.2-0.6,6.4-1.1,9.5c-0.7,4.2-1.8,7.3-4.2,11.8c-0.2,0.4-1.4,2.6-1.7,3.2c-3.4,6.5-5.1,11.8-6,20l-0.6,5.5
			c-0.5,4.1-0.8,7-1.2,9.9c-1.9,13.6-5,25.8-11.6,44.4c-4,11.2-5.8,19.1-5.8,24.3h0.5c-0.1-4.9,1.7-12.6,5.7-23.7
			c6.7-18.8,9.8-31,11.7-44.7c0.4-2.9,0.8-5.8,1.2-9.9l0.6-5.5c0.9-8,2.6-13.1,5.9-19.5l1.7-3.2c2.4-4.7,3.6-7.8,4.3-12.3
			c0.4-2.3,0.7-4.9,1.1-9.6c0,0,0.3-3.5,0.4-4.6c0.8-8.7,1.5-13.6,2.6-16.5c1.3-3.6,3.1-3.3,5.8,1.9c1.9,3.6,2.6,7.1,2.5,10.9
			c-0.1,2.5-0.5,5.1-1.4,8.3c-0.4,1.5-0.8,3-1.3,4.4l-1.5,4.6c-2.9,9.2-4.2,15.6-4.2,23.4c0,12.1-0.6,18.1-2.4,24.2
			c-0.6,2.1-4.8,13.6-6.3,18.6c-1,3.1-3.3,10.2-3.5,10.9c-0.9,2.9-1.4,4.7-1.7,6.6c-0.5,3.4-0.5,2.2-0.5,20.8c0,6.7-0.9,11.6-2.7,15
			h0.7c1.6-3.6,2.5-8.5,2.5-15c0-18.4,0-17.2,0.5-20.5c0.3-1.8,0.7-3.6,1.6-6.4c0.2-0.7,2.5-7.8,3.5-10.9
			C39.9,437.4,44,425.8,44.6,423.7z"/>
		<path class="st1" d="M18.9,448.1c0.4-1.8,2.5-12.1,3.3-15.8c1.7-7.6,2.1-12.6,2.4-22.7c0.2-6,0.4-8.7,1-11.9
			c0.4-2.3,1-4.4,1.8-6.3c0.7-1.8,1.4-3.6,2.2-5.3l2.1-5c4.1-9.6,6.1-16.2,7.7-26.9c0.3-2,0.6-4.1,0.9-6.6l0.8-6.3
			c1.5-12,2.6-18.2,4.8-25.1c1-3.1,2.1-6.1,3.3-8.9c3.2-7,6.8-12.6,12.8-20.1c1.1-1.3,5.3-6.6,6.4-7.9c2.6-3.2,4.7-6,6.7-8.9
			c2.8-4,5.3-8.1,9.7-15.9l0.9-1.5c9.2-16,13.4-22.3,18.9-26.5c2-1.6,4.5-3,8.1-4.9c0.1,0,7.7-3.9,10-5.1
			c10.4-5.7,16.9-11.4,20.9-20.1c3-6.6,5.2-14.2,9-29.9l1.1-4.5c4.6-19,7.4-28.3,11.7-35.6c2.4-4.1,5-7.6,7.9-10.3l2.1-2
			c3.3-3.2,5.1-6,6.9-12.2c0.9-3.1,1.7-6.4,2.4-9.8c2.3-11.6,5.8-19.6,10.1-24.5c3.2-3.6,6.5-5.2,9.3-5.2c3.6,0,6.6-0.1,10.5-0.6
			c5.7-0.6,11.3-1.9,16.9-4c2.6-1,5.1-2.2,7.4-3.5c6.9-4,10.5-5,17-5.7l1.2-0.1c2.6-0.3,5.2-1,7.8-2.1c2.7-1.2,5.5-1.3,10.6-0.8
			c5.7,0.6,7.6,0.7,9.9,0.2c3.1-0.7,5.4-2.4,7-5.6c3.3-6.4,7.8-19.9,12.3-35.9V2.9c-4.7,16.3-9.3,30.3-12.6,36.7
			c-1.6,3-3.8,4.6-6.7,5.3c-2.3,0.5-4.2,0.4-8.9-0.1c-6.1-0.7-9-0.6-11.7,0.7c-2.6,1.2-4.7,1.7-7.7,2.1l-1.2,0.1
			c-6.5,0.8-10.1,1.8-17.1,5.8c-2.3,1.3-4.8,2.5-7.4,3.5c-5.6,2-11.2,3.4-16.8,4c-3.9,0.5-6.8,0.6-10.5,0.6c-2.9,0-6.3,1.7-9.6,5.3
			c-4.4,5-8,13.2-10.4,25c-0.6,3.3-1.4,6.6-2.3,9.7c-1.8,6-3.5,8.7-6.7,11.8l-2.1,2c-2.9,2.7-5.6,6.2-8,10.4
			c-4.3,7.4-7.2,16.8-11.8,35.9L152,166c-3.8,15.6-5.9,23.2-8.9,29.6c-3.9,8.5-10.3,14.2-20.7,19.8c-2.3,1.2-9.9,5.1-10,5.1
			c-3.6,1.9-6.1,3.4-8.2,5c-5.5,4.3-9.8,10.6-19,26.7l-0.9,1.5c-4.4,7.7-6.9,11.9-9.7,15.8c-2,2.9-4.1,5.7-6.7,8.9
			c-1.1,1.3-5.3,6.6-6.4,7.9c-6,7.6-9.7,13.1-12.9,20.3c-1.3,2.9-2.4,5.9-3.4,9c-2.2,7-3.3,13.4-4.8,25.4l-0.8,6.3
			c-0.3,2.4-0.6,4.5-0.9,6.6c-1.5,10.5-3.5,17.1-7.6,26.5l-2.1,5c-0.8,2-1.5,3.6-2.2,5.3c-0.8,2-1.4,4.2-1.9,6.5
			c-0.6,3.4-0.8,6.1-1,12.2c-0.3,9.9-0.7,14.8-2.4,22.3c-0.8,3.7-2.9,14-3.3,15.8c-0.5,2.5-1.1,4.9-1.8,7.3
			c-1.5,5.1-3.4,10-6.7,16.8c-3.1,6.5-4.7,11.1-5.6,16.4c-0.2,1.4-0.5,2.8-0.7,4.9l-0.3,2.1h0.5l0.2-1.8c0.2-1.6,0.4-3.2,0.7-4.8
			c0.9-5.1,2.4-9.6,5.5-16c3.3-6.8,5.3-11.8,6.8-17C17.8,453.1,18.4,450.6,18.9,448.1z"/>
		<path class="st1" d="M90.6,405.6c3.2,0,4.4-0.2,5.6-1.2c1.5-1.4,2.3-4.2,2.3-8.9c0-5.8-0.6-7.2-2.9-8.1c-2.3-0.8-3-1.2-4.4-2.8
			c-4.7-5.1-10.2-2.2-10.2,5.4c0,7.9,4,15.5,8.8,15.5L90.6,405.6z M81.4,390.1c0-6.7,5-9.3,9.5-4.6c1.5,1.6,2.3,2,4.6,2.9
			c2.1,0.7,2.5,1.8,2.5,7.1c0,4.4-0.6,6.8-2,8c-1.1,1-2.2,1.1-5.4,1.1h-0.9C85.2,404.6,81.4,397.4,81.4,390.1z"/>
		<path class="st1" d="M44.5,438.4c2.7-5.2,4.1-8.5,5.2-13c1.4-5.6,2.1-12.3,2.1-21.3c0-6.6,0.6-11.2,1.7-14.5
			c0.8-2.5,1.8-4,3.8-6.4c1.5-1.9,2.2-2.7,2.7-3.7c2.5-4.1,3.5-6.4,4.2-9.8c0.8-4.3,0.5-9.5-1-16.7c-0.6-2.8-1.3-5.5-2.1-8.2
			l-0.5-1.7c-0.5-1.6-0.9-3.3-1.4-5c-2.6-10.3-1.9-18.1,3.9-28.6c4.3-7.9,8.9-15.1,13.8-21.5c2-2.7,8.7-10.8,10-12.5
			c1.4-2,2.8-4.1,4.1-6.4c0,0,3.8-6.4,4.9-8.3c2.1-3.6,4.4-7,6.7-10.1c2.4-3.1,4.6-5.2,6.5-6.2c3.8-1.9,7.5-3.9,11.3-6
			c6.5-3.7,11.4-6.9,14.7-10.1c1.2-1.1,2.5-2,3.8-2.7c4.5-2.7,6.3-4.2,9-8.3c3.6-5.6,6.9-14.5,10.2-28.3
			c8.3-34.6,9.8-39.1,16.5-48.8c1.6-2.3,3.2-4,5.8-6.3l1.2-1c3.1-2.7,4.6-4.1,6.2-6.4c2.1-3,3.9-6.9,5-11.5c1-3.9,1.3-6.5,1.8-12.6
			c0.4-5,0.7-7.3,1.7-9.8c1.3-3.2,3.5-6,7.2-8.7c2-1.4,4.1-2.7,6.2-3.7c8.4-4.3,13-5.3,20.4-5.8c3.6-0.2,5-0.6,6.8-2.1
			c0.7-0.6,1.3-1.4,1.9-2.2c1.9-2.6,4.1-4.4,6.7-5.5c2.9-1.3,5.5-1.5,9.6-1.4l1.2,0c1.5,0,3.6-1,10-4.5c5.9-3.3,8.6-4.5,10.2-4.5
			c0.4,0,0.9,0.1,1.8,0.4l2.6,0.9c5.2,1.7,9.2,1.9,13.3-0.2c4.1-2.1,7.5-6.5,10.4-13.6v-1.6c-2.8,7.5-6.4,12.1-10.5,14.2
			c-4,2.1-7.9,1.9-13,0.2l-2.6-0.9c-0.9-0.3-1.4-0.4-1.8-0.4c-1.7,0-4.4,1.2-10,4.3c-6.7,3.7-8.7,4.7-10.2,4.7l-1.2,0
			c-4.2-0.1-6.7,0.2-9.7,1.5c-2.6,1.1-4.9,3-6.9,5.7c-0.6,0.9-1.2,1.6-1.9,2.1c-1.6,1.4-3,1.8-6.6,2c-7.4,0.5-12.1,1.5-20.5,5.8
			c-2.4,1.2-4.5,2.5-6.2,3.7c-3.8,2.7-6.1,5.6-7.4,9c-1.1,2.7-1.4,5.1-1.8,10.3c-0.5,6-0.8,8.5-1.7,12.3c-2.2,8.5-4.8,12-10.9,17.4
			l-1.2,1c-2.6,2.3-4.3,4-5.9,6.4c-6.8,9.8-8.4,14.4-16.7,49.2c-3.2,13.6-6.5,22.4-10,27.9c-2.6,4-4.3,5.4-8.8,8.1
			c-1.3,0.7-2.6,1.6-3.9,2.8c-3.2,3.1-8.1,6.4-14.6,10c-3.2,1.8-4.7,2.6-11.3,6c-2,1-4.2,3.2-6.7,6.3c-2.1,2.7-4.2,5.9-6.8,10.2
			c-1.2,1.9-4.9,8.3-4.9,8.3c-1.8,3-3,4.9-4,6.3c-1.3,1.7-7.9,9.8-10,12.5c-4.9,6.4-9.6,13.6-13.9,21.6c-5.9,10.9-6.7,19.1-4,29.8
			c0.4,1.7,0.9,3.4,1.4,5l0.5,1.7c0.8,2.6,1.5,5.3,2.1,8.1c1.4,7,1.7,12,1,16c-0.6,3.2-1.6,5.5-4,9.4c-0.6,1-1.3,2-2,2.8
			c-2.8,3.3-3.7,4.8-4.6,7.5c-1.2,3.5-1.7,8.3-1.7,15.1c0,8.9-0.7,15.5-2,20.9c-1.1,4.4-2.5,7.6-5.1,12.7
			c-3.8,7.3-6.3,29.4-6.3,49.4c0,2.8-0.3,5.5-0.9,8h0.6l0,0c0.6-2.5,0.9-5.2,0.9-8C38.3,467.3,40.8,445.5,44.5,438.4z"/>
		<path class="st1" d="M54.7,424.7c0.3-3.1,0.5-6.2,0.7-9.3c0.6-10.3,1.4-13.3,4-13.3c7.2,0,19.5,9,27.2,19.8
			c4.6,6.5,11.2,13.5,16.7,17.4c7.2,5,12.3,4.7,14.1-2.8c0.9-3.7,1-4.1,1.4-5.8c1.6-6.9,2.5-12.6,2.8-18.1c0.1-2.3,0.1-4.5,0-6.6
			c-0.2-3.3-0.9-5.4-2.4-8.5c-0.1-0.2-0.6-1.1-0.7-1.4c-0.5-1-0.8-1.8-1.2-2.6c-0.5-1.2-0.9-2.5-1.2-3.8l-0.6-2.1
			c-0.9-3.4-1.5-5.1-2.5-6.3c-2.9-3.8-8-5.8-15.3-7.2c-1-0.2-1.9-0.3-3.6-0.6c-0.8-0.1-1.5-0.2-2.2-0.3c-4.8-0.7-7.7-1.5-9.6-3.1
			C75.4,364.6,65,344.5,65,335c0-4.8,0.8-8.6,2.6-12.9c1-2.4,5.7-11.6,6.6-13.5c2.3-4.8,5.1-9.3,9-14.4c1.4-1.9,7.7-9.6,9.1-11.5
			c1.2-1.7,2.4-3.6,3.4-5.7c0.8-1.5,3.6-7.2,3.7-7.3c3.6-7.1,6.4-11.2,9.9-13.9c1.7-1.3,4.1-2.7,8.9-5.3c2-1.1,4.1-2.2,6.1-3.3
			c2.2-1.2,4.4-2.4,6.6-3.7c10.7-6.3,17.9-12.3,21.5-18.9c4.7-8.5,6.3-14.4,8.4-26.9c1-6.1,1.6-8.9,2.6-12.4
			c4.8-17.3,14.6-38.7,22-44.6c7.7-6.1,10.7-12.7,10.7-19.9c0-2.3,1.3-7.5,3.3-12.5c2.4-6,5.3-10.9,8.3-13.6
			c6.3-5.6,17.1-9.9,24.1-9.9c3,0,5.4-1.6,9-5.1c4.5-4.5,5-4.9,6.6-4.9c5.5,0,16.8-2.6,24-6l2-1c1.6-0.8,3.2-1.6,4.8-2.3
			c1.9-0.8,3.4-1.2,4.7-1.1c1.4,0.1,2.8,0.6,4.2,1.4c3.9,2.3,11.5-3.3,17.3-11.4v-2.4c-1.6,2.3-3.3,4.4-5.1,6.2
			c-4.7,4.8-9.5,7.1-11.9,5.7c-1.7-1-3.1-1.4-4.5-1.5c-1.5-0.1-2.9,0.3-5,1.2c-0.8,0.4-1.7,0.8-3.1,1.4l-1.8,0.9l-2,1
			c-7.1,3.4-18.3,6-23.7,6c-1.8,0-2.3,0.4-7,5.1c-3.4,3.4-5.8,4.9-8.5,4.9c-7.2,0-18.1,4.3-24.6,10.1c-3.2,2.8-6.2,8-8.7,14.2
			c-2.1,5.3-3.5,10.8-3.5,13.7c0,6.3-2.7,12.3-10,18.1c-7.7,6.1-17.6,27.7-22.5,45.5c-1,3.7-1.6,6.5-2.6,12.7
			c-2,12.2-3.6,17.8-8.2,26c-3.5,6.4-10.6,12.2-21.1,18.4c-2.2,1.3-4.4,2.5-6.6,3.7c-2,1.1-4.1,2.2-6.1,3.3c-4.8,2.6-7.3,4-9,5.4
			c-3.6,2.8-6.5,7.1-10.2,14.4c-0.1,0.2-2.9,5.8-3.7,7.3c-1,2-2.1,3.8-3.3,5.4c-1.4,1.9-7.6,9.6-9.1,11.5c-3.9,5.1-6.8,9.7-9.2,14.7
			c-0.9,1.8-5.6,11.1-6.6,13.5c-1.9,4.6-2.8,8.8-2.8,14.1c0,10.5,10.7,31.1,17.9,36.9c2,1.6,4.9,2.5,9.9,3.2l1.1,0.2
			c1.6,0.2,3.1,0.4,4.7,0.7c7.1,1.3,12.1,3.3,14.8,6.8c0.7,1,1.3,2.5,2.1,5.6l0.6,2.1c0.4,1.4,0.8,2.8,1.3,4.1
			c0.4,1,0.8,1.9,1.3,2.8l0.7,1.4c1.4,2.8,1.9,4.6,2.1,7.4c0.1,2,0.1,4,0,6.2c-0.3,5.3-1.2,10.8-2.7,17.5c-0.4,1.7-0.5,2.1-1.4,5.8
			c-1.5,6.1-6.1,6.4-12.8,1.7c-5.4-3.8-12-10.8-16.5-17.1c-7.8-11.1-20.4-20.2-27.8-20.2c-1.9,0-3.1,1.6-3.8,4.7
			c-0.6,2.3-0.8,4.9-1.2,10.4c-0.3,5.3-0.4,6.7-0.7,9.2c-0.8,7.1-2.1,12.2-4.5,16c-3.9,6.1-5.3,15.7-6,33.2
			c-0.1,1.5-0.1,2.5-0.2,5.6c-0.2,7.2-0.5,12.2-0.8,16h1.1h0c0.3-3.9,0.6-8.8,0.8-15.9c0.1-3.1,0.1-4.1,0.2-5.6
			c0.7-17,2-26.2,5.6-31.8C52.4,437.7,53.9,432.2,54.7,424.7z"/>
		<path class="st1" d="M-6,264.5l-0.5,0v0.5v0v0.5c0.2,0,0.3,0,0.5,0c2.8,0,3.3,4.4,1.9,12c-0.6,3.4-1.5,6.6-2.4,9.7v1.9
			c1.2-3.6,2.1-7.4,2.9-11.3C-2.1,269.7-2.7,264.5-6,264.5z"/>
		<path class="st1" d="M-2.1,288.2c4.2-24,4.1-27.5-0.1-31.6c-1.3-1.2-2.8-1.6-4.3-1v1c1.5-0.5,2.9-0.2,4,0.9
			c3.9,3.8,3.9,6.9-0.1,30.4c-1,5.6-1.7,9.2-2.4,11.9c-0.4,1.7-0.9,3.3-1.5,4.7v1.5c0.8-1.7,1.5-3.6,2-5.7
			C-3.8,297.5-3.1,293.8-2.1,288.2z"/>
		<path class="st1" d="M1,393.9c1.5,6.8,2.3,9.6,3.4,11c1.7,2.1,3.2-0.7,4.6-8.6c1.5-8.6,3.6-22.4,3.6-22.2c0.3-2,0.8-3.8,1.5-5.5
			c0.3-0.7,0.8-1.6,1.8-3c0.5-0.7,2.5-3.6,3-4.3c0.9-1.3,1.8-2.6,2.6-4.1c2.2-3.8,3.2-6.9,2.5-9.7c-0.9-3.6-3.2-3.9-7.5-2.3
			l-1.2,0.5c-2.7,1.1-3.5,1.3-4.3,1.3l-2,0c-3.6-0.1-4.8,0-6.1,0.7c-0.8,0.3-1.6,1.1-2.2,2.1c-0.6,1-1.1,2.4-1.4,3.9
			c-2,9-2.3,24.7,0,32.9C-0.3,388.2,0,389.3,1,393.9z M0.2,354.4c1.1-4.8,2.5-5.5,8.8-5.4c0.9,0,1.4,0,2,0c1,0,1.7-0.2,4.5-1.4
			l1.2-0.5c3.8-1.4,5.8-1.2,6.4,1.3c0.4,1.6-0.3,4.1-2.2,7.3c-0.7,1.2-1.5,2.5-2.6,4c-0.5,0.7-2.5,3.6-3,4.3c-1,1.5-1.7,2.6-2,3.4
			c-0.7,1.8-1.3,3.9-1.6,6c-1.1,7.5-2.3,14.9-3.6,22.2c-1.2,6.8-2.2,8.6-3,7.6c-0.8-1.1-1.6-3.8-3-10.1c-1-4.7-1.3-5.9-1.8-7.6
			C-2,378-1.7,362.9,0.2,354.4z"/>
		<path class="st1" d="M-4,408.7c0.3,5.3,0.4,9.2,0.5,18.4c0.1,9.5,0.3,13,0.9,15.5c0.9,3.4,2.5,3,5.1-1.2
			c9-14.5,11.5-23.3,11.5-39.4c0-7,0.6-12.1,1.9-17.2c1.2-4.6,1.9-6.5,6.9-19.5c1.2-3.1,2.5-6,3.9-8.7c0.4-0.8,0.8-1.4,1.3-2.2
			l0.5-0.8l0.5-0.8c0.6-1.1,1.1-2.1,1.5-3.6c0.5-2,0.9-4,1.2-6.1l0.2-1.2l0.2-1.2l0.3-2.2c0.2-1.2,0.4-2.5,0.5-3.8
			c0.2-2.5,0.1-4.2-0.7-5.2c-1.4-1.9-5.1-0.5-12.8,4.8c-4.9,3.4-8.2,4.1-14.3,4.2c-4.1,0.1-5.6,0.4-7.1,2.3
			c-1.9,2.3-3.2,6.8-4.2,14.9l-0.3,2.2v4c0.3-1.8,0.5-3.8,0.8-6c0.9-7.9,2.1-12.1,3.9-14.3c1.5-1.7,2.9-2.1,6.9-2.1
			c6.1-0.1,9.5-0.9,14.4-4.3c7.5-5.2,11.1-6.6,12.3-4.9c0.5,0.7,0.6,2,0.4,4.2c-0.1,1-0.2,2.1-0.5,3.7c-0.1,0.6-0.2,1.3-0.3,2.2
			l-0.2,1.1l-0.2,1.2c-0.3,2-0.7,4-1.2,5.9c-0.3,1.3-0.8,2.4-1.4,3.3c-0.1,0.2-0.3,0.4-0.5,0.7c-0.6,1-1.3,2-1.8,3.1
			c-1.4,2.7-2.8,5.7-3.9,8.8c-5.1,13-5.8,15-6.9,19.6c-1.3,5.3-1.9,10.5-1.9,17.7c0,15.7-2.4,24.3-11.3,38.6
			c-2.4,3.9-3.6,4.1-4.3,1.5c-0.6-2.3-0.7-5.7-0.8-15.1c-0.1-9.2-0.2-13.2-0.5-18.5c-0.4-6.4-1.1-12-2.2-16.8l-0.8-3.3v2.5v0
			l0.3,1.2C-5.1,396.9-4.5,402.4-4,408.7z"/>
		<path class="st1" d="M1.4,231.8c0.6-0.5,1-1,1.5-1.6c1.6-1.8,3.1-4.2,5.8-8.9c5.1-9,10.5-30.8,14.1-51.2c0.5-3,1-7.3,2-16.3
			l0.6-5.5l0.6-5.8c0.5-4.5,0.9-8.4,1.4-12.1c1.8-15,3.7-26,5.8-33.3c2.1-7,4.8-12.8,8.6-19.1c1.1-1.9,5.6-8.9,6.7-10.7
			c2-3.3,3.4-6.2,4.4-9.1c2.3-6.6,2.1-6.2,2.8-7.9c1.9-4.9,3.8-7.7,7.2-10.5c1.6-1.3,3.3-2.4,4.9-3.4c1.1-0.6,2.1-1.7,3-3.2
			c0.9-1.4,1.6-3.2,2.1-5.2c0.9-3.1,1.3-6,2.1-12.6c0.8-6.8,1.3-9.8,2.1-12.8c1-3.8,2.7-6.8,4.8-8.2c3.9-2.8,7.1-2.8,11.2-0.7
			c0.6,0.3,1.2,0.6,1.9,1l1.4,0.8c4.9,2.9,7.7,3.9,11.2,3.9c4.5,0,7.7-0.8,18.8-4c4.2-1.3,8.4-2.3,12.6-3.2c3-0.6,5.8-0.8,8.5-0.8
			c13.8,0,28.5-12.7,34.4-29.2c1.8-5.1,2.9-12.4,3.4-21.2c0.5-9.3,0.4-18.6-0.2-27.8c-0.1-5.6-0.2-8.3-1.2-18.3h-0.5
			c1,10.1,1.1,12.5,1.1,17c0.1,1.7,0.2,3.4,0.3,5.1c0.4,7.9,0.4,16.2,0,23.9c-0.5,8.6-1.6,15.7-3.3,20.7
			c-5.8,16.2-20.4,28.8-34,28.8c-2.7,0-5.5,0.3-8.5,0.8c-4.2,0.8-8.5,1.9-12.7,3.2c-11.1,3.3-14.3,4-18.8,4c-3.5,0-6.2-1-10.6-3.6
			L95-6.2c-0.7-0.4-1.3-0.7-1.9-1c-4.3-2.1-7.6-2.1-11.6,0.8c-2.2,1.5-4,4.6-5,8.7c-0.9,3.2-1.3,6.2-2.1,12.5
			c-0.8,7.1-1.3,10-2.1,13c-0.5,1.9-1.1,3.5-2,4.9c-0.8,1.4-1.8,2.4-2.8,3c-2,1.2-3.6,2.3-5,3.5c-3.5,2.9-5.4,5.8-7.4,10.8
			c-0.7,1.8-0.5,1.3-2.8,8c-1,2.9-2.3,5.7-4.3,8.9c-1,1.8-5.5,8.8-6.7,10.7c-3.9,6.4-6.6,12.3-8.7,19.4c-2.2,7.4-4.1,18.5-5.9,33.5
			c-0.7,6-1.4,12-2,18l-0.6,5.5c-0.9,8.9-1.4,13.2-1.9,16.1c-3.5,20.3-8.9,41.9-13.9,50.8c-2.6,4.6-4.1,7-5.7,8.7
			c-0.5,0.6-1,1.1-1.5,1.5c-0.2,0.2-5,4.4-7.3,6.7l-0.4,0.4v1.1l0.6-0.6C-3.5,236.2,1.2,232,1.4,231.8z"/>
		<path class="st1" d="M25.3,376.4c0.8-2.1,1.7-4.1,2.8-5.8c0.4-0.6,0.7-1.2,1.2-1.8l1-1.4c2-2.8,2.9-5.6,3.9-13.2
			c0.4-3,0.7-5,2.2-13.2l0.3-1.9c1.7-9.7,2.4-15.2,2.2-19.1c-0.3-5.3-2.4-6.3-6.6-2.4c-1.5,1.4-3.1,2.6-4.7,3.7
			c-7.1,4.6-13.8,5.8-21.9,5.4l-1,0c-3-0.2-6,0.8-8.8,3c-0.8,0.7-1.6,1.5-2.4,2.6v1.3c0.8-1.2,1.6-2.2,2.6-2.9c2.5-2,5.1-3,7.8-3
			l0.8,0l1,0c8.1,0.4,14.9-0.8,22.1-5.4c1.6-1,3.2-2.3,4.7-3.7c3.9-3.6,5.6-2.8,5.9,1.6c0.2,3.7-0.5,9.1-2.2,18.7l-0.3,1.9
			c-1.5,8.2-1.8,10.2-2.2,13.3c-0.9,7.3-1.8,9.9-3.7,12.6l-1,1.4c-0.4,0.6-0.8,1.2-1.2,1.8c-1,1.6-1.9,3.5-2.9,6
			c-5.6,14.3-8.9,30.1-8.9,46.3c0,15.4-7.6,30.7-17.5,39.6c-1.9,1.7-3.2-0.6-4.2-6.6c-0.3-1.8-0.6-3.8-0.8-6.2v4.3v0
			c0.1,0.7,0.2,1.5,0.3,2.1c1.1,6.5,2.7,9.2,5,7.2c10-9,17.8-24.6,17.8-40.5C16.6,406.1,19.8,390.5,25.3,376.4z"/>
		<path class="st1" d="M141.5,466.1c0-1.6-0.2-2.4-0.8-2c-0.3,0.2-0.7,1-1.3,2.5c-0.6,1.6-1.1,3.2-1.7,4.9l-0.5,1.5l-0.2,0.8
			c-0.4,1.3-0.9,2.6-1.3,3.9c-0.7,1.9-1.2,3.6-1.8,5c-1,2.8-2,4.9-2.8,6.3c-1.7,2.9-3.7,5-5.8,6.3h1.5c1.7-1.3,3.3-3.2,4.6-5.5
			c0.8-1.4,1.8-3.6,2.9-6.5c0.5-1.5,1.1-3.1,1.8-5.1c0.4-1.3,0.9-2.6,1.3-3.9l0.2-0.8l0.5-1.5c0.5-1.6,1.1-3.3,1.7-4.8
			c0.5-1.3,0.8-2,1-2.1c0,0,0.1,0.1,0.1,1.1l0,2.1c0,6.9,0,11.2-0.4,16.2c-0.2,3.6-0.6,7.2-1.3,10.7h0.6c0.6-3.4,1-7,1.2-10.6
			c0.3-5,0.4-9.4,0.4-16.3L141.5,466.1z"/>
		<path class="st1" d="M97.6,489.1c-1.6-1.2-6.5-5.1-7.2-5.6c-2.4-1.8-3.8-2.7-4.6-3c-0.9-0.2-1.2-0.7-4-5.1
			c-2.8-4.4-4.6-6.1-6.5-5.1c-1.8,0.9-3.4,4.2-4.8,10.5c-1,4.5-2.2,8.9-3.4,13.3l-0.3,0.9h0.6c1.3-4.5,2.5-9.1,3.5-13.8
			c1.4-6,2.8-9.2,4.4-10c1.7-0.8,3.4,0.7,6.1,4.9c2.9,4.6,3.3,5,4.3,5.3c0.8,0.2,2.1,1.1,4.5,2.9c0.7,0.5,5.6,4.4,7.2,5.6
			c1.5,1.1,2.9,2.2,4.4,3.2c1,0.7,2,1.3,2.9,1.9h1.8c-1.4-0.8-2.9-1.7-4.5-2.8C100.6,491.3,99.2,490.3,97.6,489.1z"/>
		<path class="st1" d="M144.8,427.3c-2.2,0-4.4,6.2-6.6,18.4c-5,27.6-11.3,40.3-21.3,40.3c-11.5,0-14.9-1.3-24.7-9.9
			c-1.6-1.5-3.2-3.1-4.8-4.9c-1.5-1.8-6.6-8.6-7.7-9.8c-2.5-2.7-4.3-3.1-6.1-0.9c-0.4,0.5-0.8,1.1-1.2,1.8c-0.7,1.3-1.4,2.6-2.2,3.7
			c-0.3,0.5-0.6,1-1.1,1.6c-0.3,0.5-0.7,1.1-1,1.6c-4.5,7-6.3,12.2-6.3,22.8c0,1,0,2,0,3h1c0-1,0-2,0-3c0-9.8,1.6-14.6,5.9-21.2
			l0.5-0.8c0.5-0.8,1.1-1.6,1.6-2.4c0.8-1.2,1.5-2.5,2.2-3.9c0.3-0.6,0.7-1.2,1-1.6c1.4-1.7,2.9-1.4,5,1c1.1,1.1,6.2,7.9,7.7,9.7
			c1.6,1.9,3.2,3.6,4.9,5c9.9,8.7,13.5,10.1,25.1,10.1c10.5,0,17.2-13.3,22.3-41.7c2.1-11.5,4.1-17.1,5.7-17.1c1.2,0,2.1,4,2.1,9.8
			c0,17.7-0.3,28.6-1.7,41.3c-0.4,3.6-0.9,7.1-1.4,10.4l-0.7,4.3h1.1h0c0.2-1.2,0.4-2.4,0.6-3.7c0.6-3.4,1-6.9,1.4-10.6
			c1.4-12.9,1.7-23.9,1.7-41.7C148,432.4,146.8,427.3,144.8,427.3z"/>
		<path class="st1" d="M288.4,459.7c-0.7-9.7-1.8-16.6-3.5-20.2c-2.2-4.6-5.2-3.5-9.1,4.3c-2.9,5.8-5.3,9.3-7.7,11.3
			c-1.8,1.5-3.1,1.9-5.9,2.4c-4.6,0.7-7,2.3-10.7,8.3c-3.1,5-10.1,18.7-10.9,20c-3.3,5.5-6.3,7.9-10.7,7.9
			c-10.1,0-14.9-4.3-17.4-15.7c-1.3-6.2-5.1-14.7-8.6-19.2c-1.9-2.5-3.5-3.6-4.8-3c-1.4,0.7-2.2,3.5-2.2,8.4c0,4.3-0.1,7.4-0.3,11.2
			l-0.1,2.6c0,0.9-0.1,1.7-0.1,2.4c-0.1,4.1,0,8.3,0.7,14.8h0.5c-0.7-6.6-0.8-10.7-0.7-14.8c0-0.7,0.1-1.4,0.1-2.3l0.1-2.6
			c0.2-3.8,0.3-7,0.3-11.3c0-4.5,0.6-6.9,1.8-7.5c1.1-0.5,2.6,0.5,4.4,2.9c3.4,4.4,7.1,12.8,8.4,18.8c2.6,11.9,7.6,16.3,17.9,16.3
			c4.6,0,7.7-2.4,11.1-8.1c0.8-1.3,7.8-15,10.9-20c3.6-5.9,5.9-7.4,10.5-8.1c2.8-0.5,4.2-0.9,6-2.4c2.4-2,5-5.6,7.9-11.5
			c3.7-7.4,6.3-8.4,8.3-4.3c1.6,3.4,2.7,10.2,3.4,19.7c0.4,5.1,0.5,7.7,0.8,17.3c0.1,3.7,0.1,5.3-0.5,18h0.5
			c0.6-12.7,0.6-14.3,0.5-18C288.9,467.4,288.8,464.8,288.4,459.7z"/>
		<path class="st1" d="M271.8,466.8c-3.3,1.6-7.2,7-10.1,13.9c-1,2.5-4.3,11-5.6,14.3h0.7c1.4-3.6,4.4-11.3,5.4-13.7
			c2.8-6.8,6.6-12.1,9.8-13.6c3.3-1.6,5.3,1.1,5.3,8.3c0,4,0,5.2-0.4,19h0.5c0.4-13.8,0.4-15,0.4-19
			C277.8,468.3,275.5,465.1,271.8,466.8z"/>
		<path class="st1" d="M64.6,447.1c0.6-1.6,1.1-3.3,1.5-5c0.2-0.7,0.9-3.7,1.1-4.4c1.5-5.7,3-5.9,8,0.8l3.3,4.4
			c1.2,1.5,2.3,3.1,3.5,4.6c2.6,3.4,4.9,6.2,7,8.7c7.5,8.8,13.4,13.4,17.9,13.4c8.9,0,17.3-6.1,20.9-15.2c0.9-2.1,1.7-5.3,2.7-9.9
			c0.4-1.9,0.8-4.1,1.4-6.8c0.3-1.4,1.2-6.4,1.4-7.3c2.4-12.3,4-18.9,5.9-23c4.2-9,7.8-36.4,7.8-53.3c0-1.8,0.1-3,0.5-8.1
			c0.2-1.7,0.3-3.4,0.4-5.1c0.3-5.7,0.1-9.9-1-13c-2.5-7.6-10.6-9.8-20.5-5.2c-3.9,1.8-7.1,3.9-9.9,6.4c-2.7,2.4-8.9,9.8-8.6,9.4
			c-3.4,3.5-6.5,4-12.5,1.2c-15-7-15.2-7.7-7.6-25.2c8.9-20.7,24.3-45.8,28.8-45.8c5.2,0,28.1-12,34.3-18.1
			c5-4.8,12.7-21.4,19.3-38.2c0.4-1,7-21.7,10-29.6c4.8-13,9.4-22.3,13.8-27.2c3.9-4.2,7-10.5,9.9-19c1-2.9,5.5-17.7,6.6-20.3
			c0.8-1.8,1.5-3,2.1-3.6c7.2-6.2,12.4-9,20.1-9h15c2.1,0,3.8-0.4,12-2.5l2.2-0.6c5.1-1.3,8.5-1.9,11.2-1.9c0.9,0,1.5,0,3.1,0
			c9.7,0.2,14.9-0.5,23.4-4.1c1.6-0.7,3.1-1.7,4.6-3.2v-1.1c-1.5,1.5-3.1,2.6-4.7,3.3c-8.5,3.6-13.6,4.2-23.3,4c-1.6,0-2.3,0-3.1,0
			c-2.7,0-6.1,0.6-11.3,1.9l-2.2,0.6c-8.1,2.1-9.8,2.5-11.9,2.5h-15c-7.8,0-13,2.8-20.3,9c-0.8,0.7-1.5,2-2.3,3.9
			c-1.1,2.8-5.6,17.5-6.6,20.4c-2.9,8.5-6,14.6-9.7,18.7c-4.5,5-9.1,14.4-14,27.5c-3,8-9.6,28.7-10,29.6
			c-6.5,16.7-14.2,33.1-19.1,37.9c-6.2,6-29,18-34.1,18c-4.8,0-20.2,25.3-29.2,46.2c-7.9,18.2-7.4,19.7,7.9,26.8
			c6.1,2.9,9.4,2.3,12.9-1.3c-0.3,0.3,5.9-7,8.6-9.4c3.2-2.7,6.4-4.8,9.8-6.3c9.7-4.5,17.6-2.3,19.9,4.8c1,2.9,1.2,6.9,0.9,12.4
			c-0.1,1.5-0.2,2.9-0.4,5.1c-0.4,5.2-0.5,6.4-0.5,8.3c0,16.7-3.6,43.9-7.7,52.7c-2,4.2-3.6,10.8-6,23.3l-1.4,7.3
			c-0.5,2.7-1,4.9-1.4,6.8c-1,4.5-1.8,7.6-2.6,9.6c-3.6,8.9-11.8,14.8-20.5,14.8c-4.5,0-10.3-4.6-17.7-13.3c-2.1-2.5-4.4-5.3-7-8.7
			c-1.1-1.4-2.1-2.8-3.5-4.6c-0.2-0.2-2.6-3.5-3.3-4.4c-5.3-6.9-7.1-6.7-8.8-0.4c-0.2,0.7-0.9,3.6-1.1,4.4c-0.4,1.7-0.9,3.3-1.5,4.9
			c-0.6,1.5-1.2,2.9-1.9,4.2c-5.5,9.8-9.9,31-9.9,43.4c0,0.3,0,0.7,0,1h0.5h0l0-1c0-12.1,4.3-33,9.8-42.6
			C63.4,450.1,64,448.7,64.6,447.1z"/>
		<path class="st1" d="M132.3,281.3c-0.9-0.4-1.7-0.3-4.4,0.5c-1.7,0.5-2.7,0.7-3.8,0.7c-0.6,0-1.1,0-2,0c-4.4-0.1-5.6,0.2-7.4,2.9
			c-0.2,0.4-0.5,0.8-0.7,1.3c-0.1,0.2-4.3,7.7-5.9,10.8c-0.8,1.5-1.5,2.9-2.2,4.3c-2.2,4.6-3.6,8.3-4,11.1c-0.6,3.6,0.4,5.6,3,5.6
			c5,0,7.7-2.2,11.9-8l0.4-0.6c2.1-2.9,3.3-4.3,4.8-5.4l1.2-0.9l0.1-0.1c3.9-2.9,5.7-4.3,7.3-6.4c2.3-2.8,3.4-6.1,3.4-10.1
			C134.2,283.7,133.6,281.9,132.3,281.3z M130.5,296.3c-1.6,2-3.3,3.5-7.2,6.3l-0.1,0.1l-1.2,0.9c-1.6,1.2-2.8,2.6-5,5.6l-0.4,0.6
			c-4.2,5.8-6.7,7.8-11.6,7.8c-2.3,0-3-1.4-2.5-4.3c0.4-2.6,1.8-6.3,3.9-10.8c0.7-1.5,1.4-2.9,2.1-4.3c1.6-3.1,5.8-10.6,5.9-10.8
			c0.2-0.4,0.5-0.8,0.7-1.2c1.6-2.5,2.8-2.9,7-2.7c0.9,0,1.4,0,2,0c1.1,0,2.1-0.2,3.8-0.7c2.6-0.8,3.3-0.9,4.2-0.5
			c1.1,0.4,1.6,1.8,1.6,4.7C133.7,290.7,132.6,293.7,130.5,296.3z"/>
		<path class="st1" d="M175,248c-0.8,0.3-1.1,2.2-1.1,6c0,7.6,2.6,10.2,4.6,4.6c1.1-3.1,1-4.8,0-6.4c0,0-1-1.4-1.3-1.9
			C176,248.3,175.6,247.7,175,248z M177.8,253.8c0.6,0.9,0.6,1.4-0.2,3.7c-1.3,3.8-2.7,2.4-2.7-3.5c0-2.8,0.2-4,0.3-4.1
			c0.1,0,0.5,0.5,1.3,1.8v0C176.8,252.4,177.8,253.8,177.8,253.8z"/>
		<path class="st1" d="M175.9,218.9c0-0.1-1.1,4-1.4,5c-0.4,1.3-0.8,2.6-1.3,3.8c-3.1,6.6-4.2,12.4-4.2,26.3c0,8.3,2,12.4,5.4,13.4
			c1.1,0.3,2.1,0.3,3.6,0.2l0.3,0c0.3,0,0.5-0.1,0.8-0.1c2.1,0,3.5-9.5,2.8-16.6c-0.5-6-0.5-7.3,0.5-12.8c0.7-3.7,1.8-6,7.3-16.1
			c0.7-1.2,1.3-2.5,2-3.8c1.2-2.3,1.4-4,0.6-4.9c-0.5-0.6-1.4-0.7-3-0.7l-0.4,0c-1.5,0.1-2.1,0-2.5-0.3c-0.6-0.4-1.1-1-1.6-1.6
			l-0.7-0.8c-0.7-0.8-1.2-1.3-1.9-1.6C179.9,207.4,178.2,210.8,175.9,218.9z M182.1,209.5c0.6,0.3,1.2,0.8,1.7,1.5l0.7,0.8
			c0.7,0.8,1.1,1.3,1.7,1.7c0.5,0.4,1,0.4,2.7,0.3l0.4,0c1.5,0,2.3,0.1,2.8,0.5s0.3,1.4-0.7,3.3c-0.6,1.1-1.2,2.3-2,3.7
			c-5.6,10.3-6.7,12.6-7.4,16.5c-1,5.6-1.1,7.1-0.5,13.2c0.6,6.5-0.7,15.4-2.3,15.4c-0.1,0-0.3,0-0.5,0c-0.2,0-0.4,0-0.6,0.1
			c-1.4,0.2-2.4,0.2-3.5-0.2c-3.2-1-5-4.7-5-12.5c0-13.7,1.1-19.2,4.1-25.7c0.5-1.2,1-2.5,1.4-3.9c0.3-1,1.5-5.2,1.4-5
			C178.5,211.7,180.1,208.5,182.1,209.5z"/>
		<path class="st1" d="M180.7,200.5c-1.6-0.1-2.8,1.8-4,6.3c-3.6,13.9-15,37.9-22.7,47.8c-3.5,4.5-9.7,8.4-19.8,13.4
			c-2.1,1-9.3,4.4-10.7,5.1c-3.8,1.9-6.4,3.2-8.3,4.6c-2.1,1.5-3.7,2.9-4.9,4.4c-1.5,2-2.2,3.7-3.3,7.1c-1.2,4.1-1.6,5.3-2.8,7.6
			c-0.7,1.4-1,1.9-3.1,5.5l-0.9,1.6c-2.2,3.9-3.4,6.5-4.2,9c-1,3.2-0.9,5.8,0.4,7.6c4.6,6.3,7.8,7.6,14.2,4.1
			c2.9-1.6,5.8-3.9,9.8-7.6c-0.2,0.1,4.2-3.9,5.3-4.9c1.5-1.4,3-2.6,4.6-3.6c1.8-1,3-1.3,5.4-1.3c0.2,0,0.3,0,0.5,0
			c3-0.1,4.9-0.9,7.6-3.7c5.7-6,7.2-6.9,11.3-6.9c1.9,0,3-1.8,4.4-5.7c0.1-0.2,0.6-1.8,0.8-2.2c0.8-2.2,1.4-3.1,2.1-3.1
			c4,0,7.9-2.1,10.5-7.2c0.9-1.7,2-2.7,4.5-4.5l0.5-0.4c2.2-1.6,3.4-2.6,4.4-4.2c1.4-2.1,2.1-4.8,2.1-8.4c0-16.3,1.8-28.6,6.1-33.6
			c2.7-3.1,5-8,5.8-12c0.9-4.8-0.6-7.9-4.3-7.9c-2.2,0-4.1-1.1-6.6-3.4l-0.7-0.6c-0.6-0.6-1.2-1.2-1.8-1.7
			C182.1,201,181.4,200.6,180.7,200.5z M185.2,205c2.5,2.4,4.5,3.5,6.8,3.5c3.4,0,4.6,2.5,3.8,6.6c-0.7,3.8-2.9,8.5-5.5,11.5
			c-4.5,5.2-6.3,17.8-6.3,34.4c0,5.9-1.7,8.5-6.1,11.6l-0.5,0.4c-2.6,1.8-3.7,2.9-4.7,4.7c-2.5,4.9-6.3,6.9-10.2,6.9
			c-0.9,0-1.6,1.1-2.5,3.5l-0.8,2.2c-1.3,3.7-2.3,5.3-4,5.3c-4.2,0-5.7,1-11.5,7.1c-2.6,2.7-4.4,3.5-7.4,3.6h-0.5
			c-2.5,0.1-3.8,0.3-5.6,1.4c-1.6,1-3.2,2.2-4.7,3.6c-1.1,1-5.5,5-5.3,4.9c-4,3.7-6.9,5.9-9.7,7.5c-6.3,3.5-9.3,2.2-13.8-3.9
			c-1.1-1.5-1.1-3.5-0.3-6.3c0.7-2.3,2-4.9,4.1-8.8l0.9-1.6c2-3.6,2.3-4.1,3.1-5.6c1.2-2.4,1.7-3.6,2.9-7.8c1-3.2,1.7-4.9,3.1-6.7
			c1.2-1.5,2.7-2.9,4.8-4.3c1.9-1.3,4.5-2.7,8.3-4.5c1.3-0.7,8.6-4,10.7-5.1c10.2-5,16.5-8.9,20-13.5c7.8-10.1,19.2-34.1,22.9-48.2
			c1.1-4.2,2.2-5.8,3.5-5.7C181.7,201.6,181.3,201.3,185.2,205z"/>
	</g>
</g>
</svg>
